{"glyphs":{"0":{"ha":931,"x_min":0,"x_max":0,"o":"m 465 853 b 69 417 228 853 69 678 b 465 -19 69 155 228 -19 b 861 417 703 -19 861 155 b 465 853 861 678 703 853 z m 465 811 b 765 417 645 811 765 653 b 465 22 765 180 645 22 b 166 417 286 22 166 180 b 465 811 166 653 286 811 z "},"1":{"ha":478,"x_min":0,"x_max":0,"o":"m 94 14 l 94 0 l 395 0 l 394 14 l 365 14 b 289 88 324 14 289 47 l 289 744 b 364 820 289 786 322 820 l 393 820 l 394 833 l 93 833 l 93 820 l 122 820 b 199 746 163 820 198 787 l 199 89 b 123 14 199 47 165 14 z "},"2":{"ha":768,"x_min":0,"x_max":0,"o":"m 139 632 b 351 815 136 750 221 813 b 554 613 477 818 554 741 b 81 12 554 414 244 147 l 81 0 l 657 0 l 724 181 l 710 181 b 545 78 660 105 629 78 l 221 78 b 658 616 360 186 658 398 b 351 853 658 763 537 853 b 101 774 262 853 154 820 l 125 632 z "},"3":{"ha":699,"x_min":0,"x_max":0,"o":"m 109 622 l 123 622 b 298 809 117 732 183 808 b 469 646 415 808 465 728 b 215 409 478 494 339 408 l 212 395 b 498 165 378 394 497 322 b 86 -169 497 -35 307 -175 l 83 -183 b 602 161 362 -232 601 -56 b 384 412 601 308 494 394 b 575 643 476 422 575 527 b 301 850 575 764 469 858 b 85 751 192 844 129 801 z "},"4":{"ha":810,"x_min":0,"x_max":0,"o":"m 698 207 l 728 311 l 714 311 b 638 283 697 291 689 283 l 577 283 l 577 853 l 564 853 l 56 220 l 56 207 l 487 207 l 487 -53 b 410 -125 485 -94 451 -125 l 395 -125 l 395 -139 l 669 -139 l 669 -125 l 654 -125 b 577 -51 613 -125 578 -92 l 577 207 z m 160 283 l 487 689 l 487 283 z "},"5":{"ha":692,"x_min":0,"x_max":0,"o":"m 587 874 l 573 874 b 462 804 551 832 520 804 l 188 783 l 79 407 l 92 401 b 483 203 319 478 496 390 b 72 -168 465 -51 189 -171 l 69 -182 b 587 214 185 -203 573 -124 b 150 487 597 455 382 546 l 214 707 l 540 728 z "},"6":{"ha":778,"x_min":0,"x_max":0,"o":"m 257 438 b 409 509 293 485 351 509 b 597 280 529 510 595 420 b 409 21 599 148 542 21 b 194 377 266 21 194 168 b 562 1010 194 665 298 925 l 557 1020 b 90 377 239 982 94 665 b 409 -21 87 125 223 -24 b 701 299 599 -18 712 139 b 249 450 681 607 393 624 z "},"7":{"ha":697,"x_min":0,"x_max":0,"o":"m 88 831 l 642 831 l 493 431 b 307 -139 459 339 343 14 l 209 -139 b 436 436 266 2 378 284 l 559 757 l 167 757 b 63 674 111 757 83 729 l 49 674 z "},"8":{"ha":767,"x_min":0,"x_max":0,"o":"m 463 518 b 633 757 573 558 633 646 b 383 992 633 907 526 994 b 133 759 228 989 133 890 b 284 509 133 654 194 573 b 83 251 156 449 89 368 b 383 -19 76 89 200 -19 b 683 243 565 -19 683 88 b 463 518 683 399 564 467 z m 381 560 b 237 777 289 613 237 685 b 385 950 237 871 290 950 b 529 768 473 950 529 879 b 412 543 529 688 499 608 z m 385 22 b 187 237 261 22 186 106 b 325 482 189 353 249 430 b 376 453 341 472 358 462 b 579 224 464 407 579 367 b 385 22 579 122 519 22 z "},"9":{"ha":778,"x_min":0,"x_max":0,"o":"m 522 391 b 369 319 485 347 426 321 b 182 549 249 317 185 414 b 370 808 179 688 238 808 b 584 441 513 808 583 667 b 216 -181 583 165 478 -107 l 221 -190 b 688 450 542 -162 688 174 b 369 850 688 707 561 853 b 78 529 199 847 72 725 b 529 379 86 233 390 203 z "},"A":{"ha":989,"x_min":0,"x_max":0,"o":"m 1312 -265 b 826 216 1059 -319 904 -7 l 656 696 b 164 1019 587 891 490 1157 l 168 1005 b 461 920 312 1057 400 1006 l 117 94 b -1 14 88 37 39 14 l -14 14 l -14 0 l 266 0 l 266 14 l 253 14 b 201 101 218 14 180 45 l 297 349 l 678 349 l 732 190 b 1313 -279 873 -226 1094 -360 z m 313 390 l 496 860 b 554 714 519 813 538 762 l 664 390 z "},"Á":{"ha":989,"x_min":0,"x_max":0,"o":"m 509 1075 b 733 1193 584 1112 658 1150 b 676 1266 718 1221 697 1245 b 499 1085 617 1210 558 1148 z m 1312 -265 b 826 216 1059 -319 904 -7 l 656 696 b 164 1019 587 891 490 1157 l 168 1005 b 461 920 312 1057 400 1006 l 117 94 b -1 14 88 37 39 14 l -14 14 l -14 0 l 266 0 l 266 14 l 253 14 b 201 101 218 14 180 45 l 297 349 l 678 349 l 732 190 b 1313 -279 873 -226 1094 -360 z m 313 390 l 496 860 b 554 714 519 813 538 763 l 664 390 z "},"Ă":{"ha":989,"x_min":0,"x_max":0,"o":"m 639 1219 b 510 1145 625 1182 574 1145 b 380 1219 445 1145 394 1182 l 366 1219 b 510 1075 366 1141 432 1075 b 653 1219 587 1075 653 1141 z m 1312 -265 b 826 216 1059 -319 904 -7 l 656 696 b 164 1019 587 891 490 1157 l 168 1005 b 461 920 312 1057 400 1006 l 117 94 b -1 14 88 37 39 14 l -14 14 l -14 0 l 266 0 l 266 14 l 253 14 b 201 101 218 14 180 45 l 297 349 l 678 349 l 732 190 b 1313 -279 873 -226 1094 -360 z m 313 390 l 496 860 b 554 714 519 813 538 762 l 664 390 z "},"Â":{"ha":989,"x_min":0,"x_max":0,"o":"m 502 1250 l 516 1250 l 674 1085 l 666 1073 l 508 1165 l 363 1074 l 355 1085 z m 1312 -265 b 826 216 1059 -319 904 -7 l 656 696 b 164 1019 587 891 490 1157 l 168 1005 b 461 920 312 1057 400 1006 l 117 94 b -1 14 88 37 39 14 l -14 14 l -14 0 l 266 0 l 266 14 l 254 14 b 201 101 218 14 180 45 l 297 349 l 678 349 l 732 190 b 1313 -279 873 -226 1094 -360 z m 313 390 l 496 860 b 554 714 519 813 538 763 l 664 390 z "},"Ä":{"ha":989,"x_min":0,"x_max":0,"o":"m 378 1075 b 433 1129 408 1075 433 1099 b 378 1184 433 1159 408 1184 b 324 1129 348 1184 324 1159 b 378 1075 324 1099 348 1075 z m 640 1075 b 694 1129 670 1075 694 1099 b 640 1184 694 1159 670 1184 b 586 1129 610 1184 586 1159 b 640 1075 586 1099 610 1075 z m 1312 -265 b 826 216 1059 -319 904 -7 l 656 696 b 164 1019 587 891 490 1157 l 168 1005 b 461 920 312 1057 400 1006 l 117 94 b -1 14 88 37 39 14 l -14 14 l -14 0 l 266 0 l 266 14 l 253 14 b 201 101 218 14 180 45 l 297 349 l 678 349 l 732 190 b 1313 -279 873 -226 1094 -360 z m 313 390 l 496 860 b 554 714 519 813 538 762 l 664 390 z "},"À":{"ha":989,"x_min":0,"x_max":0,"o":"m 519 1085 b 343 1267 460 1149 401 1210 b 286 1193 321 1246 301 1222 b 509 1075 360 1150 435 1110 z m 1312 -265 b 826 216 1059 -319 904 -7 l 656 696 b 164 1019 587 891 490 1157 l 168 1005 b 461 920 312 1057 400 1006 l 117 94 b -1 14 88 37 39 14 l -14 14 l -14 0 l 266 0 l 266 14 l 253 14 b 201 101 218 14 180 45 l 297 349 l 678 349 l 732 190 b 1313 -279 873 -226 1094 -360 z m 313 390 l 496 860 b 554 714 519 813 538 762 l 664 390 z "},"Ā":{"ha":989,"x_min":0,"x_max":0,"o":"m 340 1119 l 687 1119 l 687 1167 l 340 1167 z m 1312 -265 b 826 216 1059 -319 904 -7 l 656 696 b 164 1019 587 891 490 1157 l 168 1005 b 461 920 312 1057 400 1006 l 117 94 b -1 14 88 37 39 14 l -14 14 l -14 0 l 266 0 l 266 14 l 253 14 b 201 101 218 14 180 45 l 297 349 l 678 349 l 732 190 b 1313 -279 873 -226 1094 -360 z m 313 390 l 496 860 b 554 714 519 813 538 762 l 664 390 z "},"Ą":{"ha":1010,"x_min":0,"x_max":0,"o":"m 1291 -204 b 832 219 1039 -211 920 1 l 640 693 b 143 1000 567 873 465 1093 l 147 986 b 447 887 292 1010 384 962 l 117 94 b -1 14 88 37 39 14 l -14 14 l -14 0 l 266 0 l 266 14 l 253 14 b 201 101 218 14 180 45 l 297 349 l 679 349 l 739 190 b 825 4 767 117 795 55 b 689 -75 764 8 708 -21 b 898 -206 636 -226 820 -299 l 893 -194 b 754 -82 805 -239 730 -158 b 836 -15 766 -44 792 -21 b 1293 -218 969 -231 1119 -243 z m 313 390 l 485 832 b 543 708 508 793 527 751 l 663 390 z "},"Å":{"ha":989,"x_min":0,"x_max":0,"o":"m 510 1284 b 379 1180 435 1284 379 1241 b 510 1075 379 1119 435 1075 b 640 1180 584 1075 640 1119 b 510 1284 640 1245 584 1284 z m 510 1260 b 578 1180 548 1260 578 1231 b 510 1099 578 1128 548 1099 b 441 1180 471 1099 441 1128 b 510 1260 441 1231 471 1260 z m 1312 -265 b 826 216 1059 -319 904 -7 l 656 696 b 164 1019 587 891 490 1157 l 168 1005 b 461 920 312 1057 400 1006 l 117 94 b -1 14 88 37 39 14 l -14 14 l -14 0 l 266 0 l 266 14 l 253 14 b 201 101 218 14 180 45 l 297 349 l 678 349 l 732 190 b 1313 -279 873 -226 1094 -360 z m 313 390 l 496 860 b 554 714 519 813 538 762 l 664 390 z "},"Ã":{"ha":989,"x_min":0,"x_max":0,"o":"m 698 1184 b 607 1075 690 1116 655 1075 b 440 1136 547 1075 484 1136 b 364 1079 404 1136 380 1118 l 350 1079 b 440 1197 361 1152 395 1197 b 607 1137 502 1197 559 1137 b 684 1184 646 1137 671 1152 z m 1312 -265 b 826 216 1059 -319 904 -7 l 656 696 b 164 1019 587 891 490 1157 l 168 1005 b 461 920 312 1057 400 1006 l 117 94 b -1 14 88 37 39 14 l -14 14 l -14 0 l 266 0 l 266 14 l 253 14 b 201 101 218 14 180 45 l 297 349 l 678 349 l 732 190 b 1313 -279 873 -226 1094 -360 z m 313 390 l 496 860 b 554 714 519 813 538 763 l 664 390 z "},"Æ":{"ha":1211,"x_min":0,"x_max":0,"o":"m 1191 193 b 979 42 1155 106 1089 44 l 654 42 l 654 445 l 924 445 b 990 376 961 443 990 413 l 990 356 l 1004 356 l 1004 576 l 990 575 l 990 555 b 923 486 990 518 960 487 l 654 486 l 654 930 l 822 930 b 890 861 860 929 890 899 l 890 841 l 903 841 l 903 998 b 738 972 878 987 798 973 l 524 972 l 524 958 l 530 958 b 560 910 556 958 571 934 l 51 109 b -276 -112 -46 -43 -144 -107 l -278 -126 b 125 76 -163 -154 17 -111 l 340 445 l 563 445 l 563 81 b 495 14 563 44 532 14 l 481 14 l 481 0 l 1128 0 l 1205 193 z m 364 486 l 563 829 l 563 486 z "},"B":{"ha":825,"x_min":0,"x_max":0,"o":"m 80 972 l 80 958 l 98 958 b 187 872 143 958 185 924 l 187 63 b 15 331 98 102 36 180 l 0 329 b 377 -19 -7 95 150 -19 b 770 282 612 -19 770 101 b 491 567 770 425 678 539 b 602 747 557 592 602 660 b 314 972 602 889 485 972 z m 277 928 l 295 928 b 498 745 424 928 498 874 b 324 555 498 603 407 554 l 324 542 b 666 289 459 542 666 503 b 381 31 666 142 567 31 b 277 38 345 31 310 33 z "},"C":{"ha":1140,"x_min":0,"x_max":0,"o":"m 1092 521 b 622 22 1092 207 897 22 b 167 490 349 22 167 228 b 597 950 167 753 350 950 b 967 702 760 950 925 864 l 979 702 l 951 898 b 596 992 865 954 722 992 b 62 488 290 992 62 775 b 615 -19 62 200 292 -19 b 1106 521 921 -19 1118 161 z "},"Ć":{"ha":1140,"x_min":0,"x_max":0,"o":"m 614 1061 b 837 1180 689 1098 763 1136 b 781 1253 823 1207 802 1231 b 604 1071 722 1196 663 1134 z m 1092 521 b 622 22 1092 207 897 22 b 167 490 349 22 167 228 b 597 950 167 753 350 950 b 967 702 760 950 925 864 l 979 702 l 951 898 b 596 992 865 954 722 992 b 62 488 290 992 62 775 b 615 -19 62 200 292 -19 b 1106 521 921 -19 1118 161 z "},"Č":{"ha":1140,"x_min":0,"x_max":0,"o":"m 621 1061 l 607 1061 l 449 1226 l 457 1238 l 615 1146 l 760 1237 l 768 1226 z m 1092 521 b 622 22 1092 207 897 22 b 167 490 349 22 167 228 b 597 950 167 753 350 950 b 967 702 760 950 925 864 l 979 702 l 951 898 b 596 992 865 954 722 992 b 62 488 290 992 62 775 b 615 -19 62 200 292 -19 b 1106 521 921 -19 1118 161 z "},"Ç":{"ha":1140,"x_min":0,"x_max":0,"o":"m 1092 521 b 622 22 1092 207 897 22 b 167 490 349 22 167 228 b 597 950 167 753 350 950 b 967 702 760 950 925 864 l 979 702 l 951 898 b 596 992 865 954 722 992 b 62 488 290 992 62 775 b 596 -19 62 206 283 -11 l 535 -99 l 542 -112 b 658 -158 591 -92 656 -100 b 533 -247 661 -225 590 -247 l 532 -261 b 728 -160 625 -290 731 -247 b 582 -79 725 -64 631 -62 l 634 -19 b 1106 521 929 -12 1118 168 z "},"Ċ":{"ha":1140,"x_min":0,"x_max":0,"o":"m 612 1062 b 672 1122 645 1062 672 1089 b 612 1182 672 1155 645 1182 b 552 1122 579 1182 552 1155 b 612 1062 552 1089 579 1062 z m 1092 521 b 622 22 1092 207 897 22 b 167 490 349 22 167 228 b 597 950 167 753 350 950 b 967 702 760 950 925 864 l 979 702 l 951 898 b 596 992 865 954 722 992 b 62 488 290 992 62 775 b 615 -19 62 200 292 -19 b 1106 521 921 -19 1118 161 z "},"D":{"ha":1164,"x_min":0,"x_max":0,"o":"m -124 763 b 219 931 -78 849 -22 924 l 219 93 b 131 14 214 49 177 14 l 113 14 l 113 0 l 583 0 b 1081 486 879 0 1081 194 b 583 972 1081 778 879 965 b 270 976 460 974 357 977 b -139 769 35 972 -83 935 z m 310 931 l 583 931 b 977 486 821 930 977 752 b 583 41 977 219 819 41 l 310 41 z "},"Ð":{"ha":1135,"x_min":0,"x_max":0,"o":"m -153 763 b 190 930 -107 849 -51 920 l 190 507 l 83 507 l 83 465 l 190 465 l 190 93 b 102 14 185 49 148 14 l 84 14 l 84 0 l 554 0 b 1052 486 850 0 1052 194 b 554 972 1052 778 850 965 b 228 976 425 975 318 978 b -168 769 1 971 -114 932 z m 281 465 l 514 465 l 514 507 l 281 507 l 281 931 l 553 931 b 948 486 792 930 948 752 b 553 41 948 219 790 41 l 281 41 z "},"Ď":{"ha":1164,"x_min":0,"x_max":0,"o":"m 591 1061 l 577 1061 l 418 1226 l 426 1238 l 584 1146 l 730 1237 l 738 1226 z m -124 763 b 219 931 -78 849 -22 924 l 219 93 b 131 14 214 49 177 14 l 113 14 l 113 0 l 583 0 b 1081 486 879 0 1081 194 b 583 972 1081 778 879 965 b 270 976 460 974 357 977 b -139 769 35 972 -83 935 z m 310 931 l 583 931 b 977 486 821 930 977 752 b 583 41 977 219 819 41 l 310 41 z "},"Đ":{"ha":1164,"x_min":0,"x_max":0,"o":"m 414 1105 l 761 1105 l 761 1153 l 414 1153 z m -124 763 b 219 931 -78 849 -22 924 l 219 93 b 131 14 214 49 177 14 l 113 14 l 113 0 l 583 0 b 1081 486 879 0 1081 194 b 583 972 1081 778 879 965 b 270 976 460 974 357 977 b -139 769 35 972 -83 935 z m 310 931 l 583 931 b 977 486 821 930 977 752 b 583 41 977 219 819 41 l 310 41 z "},"E":{"ha":843,"x_min":0,"x_max":0,"o":"m 837 224 l 823 224 b 577 42 781 119 724 42 l 280 42 l 280 459 l 546 459 b 611 390 582 457 611 427 l 611 370 l 625 370 l 625 589 l 611 589 l 611 569 b 544 500 611 531 582 501 l 280 500 l 280 930 l 439 930 b 516 847 482 927 516 891 l 516 822 l 530 822 l 530 934 l 530 957 l 530 998 b 365 972 505 987 425 973 l 84 972 l 84 958 l 102 958 b 190 879 148 958 190 924 l 190 101 b 101 14 189 53 150 14 l 84 14 l 83 0 l 756 0 z "},"É":{"ha":843,"x_min":0,"x_max":0,"o":"m 345 1061 b 568 1180 419 1098 494 1136 b 511 1253 553 1207 533 1231 b 335 1071 453 1196 394 1134 z m 837 224 l 823 224 b 577 43 781 119 724 43 l 280 43 l 280 459 l 546 459 b 611 390 582 457 611 427 l 611 370 l 625 370 l 625 589 l 611 589 l 611 569 b 544 500 611 531 582 501 l 280 500 l 280 930 l 439 930 b 516 847 482 927 516 891 l 516 822 l 530 822 l 530 934 l 530 957 l 530 998 b 365 972 505 987 425 973 l 84 972 l 84 958 l 102 958 b 190 879 148 958 190 924 l 190 101 b 101 14 189 53 150 14 l 84 14 l 83 0 l 756 0 z "},"Ě":{"ha":843,"x_min":0,"x_max":0,"o":"m 352 1061 l 338 1061 l 179 1226 l 188 1238 l 345 1146 l 491 1237 l 499 1226 z m 837 224 l 823 224 b 577 42 781 119 724 42 l 280 42 l 280 459 l 546 459 b 611 390 582 457 611 427 l 611 370 l 625 370 l 625 589 l 611 589 l 611 569 b 544 500 611 531 582 501 l 280 500 l 280 930 l 439 930 b 516 847 482 927 516 891 l 516 822 l 530 822 l 530 934 l 530 957 l 530 998 b 365 972 505 987 425 973 l 84 972 l 84 958 l 102 958 b 190 879 148 958 190 924 l 190 101 b 101 14 189 53 150 14 l 84 14 l 83 0 l 756 0 z "},"Ê":{"ha":843,"x_min":0,"x_max":0,"o":"m 338 1236 l 352 1236 l 510 1071 l 502 1060 l 344 1151 l 199 1060 l 190 1071 z m 837 224 l 823 224 b 577 43 781 119 724 43 l 280 43 l 280 459 l 546 459 b 612 390 582 457 612 427 l 612 370 l 625 370 l 625 589 l 612 589 l 612 569 b 544 500 612 531 582 501 l 280 500 l 280 930 l 439 930 b 516 847 482 927 516 891 l 516 822 l 530 822 l 530 934 l 530 957 l 530 998 b 365 972 505 987 425 973 l 84 972 l 84 958 l 102 958 b 190 879 148 958 190 924 l 190 101 b 101 14 189 53 150 14 l 84 14 l 83 0 l 756 0 z "},"Ë":{"ha":843,"x_min":0,"x_max":0,"o":"m 214 1061 b 268 1116 244 1061 268 1086 b 214 1170 268 1146 244 1170 b 160 1116 184 1170 160 1146 b 214 1061 160 1086 184 1061 z m 476 1061 b 530 1116 506 1061 530 1086 b 476 1170 530 1146 506 1170 b 421 1116 446 1170 421 1146 b 476 1061 421 1086 446 1061 z m 837 224 l 823 224 b 577 43 781 119 724 43 l 280 43 l 280 459 l 546 459 b 611 390 582 457 611 427 l 611 370 l 625 370 l 625 589 l 611 589 l 611 569 b 544 500 611 531 582 501 l 280 500 l 280 930 l 439 930 b 516 847 482 927 516 891 l 516 822 l 530 822 l 530 934 l 530 957 l 530 998 b 365 972 505 987 425 973 l 84 972 l 84 958 l 102 958 b 190 879 148 958 190 924 l 190 101 b 101 14 189 53 150 14 l 84 14 l 83 0 l 756 0 z "},"Ė":{"ha":843,"x_min":0,"x_max":0,"o":"m 343 1062 b 403 1122 376 1062 403 1089 b 343 1182 403 1155 376 1182 b 283 1122 310 1182 283 1155 b 343 1062 283 1089 310 1062 z m 837 224 l 823 224 b 577 43 781 119 724 43 l 280 43 l 280 459 l 546 459 b 611 390 582 457 611 427 l 611 370 l 625 370 l 625 589 l 611 589 l 611 569 b 544 500 611 531 582 501 l 280 500 l 280 930 l 439 930 b 516 847 482 927 516 891 l 516 822 l 530 822 l 530 934 l 530 957 l 530 998 b 365 972 505 987 425 973 l 84 972 l 84 958 l 102 958 b 190 879 148 958 190 924 l 190 101 b 101 14 189 53 150 14 l 84 14 l 83 0 l 756 0 z "},"È":{"ha":843,"x_min":0,"x_max":0,"o":"m 355 1071 b 178 1253 296 1136 237 1196 b 121 1180 157 1232 136 1208 b 345 1061 196 1136 270 1096 z m 837 224 l 823 224 b 577 42 781 119 724 42 l 280 42 l 280 459 l 546 459 b 611 390 582 457 611 427 l 611 370 l 625 370 l 625 589 l 611 589 l 611 569 b 544 500 611 531 582 501 l 280 500 l 280 930 l 439 930 b 516 847 482 927 516 891 l 516 822 l 530 822 l 530 934 l 530 957 l 530 997 b 365 972 505 987 425 973 l 84 972 l 84 958 l 102 958 b 190 879 148 958 190 924 l 190 101 b 101 14 189 53 150 14 l 84 14 l 83 0 l 756 0 z "},"Ē":{"ha":843,"x_min":0,"x_max":0,"o":"m 175 1105 l 522 1105 l 522 1153 l 175 1153 z m 837 224 l 823 224 b 577 42 781 119 724 42 l 280 42 l 280 459 l 546 459 b 611 390 582 457 611 427 l 611 370 l 625 370 l 625 589 l 611 589 l 611 569 b 544 500 611 531 582 501 l 280 500 l 280 930 l 439 930 b 516 847 482 927 516 891 l 516 822 l 530 822 l 530 934 l 530 957 l 530 998 b 365 972 505 987 425 973 l 84 972 l 84 958 l 102 958 b 190 879 148 958 190 924 l 190 101 b 101 14 189 53 150 14 l 84 14 l 83 0 l 756 0 z "},"Ę":{"ha":843,"x_min":0,"x_max":0,"o":"m 837 224 l 823 224 b 577 42 781 119 724 42 l 280 42 l 280 459 l 546 459 b 611 390 582 457 611 427 l 611 370 l 625 370 l 625 589 l 611 589 l 611 569 b 544 500 611 531 582 501 l 280 500 l 280 930 l 439 930 b 516 847 482 927 516 891 l 516 822 l 530 822 l 530 934 l 530 957 l 530 998 b 365 972 505 987 425 973 l 84 972 l 84 958 l 102 958 b 190 879 148 958 190 924 l 190 101 b 101 14 189 53 150 14 l 84 14 l 83 0 l 703 0 b 589 -124 638 -14 588 -63 b 831 -175 591 -285 789 -289 l 822 -167 b 653 -108 754 -238 656 -188 b 756 0 651 -56 679 -18 z "},"F":{"ha":804,"x_min":0,"x_max":0,"o":"m 791 589 l 791 569 b 723 500 791 531 761 501 l 280 500 l 280 930 l 574 930 b 641 861 611 929 641 899 l 641 841 l 655 841 l 655 933 l 655 957 l 655 998 b 490 972 630 987 550 973 l 84 972 l 84 958 l 102 958 b 190 879 148 958 190 924 l 190 101 b 101 14 189 53 150 14 l 84 14 l 83 0 l 387 0 l 387 14 l 369 14 b 280 101 321 14 281 53 l 280 459 l 725 459 b 791 390 761 457 791 427 l 791 370 l 804 370 l 804 589 z "},"G":{"ha":1175,"x_min":0,"x_max":0,"o":"m 1550 -193 b 1026 175 1224 -246 1038 -119 l 1026 389 b 1095 452 1025 429 1050 452 l 1116 452 l 1116 466 l 844 466 l 844 452 l 866 452 b 937 389 911 452 937 429 l 937 142 b 624 22 859 68 745 22 b 188 486 375 23 188 221 b 624 950 188 758 375 950 b 977 702 808 950 935 861 l 988 702 l 960 898 b 624 992 879 950 777 992 b 83 486 315 992 83 782 b 624 -19 83 197 315 -18 b 947 81 768 -19 874 25 b 1551 -207 999 -171 1235 -313 z "},"Ğ":{"ha":1175,"x_min":0,"x_max":0,"o":"m 754 1205 b 624 1131 740 1168 689 1131 b 495 1205 560 1131 509 1168 l 481 1205 b 624 1061 481 1127 547 1061 b 768 1205 702 1061 768 1127 z m 1550 -193 b 1026 175 1224 -246 1038 -119 l 1026 389 b 1095 452 1025 429 1050 452 l 1116 452 l 1116 466 l 844 466 l 844 452 l 866 452 b 937 389 911 452 937 429 l 937 142 b 624 22 859 68 745 22 b 187 486 375 23 187 221 b 624 950 187 758 375 950 b 977 702 808 950 935 861 l 988 702 l 960 898 b 624 992 879 950 777 992 b 83 486 315 992 83 782 b 624 -19 83 197 315 -18 b 947 81 768 -19 874 25 b 1551 -207 999 -171 1235 -313 z "},"Ģ":{"ha":1175,"x_min":0,"x_max":0,"o":"m 1550 -193 b 1026 175 1224 -246 1038 -119 l 1026 389 b 1095 452 1025 429 1050 452 l 1116 452 l 1116 466 l 844 466 l 844 452 l 866 452 b 937 389 911 452 937 429 l 937 142 b 624 22 859 68 745 22 b 188 486 375 23 188 221 b 624 950 188 758 375 950 b 977 702 808 950 935 861 l 988 702 l 960 898 b 624 992 879 950 777 992 b 83 486 315 992 83 782 b 624 -19 83 197 315 -18 b 947 81 768 -19 874 25 b 1551 -207 999 -171 1235 -313 z m 577 -289 b 673 -124 650 -286 710 -210 b 586 -113 655 -78 601 -81 b 612 -178 574 -140 597 -160 b 574 -279 631 -200 642 -258 z "},"Ġ":{"ha":1175,"x_min":0,"x_max":0,"o":"m 622 1062 b 682 1122 655 1062 682 1089 b 622 1182 682 1155 655 1182 b 562 1122 589 1182 562 1155 b 622 1062 562 1089 589 1062 z m 1550 -193 b 1026 175 1224 -246 1038 -119 l 1026 389 b 1095 452 1025 429 1050 452 l 1116 452 l 1116 466 l 844 466 l 844 452 l 866 452 b 937 389 911 452 937 429 l 937 142 b 624 22 859 68 745 22 b 188 486 375 23 188 221 b 624 950 188 758 375 950 b 977 702 808 950 935 861 l 988 702 l 960 898 b 624 992 879 950 777 992 b 83 486 315 992 83 782 b 624 -19 83 197 315 -18 b 947 81 768 -19 874 25 b 1551 -207 999 -171 1235 -313 z "},"H":{"ha":1129,"x_min":0,"x_max":0,"o":"m 923 847 b 1047 1142 924 1014 965 1099 l 1040 1154 b 834 847 913 1125 834 1058 l 834 501 l 296 501 l 296 872 b 385 958 298 920 337 958 l 403 958 l 403 972 l 99 972 l 100 958 l 117 958 b 206 872 166 958 205 920 l 206 97 b 83 -197 206 -69 165 -154 l 90 -210 b 296 97 217 -181 296 -114 l 296 460 l 833 460 l 833 98 b 744 14 830 51 791 14 l 726 14 l 726 0 l 1030 0 l 1030 14 l 1012 14 b 923 101 963 14 924 53 z "},"Ħ":{"ha":1133,"x_min":0,"x_max":0,"o":"m 923 692 l 1012 692 l 1012 733 l 924 733 l 924 847 b 1047 1142 924 1014 965 1099 l 1040 1154 b 834 847 913 1125 834 1058 l 834 733 l 296 733 l 296 872 b 385 958 298 920 337 958 l 403 958 l 403 972 l 99 972 l 100 958 l 117 958 b 206 872 165 958 205 920 l 206 733 l 83 733 l 83 692 l 206 692 l 206 97 b 83 -197 206 -69 165 -154 l 90 -210 b 296 97 217 -181 296 -114 l 296 460 l 833 460 l 833 98 b 744 14 830 51 791 14 l 726 14 l 726 0 l 1030 0 l 1030 14 l 1012 14 b 923 101 963 14 924 53 z m 296 501 l 296 692 l 834 692 l 834 501 z "},"I":{"ha":546,"x_min":0,"x_max":0,"o":"m 357 861 b 466 986 358 930 383 973 l 464 1000 b 110 967 332 975 189 975 b -69 835 -18 953 -67 900 b 79 724 -72 760 -7 701 l 79 732 b -22 835 6 735 -26 779 b 118 926 -18 896 35 921 l 267 935 l 267 101 b 178 14 266 53 226 14 l 160 14 l 160 0 l 464 0 l 464 14 l 446 14 b 357 101 397 14 358 53 z "},"Ĳ":{"ha":1017,"x_min":0,"x_max":0,"o":"m 357 861 b 466 986 358 930 383 973 l 464 1000 b 110 967 332 975 189 975 b -69 835 -18 953 -67 900 b 79 724 -72 760 -7 701 l 79 732 b -22 835 6 735 -26 779 b 118 926 -18 896 35 921 l 267 935 l 267 101 b 178 14 266 53 226 14 l 160 14 l 160 0 l 464 0 l 464 14 l 446 14 b 357 101 397 14 358 53 z m 629 972 l 630 958 l 647 958 b 736 871 696 958 735 919 l 736 115 b 435 -187 736 -197 538 -222 l 429 -203 b 827 111 555 -261 827 -222 l 827 871 b 916 958 828 920 867 958 l 933 958 l 933 972 z "},"Í":{"ha":546,"x_min":0,"x_max":0,"o":"m 312 1061 b 535 1180 386 1098 460 1136 b 478 1253 520 1207 500 1231 b 302 1071 419 1196 361 1134 z m 357 861 b 466 986 358 930 383 973 l 464 1000 b 110 967 332 975 189 975 b -69 835 -18 953 -67 900 b 79 724 -72 760 -7 701 l 79 732 b -22 835 6 735 -26 779 b 118 926 -18 896 35 921 l 267 935 l 267 101 b 178 14 266 53 226 14 l 160 14 l 160 0 l 464 0 l 464 14 l 446 14 b 357 101 397 14 358 53 z "},"Î":{"ha":546,"x_min":0,"x_max":0,"o":"m 304 1236 l 318 1236 l 477 1071 l 469 1060 l 311 1151 l 165 1060 l 157 1071 z m 357 861 b 466 986 358 930 383 973 l 464 1000 b 110 967 332 975 189 975 b -69 835 -18 953 -67 900 b 79 724 -72 760 -7 701 l 79 732 b -22 835 6 735 -26 779 b 118 926 -18 896 35 921 l 267 935 l 267 101 b 178 14 266 53 226 14 l 160 14 l 160 0 l 464 0 l 464 14 l 446 14 b 357 101 397 14 358 53 z "},"Ï":{"ha":546,"x_min":0,"x_max":0,"o":"m 181 1061 b 235 1116 211 1061 235 1086 b 181 1170 235 1146 211 1170 b 127 1116 151 1170 127 1146 b 181 1061 127 1086 151 1061 z m 442 1061 b 497 1116 472 1061 497 1086 b 442 1170 497 1146 472 1170 b 388 1116 412 1170 388 1146 b 442 1061 388 1086 412 1061 z m 357 861 b 466 986 358 930 383 973 l 464 1000 b 110 967 332 975 189 975 b -69 835 -18 953 -67 900 b 79 724 -72 760 -7 701 l 79 732 b -22 835 6 735 -26 779 b 118 926 -18 896 35 921 l 267 935 l 267 101 b 178 14 266 53 226 14 l 160 14 l 160 0 l 464 0 l 464 14 l 446 14 b 357 101 397 14 358 53 z "},"İ":{"ha":546,"x_min":0,"x_max":0,"o":"m 310 1062 b 370 1122 343 1062 370 1089 b 310 1182 370 1155 343 1182 b 250 1122 277 1182 250 1155 b 310 1062 250 1089 277 1062 z m 357 861 b 466 986 358 930 383 973 l 464 1000 b 110 967 332 975 189 975 b -69 835 -18 953 -67 900 b 79 724 -72 760 -7 701 l 79 732 b -22 835 6 735 -26 779 b 118 926 -18 896 35 921 l 267 935 l 267 101 b 178 14 266 53 226 14 l 160 14 l 160 0 l 464 0 l 464 14 l 446 14 b 357 101 397 14 358 53 z "},"Ì":{"ha":546,"x_min":0,"x_max":0,"o":"m 321 1071 b 145 1253 263 1136 204 1196 b 88 1180 123 1232 103 1208 b 312 1061 163 1136 237 1096 z m 357 861 b 466 986 358 930 383 973 l 464 1000 b 110 967 332 975 189 975 b -69 835 -18 953 -67 900 b 79 724 -72 760 -7 701 l 79 732 b -22 835 6 735 -26 779 b 118 926 -18 896 35 921 l 267 935 l 267 101 b 178 14 266 53 226 14 l 160 14 l 160 0 l 464 0 l 464 14 l 446 14 b 357 101 397 14 358 53 z "},"Ī":{"ha":546,"x_min":0,"x_max":0,"o":"m 142 1105 l 489 1105 l 489 1153 l 142 1153 z m 357 861 b 466 986 358 930 383 973 l 464 1000 b 110 967 332 975 189 975 b -69 835 -18 953 -67 900 b 79 724 -72 760 -7 701 l 79 732 b -22 835 6 735 -26 779 b 118 926 -18 896 35 921 l 267 935 l 267 101 b 178 14 266 53 226 14 l 160 14 l 160 0 l 464 0 l 464 14 l 446 14 b 357 101 397 14 358 53 z "},"Į":{"ha":546,"x_min":0,"x_max":0,"o":"m 464 0 l 463 14 l 446 14 b 357 101 397 14 358 53 l 357 861 b 466 986 358 930 383 973 l 464 1000 b 110 967 332 975 189 975 b -69 835 -18 953 -67 900 b 79 724 -72 760 -7 701 l 79 732 b -22 835 6 735 -26 779 b 118 926 -18 896 35 921 l 267 935 l 267 101 b 178 14 266 53 226 14 l 160 14 l 160 0 l 284 0 b 170 -124 219 -14 170 -62 b 412 -175 172 -285 370 -289 l 404 -167 b 234 -108 335 -237 237 -187 b 338 0 232 -56 261 -18 z "},"J":{"ha":471,"x_min":0,"x_max":0,"o":"m 83 972 l 84 958 l 101 958 b 190 871 150 958 189 919 l 190 115 b -111 -188 190 -197 -8 -222 l -117 -203 b 281 111 9 -261 281 -222 l 281 871 b 370 958 282 920 321 958 l 387 958 l 388 972 z "},"K":{"ha":929,"x_min":0,"x_max":0,"o":"m 280 872 b 369 958 282 920 321 958 l 387 958 l 387 972 l 83 972 l 84 958 l 101 958 b 190 872 150 958 189 920 l 190 101 b 101 14 189 53 150 14 l 84 14 l 83 0 l 387 0 l 387 14 l 369 14 b 280 101 321 14 281 53 z m 419 521 l 743 895 b 893 960 779 935 834 960 l 899 960 l 899 972 l 606 972 l 606 960 l 619 960 b 653 894 657 960 676 925 l 325 484 l 785 -7 b 1332 -222 1032 -269 1240 -243 l 1332 -208 b 892 16 1161 -208 1003 -103 z "},"Ķ":{"ha":929,"x_min":0,"x_max":0,"o":"m 280 872 b 369 958 282 920 321 958 l 387 958 l 387 972 l 83 972 l 84 958 l 101 958 b 190 872 150 958 189 920 l 190 101 b 101 14 189 53 150 14 l 84 14 l 83 0 l 387 0 l 387 14 l 369 14 b 280 101 321 14 281 53 z m 419 521 l 743 895 b 893 960 779 935 834 960 l 899 960 l 899 972 l 606 972 l 606 960 l 619 960 b 653 894 657 960 676 925 l 325 484 l 785 -7 b 1332 -222 1032 -269 1240 -243 l 1332 -208 b 892 16 1161 -208 1003 -103 z m 496 -289 b 593 -124 569 -286 629 -210 b 506 -112 574 -78 520 -81 b 531 -178 493 -140 517 -160 b 494 -279 550 -200 561 -258 z "},"L":{"ha":557,"x_min":0,"x_max":0,"o":"m 1279 -154 b 347 -26 1050 -242 914 -224 b 280 69 282 -4 281 31 l 280 871 b 369 958 281 919 321 958 l 387 958 l 387 972 l 83 972 l 84 958 l 101 958 b 190 871 150 958 189 919 l 190 101 b 101 14 189 51 149 14 l 84 14 l 83 0 b 328 -68 163 -1 244 -31 b 1286 -165 606 -192 914 -422 z "},"Ĺ":{"ha":557,"x_min":0,"x_max":0,"o":"m 235 1061 b 459 1180 310 1098 384 1136 b 402 1253 444 1207 424 1231 b 226 1071 343 1196 284 1134 z m 1279 -154 b 347 -26 1050 -242 914 -224 b 280 69 282 -4 281 31 l 280 871 b 369 958 281 919 321 958 l 387 958 l 387 972 l 83 972 l 84 958 l 101 958 b 190 871 150 958 189 919 l 190 101 b 101 14 189 51 149 14 l 84 14 l 83 0 b 328 -68 163 -1 244 -31 b 1286 -165 606 -192 914 -422 z "},"Ľ":{"ha":557,"x_min":0,"x_max":0,"o":"m 505 780 b 601 946 578 782 638 859 b 514 956 583 991 529 988 b 540 891 502 928 525 908 b 502 789 559 868 570 811 z m 1279 -154 b 347 -26 1050 -242 914 -224 b 280 69 282 -4 281 31 l 280 871 b 369 958 281 919 321 958 l 387 958 l 387 972 l 83 972 l 84 958 l 101 958 b 190 871 150 958 189 919 l 190 101 b 101 14 189 51 149 14 l 84 14 l 83 0 b 328 -68 163 -1 244 -31 b 1286 -165 606 -192 914 -422 z "},"Ļ":{"ha":557,"x_min":0,"x_max":0,"o":"m 1279 -154 b 347 -26 1050 -242 914 -224 b 280 69 282 -4 281 31 l 280 871 b 369 958 281 919 321 958 l 387 958 l 387 972 l 83 972 l 84 958 l 101 958 b 190 871 150 958 189 919 l 190 101 b 101 14 189 51 149 14 l 84 14 l 83 0 b 328 -68 163 -1 244 -31 b 1286 -165 606 -192 914 -422 z m 283 -353 b 379 -187 355 -350 415 -274 b 292 -176 360 -142 306 -144 b 317 -242 279 -204 303 -224 b 280 -343 336 -264 347 -322 z "},"Ŀ":{"ha":661,"x_min":0,"x_max":0,"o":"m 1279 -154 b 347 -26 1050 -242 914 -224 b 280 69 282 -4 281 31 l 280 871 b 369 958 281 919 321 958 l 387 958 l 387 972 l 83 972 l 84 958 l 101 958 b 190 871 150 958 189 919 l 190 101 b 101 14 189 51 149 14 l 84 14 l 83 0 b 328 -68 163 -1 244 -31 b 1286 -165 606 -192 914 -422 z m 464 560 b 527 622 499 560 527 588 b 464 685 527 657 499 685 b 402 622 430 685 402 657 b 464 560 402 588 430 560 z "},"Ł":{"ha":615,"x_min":0,"x_max":0,"o":"m 1279 -154 b 347 -26 1050 -242 914 -224 b 280 69 282 -4 281 31 l 280 446 l 533 592 l 512 628 l 280 494 l 280 871 b 369 958 281 919 321 958 l 387 958 l 387 972 l 83 972 l 84 958 l 101 958 b 190 871 150 958 189 919 l 190 442 l 83 380 l 104 344 l 190 394 l 190 101 b 101 14 189 51 149 14 l 84 14 l 83 0 b 328 -68 163 -1 244 -31 b 1286 -165 606 -192 914 -422 z "},"M":{"ha":1293,"x_min":0,"x_max":0,"o":"m 1041 991 l 1029 991 l 655 154 l 320 879 b -93 1108 276 974 144 1162 l -93 1094 b 232 855 75 1116 174 971 l 144 98 b 43 14 136 45 92 14 l 21 14 l 21 0 l 290 0 l 290 13 l 269 13 b 215 72 243 12 212 39 l 277 762 l 636 -19 l 649 -19 b 697 122 658 38 697 122 l 986 775 l 1071 156 b 1544 -239 1103 -81 1260 -281 l 1544 -225 b 1170 169 1351 -233 1211 -90 z "},"N":{"ha":1168,"x_min":0,"x_max":0,"o":"m 1458 -197 b 994 91 1234 -240 1094 -19 l 994 875 b 1080 958 996 921 1034 958 l 1106 958 l 1106 972 l 820 972 l 820 958 l 846 958 b 931 874 892 958 930 921 l 931 161 l 232 938 b -261 1131 107 1077 -39 1224 l -256 1117 b 174 862 -47 1177 93 961 l 174 98 b 88 14 173 51 135 14 l 63 14 l 62 0 l 349 0 l 348 14 l 323 14 b 237 97 276 14 238 51 l 237 792 l 970 -19 b 1464 -211 1095 -157 1240 -282 z "},"Ń":{"ha":1168,"x_min":0,"x_max":0,"o":"m 591 1061 b 815 1180 666 1098 740 1136 b 758 1253 800 1207 780 1231 b 582 1071 699 1196 640 1134 z m 1458 -197 b 994 91 1234 -240 1094 -19 l 994 875 b 1080 958 996 921 1034 958 l 1106 958 l 1106 972 l 820 972 l 820 958 l 846 958 b 931 874 892 958 930 921 l 931 161 l 232 938 b -261 1131 107 1077 -39 1224 l -256 1117 b 174 862 -47 1177 93 961 l 174 98 b 88 14 173 51 135 14 l 63 14 l 62 0 l 349 0 l 348 14 l 323 14 b 237 97 276 14 238 51 l 237 792 l 970 -19 b 1464 -211 1094 -157 1240 -282 z "},"Ň":{"ha":1168,"x_min":0,"x_max":0,"o":"m 598 1061 l 585 1061 l 426 1226 l 434 1238 l 592 1146 l 737 1237 l 746 1226 z m 1458 -197 b 994 91 1234 -240 1094 -19 l 994 875 b 1080 958 996 921 1034 958 l 1106 958 l 1106 972 l 820 972 l 820 958 l 846 958 b 931 874 892 958 930 921 l 931 161 l 232 938 b -261 1131 107 1077 -39 1224 l -256 1117 b 174 862 -47 1177 93 961 l 174 98 b 88 14 173 51 135 14 l 63 14 l 62 0 l 349 0 l 348 14 l 323 14 b 237 97 276 14 238 51 l 237 792 l 970 -19 b 1464 -211 1094 -157 1240 -282 z "},"Ņ":{"ha":1168,"x_min":0,"x_max":0,"o":"m 1458 -197 b 994 91 1234 -240 1094 -19 l 994 875 b 1080 958 996 921 1034 958 l 1106 958 l 1106 972 l 820 972 l 820 958 l 846 958 b 931 874 892 958 930 921 l 931 161 l 232 938 b -261 1131 107 1077 -39 1224 l -256 1117 b 174 862 -47 1177 93 961 l 174 98 b 88 14 173 51 135 14 l 63 14 l 62 0 l 349 0 l 348 14 l 323 14 b 237 97 276 14 238 51 l 237 792 l 970 -19 b 1464 -211 1094 -157 1240 -282 z m 544 -289 b 641 -124 617 -286 677 -210 b 554 -113 622 -78 568 -81 b 579 -178 541 -140 565 -160 b 542 -279 598 -200 609 -258 z "},"Ŋ":{"ha":1138,"x_min":0,"x_max":0,"o":"m 820 972 l 820 954 l 842 954 b 916 882 882 954 915 922 l 916 187 l 274 872 b -219 1064 148 1010 3 1157 l -214 1050 b 157 869 -50 1098 73 972 l 157 86 b 85 18 156 48 124 18 l 63 18 l 62 0 l 318 0 l 318 18 l 296 18 b 222 90 255 18 222 50 l 222 789 l 916 46 l 916 -42 b 794 -268 916 -176 853 -242 l 802 -279 b 979 -44 894 -260 979 -194 l 979 882 b 1053 954 980 922 1013 954 l 1075 954 l 1075 972 z "},"Ñ":{"ha":1168,"x_min":0,"x_max":0,"o":"m 780 1170 b 689 1061 772 1103 738 1061 b 522 1122 629 1061 567 1122 b 447 1065 486 1122 462 1104 l 433 1065 b 522 1183 443 1138 477 1183 b 689 1124 585 1183 641 1124 b 766 1170 728 1124 753 1138 z m 1458 -197 b 994 91 1234 -240 1094 -19 l 994 875 b 1080 958 996 921 1034 958 l 1106 958 l 1106 972 l 820 972 l 820 958 l 846 958 b 931 874 892 958 930 921 l 931 161 l 232 938 b -261 1131 107 1077 -39 1224 l -256 1117 b 174 862 -47 1177 93 961 l 174 98 b 88 14 173 51 135 14 l 63 14 l 62 0 l 349 0 l 348 14 l 323 14 b 237 97 276 14 238 51 l 237 792 l 970 -19 b 1464 -211 1094 -157 1240 -282 z "},"O":{"ha":1290,"x_min":0,"x_max":0,"o":"m 398 651 b 715 950 378 778 485 950 b 1100 504 972 950 1100 738 b 644 22 1100 214 911 22 b 190 521 389 22 190 199 b 360 932 190 665 229 846 l 351 944 b 83 500 179 857 83 697 b 647 -19 83 189 328 -19 b 1207 501 969 -19 1207 192 b 726 992 1207 775 1015 992 b 384 649 436 992 360 775 z "},"Ó":{"ha":1290,"x_min":0,"x_max":0,"o":"m 651 1061 b 875 1180 726 1098 800 1136 b 818 1253 860 1207 840 1231 b 642 1071 759 1196 700 1134 z m 398 651 b 715 950 378 778 485 950 b 1100 504 972 950 1100 738 b 644 22 1100 214 911 22 b 190 521 389 22 190 199 b 360 932 190 665 229 846 l 351 944 b 83 500 179 857 83 697 b 647 -19 83 189 328 -19 b 1207 501 969 -19 1207 192 b 726 992 1207 775 1015 992 b 384 649 436 992 360 775 z "},"Ô":{"ha":1290,"x_min":0,"x_max":0,"o":"m 644 1236 l 658 1236 l 817 1071 l 808 1060 l 650 1151 l 505 1060 l 497 1071 z m 398 651 b 715 950 378 778 485 950 b 1100 504 972 950 1100 738 b 644 22 1100 214 911 22 b 190 521 389 22 190 199 b 360 932 190 665 229 846 l 351 944 b 83 500 179 857 83 697 b 647 -19 83 189 328 -19 b 1207 501 969 -19 1207 192 b 726 992 1207 775 1015 992 b 384 649 436 992 360 775 z "},"Ö":{"ha":1290,"x_min":0,"x_max":0,"o":"m 521 1061 b 575 1116 551 1061 575 1086 b 521 1170 575 1146 551 1170 b 466 1116 491 1170 466 1146 b 521 1061 466 1086 491 1061 z m 782 1061 b 836 1116 812 1061 836 1086 b 782 1170 836 1146 812 1170 b 728 1116 752 1170 728 1146 b 782 1061 728 1086 752 1061 z m 398 651 b 715 950 378 778 485 950 b 1100 504 972 950 1100 738 b 644 22 1100 214 911 22 b 190 521 389 22 190 199 b 360 932 190 665 229 846 l 351 944 b 83 500 179 857 83 697 b 647 -19 83 189 328 -19 b 1207 501 969 -19 1207 192 b 726 992 1207 775 1015 992 b 384 649 436 992 360 775 z "},"Ò":{"ha":1290,"x_min":0,"x_max":0,"o":"m 661 1071 b 485 1253 602 1136 544 1196 b 428 1180 463 1232 443 1208 b 651 1061 502 1136 577 1096 z m 398 651 b 715 950 378 778 485 950 b 1100 504 972 950 1100 737 b 644 22 1100 214 911 22 b 190 521 389 22 190 199 b 360 932 190 665 229 846 l 351 944 b 83 500 179 857 83 697 b 647 -19 83 189 328 -19 b 1207 501 969 -19 1207 192 b 726 992 1207 775 1015 992 b 384 649 436 992 360 775 z "},"Ő":{"ha":1290,"x_min":0,"x_max":0,"o":"m 572 1067 b 734 1234 630 1123 684 1179 b 650 1252 708 1246 678 1250 b 557 1070 616 1191 585 1131 z m 742 1067 b 904 1234 802 1122 854 1179 b 820 1252 879 1244 848 1252 b 727 1070 782 1191 752 1131 z m 398 651 b 715 950 378 778 485 950 b 1100 504 972 950 1100 738 b 645 22 1100 214 911 22 b 190 521 389 22 190 199 b 360 932 190 665 229 846 l 351 944 b 83 500 179 857 83 697 b 647 -19 83 189 328 -19 b 1207 501 970 -19 1207 192 b 726 992 1207 775 1015 992 b 385 649 436 992 360 775 z "},"Ō":{"ha":1290,"x_min":0,"x_max":0,"o":"m 482 1105 l 829 1105 l 829 1153 l 482 1153 z m 398 651 b 715 950 378 778 485 950 b 1100 504 972 950 1100 738 b 644 22 1100 214 911 22 b 190 521 389 22 190 199 b 360 932 190 665 229 846 l 351 944 b 83 500 179 857 83 697 b 647 -19 83 189 328 -19 b 1207 501 969 -19 1207 192 b 726 992 1207 775 1015 992 b 384 649 436 992 360 775 z "},"Ø":{"ha":1290,"x_min":0,"x_max":0,"o":"m 1090 972 l 1055 1003 l 986 921 b 726 992 914 966 826 992 b 384 649 436 992 360 775 l 398 651 b 715 950 378 778 485 950 b 947 873 810 950 887 921 l 333 136 b 190 521 244 220 190 350 b 360 932 190 665 229 846 l 351 944 b 83 500 179 857 83 697 b 291 84 83 321 162 175 l 219 -1 l 254 -32 l 330 59 b 640 -19 417 8 523 -19 b 1207 501 963 -19 1207 192 b 1025 894 1207 663 1140 805 z m 981 841 b 1100 504 1060 757 1100 634 b 638 22 1100 214 904 22 b 369 106 535 22 442 51 z "},"Õ":{"ha":1290,"x_min":0,"x_max":0,"o":"m 840 1170 b 749 1061 832 1103 797 1061 b 582 1122 689 1061 626 1122 b 506 1065 546 1122 522 1104 l 493 1065 b 582 1183 503 1138 537 1183 b 749 1124 645 1183 701 1124 b 826 1170 788 1124 813 1138 z m 398 651 b 715 950 378 778 485 950 b 1100 504 972 950 1100 738 b 644 22 1100 214 911 22 b 190 521 389 22 190 199 b 360 932 190 665 229 846 l 351 944 b 83 500 179 857 83 697 b 647 -19 83 189 328 -19 b 1207 501 969 -19 1207 192 b 726 992 1207 775 1015 992 b 384 649 436 992 360 775 z "},"Œ":{"ha":1385,"x_min":0,"x_max":0,"o":"m 1378 224 l 1364 224 b 1118 42 1322 119 1265 42 l 830 42 l 830 459 l 1094 459 b 1159 390 1130 457 1159 427 l 1159 370 l 1173 370 l 1173 589 l 1159 589 l 1159 569 b 1092 500 1159 531 1129 501 l 830 500 l 830 930 l 982 930 b 1060 847 1026 927 1060 891 l 1060 822 l 1077 822 l 1077 998 b 911 972 1051 987 971 973 l 825 972 b 731 980 783 972 759 976 b 576 992 684 986 616 992 b 83 486 280 992 83 789 b 576 -19 83 183 280 -19 b 753 -3 626 -19 723 -4 b 827 0 792 0 809 0 l 1297 0 z m 745 89 b 576 22 745 44 649 22 b 183 486 340 22 183 208 b 576 950 183 765 340 950 b 745 883 649 950 745 934 z "},"P":{"ha":861,"x_min":0,"x_max":0,"o":"m 85 926 l 101 928 b 190 853 161 934 190 899 l 190 101 b 101 14 189 50 147 14 l 84 14 l 83 0 l 387 0 l 387 14 l 369 14 b 281 101 324 14 282 50 l 281 925 b 412 947 329 933 375 943 b 694 708 576 965 688 888 b 539 450 699 578 644 469 b 354 547 469 437 376 461 l 342 543 b 549 399 356 431 454 393 b 799 708 707 408 804 536 b 418 990 792 915 640 1018 b 83 940 350 982 207 953 z "},"Þ":{"ha":769,"x_min":0,"x_max":0,"o":"m 256 761 l 256 872 b 345 958 258 920 297 958 l 363 958 l 363 972 l 59 972 l 60 958 l 77 958 b 166 872 126 958 165 920 l 166 101 b 77 14 165 53 126 14 l 59 14 l 59 0 l 363 0 l 363 14 l 345 14 b 256 101 297 14 257 53 l 256 719 l 417 719 b 604 507 535 719 600 634 b 595 423 605 476 601 442 b 304 273 532 224 304 273 l 304 260 b 701 493 478 168 701 281 b 422 761 701 657 605 761 z "},"Q":{"ha":1276,"x_min":0,"x_max":0,"o":"m 2154 -117 b 1338 -185 1993 -275 1605 -258 b 752 -22 1198 -147 938 -58 b 1193 475 953 6 1190 165 b 640 999 1197 767 960 992 b 69 485 314 1006 69 786 b 415 69 69 281 190 101 b 732 260 593 44 699 135 l 720 264 b 426 114 679 136 539 89 b 176 487 282 146 176 297 b 643 957 176 763 376 964 b 1086 454 901 951 1091 736 b 618 -6 1081 132 869 -7 l 618 -19 b 1326 -269 819 -58 1153 -212 b 2159 -124 1744 -407 2090 -236 z "},"R":{"ha":906,"x_min":0,"x_max":0,"o":"m 83 973 l 84 958 l 101 958 b 190 871 150 958 189 919 l 190 101 b 101 14 189 50 147 14 l 84 14 l 83 0 l 387 0 l 387 14 l 369 14 b 280 101 318 14 281 56 l 280 929 l 453 929 b 625 717 567 928 621 835 b 617 633 626 675 621 649 b 400 489 582 506 460 494 b 326 488 365 486 333 488 l 326 475 b 410 408 350 472 376 446 b 783 -7 501 306 717 69 b 1316 -236 932 -176 1092 -296 l 1316 -222 b 857 50 1140 -244 1000 -101 b 493 446 700 215 612 319 b 729 721 628 446 729 572 b 458 973 729 872 622 973 z "},"Ŕ":{"ha":906,"x_min":0,"x_max":0,"o":"m 449 1061 b 673 1180 524 1098 598 1136 b 616 1253 658 1207 638 1231 b 440 1071 557 1196 498 1134 z m 83 973 l 84 958 l 101 958 b 190 871 150 958 189 919 l 190 101 b 101 14 189 50 147 14 l 84 14 l 83 0 l 387 0 l 387 14 l 369 14 b 280 101 318 14 281 56 l 280 929 l 453 929 b 625 717 567 928 621 835 b 617 633 626 675 621 649 b 400 489 582 506 460 494 b 326 488 365 486 333 488 l 326 475 b 410 408 350 472 376 446 b 783 -7 501 306 717 69 b 1316 -236 932 -176 1092 -296 l 1316 -222 b 857 50 1140 -244 1000 -101 b 493 446 700 215 612 319 b 729 721 628 446 729 572 b 458 973 729 872 622 973 z "},"Ř":{"ha":906,"x_min":0,"x_max":0,"o":"m 456 1061 l 442 1061 l 284 1226 l 292 1238 l 450 1146 l 595 1237 l 604 1226 z m 83 973 l 84 958 l 101 958 b 190 871 150 958 189 919 l 190 101 b 101 14 189 50 147 14 l 84 14 l 83 0 l 387 0 l 387 14 l 369 14 b 280 101 318 14 281 56 l 280 929 l 453 929 b 625 717 567 928 621 835 b 617 633 626 675 621 649 b 400 489 582 506 460 494 b 326 488 365 486 333 488 l 326 475 b 410 408 350 472 376 446 b 783 -7 501 306 717 69 b 1316 -236 932 -176 1092 -296 l 1316 -222 b 857 50 1140 -244 1000 -101 b 493 446 700 215 612 319 b 729 721 628 446 729 572 b 458 973 729 872 622 973 z "},"Ŗ":{"ha":906,"x_min":0,"x_max":0,"o":"m 83 973 l 84 958 l 101 958 b 190 871 150 958 189 919 l 190 101 b 101 14 189 50 147 14 l 84 14 l 83 0 l 387 0 l 387 14 l 369 14 b 280 101 318 14 281 56 l 280 929 l 453 929 b 625 717 567 928 621 835 b 617 633 626 675 621 649 b 400 489 582 506 460 494 b 326 488 365 486 333 488 l 326 475 b 410 408 350 472 376 446 b 783 -7 501 306 717 69 b 1316 -236 932 -176 1092 -296 l 1316 -222 b 857 50 1140 -244 1000 -101 b 493 446 700 215 612 319 b 729 721 628 446 729 572 b 458 973 729 872 622 973 z m 477 -269 b 574 -104 550 -267 610 -190 b 487 -93 555 -58 501 -61 b 512 -158 474 -121 498 -140 b 475 -260 531 -181 542 -239 z "},"S":{"ha":763,"x_min":0,"x_max":0,"o":"m 302 662 b 242 788 257 699 242 744 b 410 950 242 879 310 950 b 571 807 494 950 569 900 l 584 807 l 581 978 l 527 978 b 406 992 487 986 440 992 b 164 760 249 992 164 874 b 245 585 164 710 181 636 l 496 388 b 354 -81 715 214 614 -81 b 165 369 114 -81 12 169 l 153 379 b 378 -131 -38 175 72 -131 b 560 460 717 -131 837 240 z "},"Ś":{"ha":763,"x_min":0,"x_max":0,"o":"m 392 1061 b 616 1180 467 1098 541 1136 b 559 1253 601 1207 580 1231 b 382 1071 500 1196 441 1134 z m 302 662 b 242 788 257 699 242 744 b 410 950 242 879 310 950 b 571 807 494 950 569 900 l 584 807 l 581 978 l 527 978 b 406 992 487 986 440 992 b 164 760 249 992 164 874 b 245 585 164 710 181 636 l 496 388 b 354 -81 715 214 614 -81 b 165 369 114 -81 12 169 l 153 379 b 378 -131 -38 175 72 -131 b 560 460 717 -131 837 240 z "},"Š":{"ha":763,"x_min":0,"x_max":0,"o":"m 399 1061 l 385 1061 l 227 1226 l 235 1238 l 393 1146 l 538 1237 l 547 1226 z m 302 662 b 242 787 257 699 242 744 b 410 950 242 879 310 950 b 571 807 494 950 569 900 l 584 807 l 581 977 l 527 977 b 406 992 487 986 440 992 b 164 760 249 992 164 874 b 245 585 164 710 181 636 l 496 388 b 354 -81 715 214 614 -81 b 165 369 114 -81 12 169 l 153 379 b 378 -131 -38 175 72 -131 b 560 460 717 -131 837 240 z "},"Ş":{"ha":763,"x_min":0,"x_max":0,"o":"m 302 662 b 242 788 257 699 242 744 b 410 950 242 879 310 950 b 571 807 494 950 569 900 l 584 807 l 581 978 l 527 978 b 406 992 487 986 440 992 b 164 760 249 992 164 874 b 245 585 164 710 181 636 l 496 388 b 354 -81 715 214 614 -81 b 165 369 114 -81 12 169 l 153 379 b 367 -131 -35 178 69 -122 l 302 -215 l 309 -229 b 425 -275 358 -208 423 -217 b 300 -364 427 -342 357 -364 l 299 -378 b 494 -276 392 -407 497 -364 b 349 -196 491 -181 397 -179 l 406 -129 b 560 460 723 -110 830 246 z "},"Ș":{"ha":763,"x_min":0,"x_max":0,"o":"m 302 662 b 242 788 257 699 242 744 b 410 950 242 879 310 950 b 571 807 494 950 569 900 l 584 807 l 581 978 l 527 978 b 406 992 487 986 440 992 b 164 760 249 992 164 874 b 245 585 164 710 181 636 l 496 388 b 354 -81 715 214 614 -81 b 165 369 114 -81 12 169 l 153 379 b 378 -131 -38 175 72 -131 b 560 460 717 -131 837 240 z m 344 -394 b 437 -228 416 -390 475 -312 b 350 -218 417 -182 363 -186 b 376 -283 338 -246 362 -265 b 341 -385 396 -304 408 -362 z "},"T":{"ha":858,"x_min":0,"x_max":0,"o":"m 94 974 b -82 696 -90 974 -186 823 l -71 703 b 94 932 -133 821 -54 932 l 384 932 l 384 99 b 295 14 382 52 343 14 l 278 14 l 278 0 l 582 0 l 581 14 l 564 14 b 475 100 516 14 476 52 l 475 932 l 738 932 b 817 849 782 930 817 894 l 817 824 l 831 824 l 831 999 b 664 974 805 988 724 974 z "},"Ŧ":{"ha":858,"x_min":0,"x_max":0,"o":"m 94 974 b -82 696 -90 974 -186 823 l -71 703 b 94 932 -133 821 -54 932 l 384 932 l 384 536 l 161 536 l 161 495 l 384 495 l 384 99 b 295 14 382 52 343 14 l 278 14 l 278 0 l 582 0 l 581 14 l 564 14 b 475 100 516 14 476 52 l 475 495 l 700 495 l 700 536 l 475 536 l 475 932 l 738 932 b 817 849 782 930 817 894 l 817 824 l 831 824 l 831 999 b 664 974 805 988 724 974 z "},"Ť":{"ha":858,"x_min":0,"x_max":0,"o":"m 436 972 l 422 972 l 264 1138 l 272 1149 l 430 1057 l 575 1148 l 583 1137 z m 94 974 b -82 696 -90 974 -186 823 l -71 703 b 94 932 -133 821 -54 932 l 384 932 l 384 99 b 295 14 382 52 343 14 l 278 14 l 278 0 l 582 0 l 581 14 l 564 14 b 475 100 516 14 476 52 l 475 932 l 738 932 b 817 849 782 930 817 894 l 817 824 l 831 824 l 831 999 b 664 974 805 988 724 974 z "},"Ţ":{"ha":858,"x_min":0,"x_max":0,"o":"m 94 974 b -82 696 -90 974 -186 823 l -71 703 b 94 932 -133 821 -54 932 l 384 932 l 384 99 b 295 14 382 52 343 14 l 278 14 l 278 0 l 415 0 l 349 -86 l 356 -100 b 472 -146 405 -79 470 -88 b 347 -235 475 -213 404 -235 l 346 -249 b 542 -147 439 -278 544 -235 b 396 -67 539 -51 445 -50 l 453 0 l 582 0 l 581 14 l 564 14 b 475 100 516 14 476 52 l 475 932 l 738 932 b 817 849 782 930 817 894 l 817 824 l 831 824 l 831 999 b 664 974 805 988 724 974 z "},"Ț":{"ha":858,"x_min":0,"x_max":0,"o":"m 94 974 b -82 696 -90 974 -186 823 l -71 703 b 94 932 -133 821 -54 932 l 384 932 l 384 99 b 295 14 382 52 343 14 l 278 14 l 278 0 l 582 0 l 581 14 l 564 14 b 475 100 516 14 476 52 l 475 932 l 738 932 b 817 849 782 930 817 894 l 817 824 l 831 824 l 831 999 b 664 974 805 988 724 974 z m 384 -287 b 477 -121 457 -285 515 -207 b 390 -111 458 -76 404 -79 b 417 -176 378 -139 402 -158 b 381 -278 436 -199 448 -257 z "},"U":{"ha":1088,"x_min":0,"x_max":0,"o":"m 860 344 b 551 24 860 152 736 24 b 256 362 374 24 256 159 l 256 892 b 329 958 257 931 289 958 l 352 958 l 352 972 l 69 972 l 69 958 l 92 958 b 166 890 132 958 165 930 l 166 341 b 551 -19 166 125 320 -19 b 925 344 775 -19 925 126 l 925 806 b 1256 1197 925 1065 1057 1197 l 1256 1211 b 860 804 1018 1220 860 1083 z "},"Ú":{"ha":1088,"x_min":0,"x_max":0,"o":"m 586 1061 b 809 1180 660 1098 734 1136 b 752 1253 794 1207 774 1231 b 576 1071 693 1196 635 1134 z m 860 344 b 551 24 860 152 736 24 b 256 362 374 24 256 159 l 256 892 b 329 958 257 931 289 958 l 352 958 l 352 972 l 69 972 l 69 958 l 92 958 b 165 890 132 958 165 930 l 165 341 b 551 -19 165 125 320 -19 b 925 344 775 -19 925 126 l 925 806 b 1256 1197 925 1065 1057 1197 l 1256 1211 b 860 804 1018 1220 860 1083 z "},"Û":{"ha":1088,"x_min":0,"x_max":0,"o":"m 578 1236 l 592 1236 l 751 1071 l 743 1060 l 585 1151 l 439 1060 l 431 1071 z m 860 344 b 551 24 860 152 736 24 b 256 362 374 24 256 159 l 256 892 b 329 958 257 931 289 958 l 352 958 l 352 972 l 69 972 l 69 958 l 92 958 b 166 890 132 958 165 930 l 166 341 b 551 -19 166 125 320 -19 b 925 344 775 -19 925 126 l 925 806 b 1256 1197 925 1065 1057 1197 l 1256 1211 b 860 804 1018 1220 860 1083 z "},"Ü":{"ha":1088,"x_min":0,"x_max":0,"o":"m 860 344 b 551 24 860 152 736 24 b 256 362 374 24 256 159 l 256 892 b 329 958 257 931 289 958 l 352 958 l 352 972 l 69 972 l 69 958 l 92 958 b 166 890 132 958 165 930 l 166 341 b 551 -19 166 125 320 -19 b 925 344 775 -19 925 126 l 925 806 b 1256 1197 925 1065 1057 1197 l 1256 1211 b 860 804 1018 1220 860 1083 z m 455 1061 b 509 1116 485 1061 509 1086 b 455 1170 509 1145 485 1170 b 400 1116 425 1170 400 1145 b 455 1061 400 1086 425 1061 z m 716 1061 b 771 1116 746 1061 771 1086 b 716 1170 771 1145 746 1170 b 662 1116 686 1170 662 1145 b 716 1061 662 1086 686 1061 z "},"Ù":{"ha":1088,"x_min":0,"x_max":0,"o":"m 595 1071 b 419 1253 537 1136 478 1196 b 362 1180 397 1232 377 1208 b 586 1061 437 1136 511 1096 z m 860 344 b 551 24 860 152 736 24 b 256 362 374 24 256 159 l 256 892 b 329 958 257 931 289 958 l 352 958 l 352 972 l 69 972 l 69 958 l 92 958 b 165 890 132 958 165 930 l 165 341 b 551 -19 165 125 320 -19 b 925 344 775 -19 925 126 l 925 806 b 1256 1197 925 1065 1057 1197 l 1256 1211 b 860 804 1018 1220 860 1083 z "},"Ű":{"ha":1088,"x_min":0,"x_max":0,"o":"m 506 1067 b 669 1234 565 1123 619 1179 b 584 1252 642 1246 612 1250 b 491 1070 550 1191 519 1131 z m 676 1067 b 838 1234 736 1122 788 1179 b 754 1252 813 1244 782 1252 b 661 1070 716 1191 686 1131 z m 860 344 b 551 24 860 152 736 24 b 256 362 374 24 256 159 l 256 892 b 329 958 257 931 290 958 l 352 958 l 352 972 l 70 972 l 70 958 l 92 958 b 166 890 132 958 165 930 l 166 341 b 551 -19 166 125 320 -19 b 925 344 775 -19 925 126 l 925 806 b 1256 1197 925 1065 1057 1197 l 1256 1211 b 860 804 1018 1220 860 1083 z "},"Ū":{"ha":1088,"x_min":0,"x_max":0,"o":"m 860 344 b 551 24 860 152 736 24 b 256 362 374 24 256 159 l 256 892 b 329 958 257 931 289 958 l 352 958 l 352 972 l 69 972 l 69 958 l 92 958 b 166 890 132 958 165 930 l 166 341 b 551 -19 166 125 320 -19 b 925 344 775 -19 925 126 l 925 806 b 1256 1197 925 1065 1057 1197 l 1256 1211 b 860 804 1018 1220 860 1083 z m 416 1105 l 763 1105 l 763 1153 l 416 1153 z "},"Ų":{"ha":1088,"x_min":0,"x_max":0,"o":"m 860 344 b 551 24 860 152 736 24 b 256 362 374 24 256 159 l 256 892 b 329 958 257 931 289 958 l 352 958 l 352 972 l 69 972 l 69 958 l 92 958 b 166 890 132 958 165 930 l 166 341 b 547 -19 165 126 318 -18 b 453 -137 492 -39 452 -83 b 694 -189 454 -299 652 -303 l 686 -181 b 517 -122 618 -251 519 -201 b 614 -15 515 -71 542 -35 b 925 344 803 10 925 147 l 925 806 b 1255 1197 925 1065 1057 1197 l 1255 1211 b 860 804 1018 1220 860 1083 z "},"Ů":{"ha":1088,"x_min":0,"x_max":0,"o":"m 586 1270 b 456 1166 512 1270 456 1227 b 586 1062 456 1105 512 1062 b 716 1166 660 1062 716 1105 b 586 1270 716 1231 660 1270 z m 586 1246 b 654 1166 624 1246 654 1217 b 586 1085 654 1114 624 1085 b 518 1166 547 1085 518 1114 b 586 1246 518 1217 547 1246 z m 860 344 b 551 24 860 152 736 24 b 256 362 374 24 256 159 l 256 892 b 329 958 257 931 289 958 l 352 958 l 352 972 l 69 972 l 69 958 l 92 958 b 166 890 132 958 165 930 l 166 341 b 551 -19 166 125 320 -19 b 925 344 775 -19 925 126 l 925 806 b 1256 1197 925 1065 1057 1197 l 1256 1211 b 860 804 1018 1220 860 1083 z "},"V":{"ha":997,"x_min":0,"x_max":0,"o":"m 525 144 l 234 872 b 287 959 214 927 251 959 l 299 959 l 299 972 l -14 972 l -14 958 l -3 958 b 120 871 40 958 92 933 l 510 -19 l 523 -19 b 574 124 523 11 574 124 l 960 968 b 1345 1298 1026 1110 1114 1289 l 1345 1312 b 870 968 1060 1323 939 1133 z "},"W":{"ha":1325,"x_min":0,"x_max":0,"o":"m 985 223 l 710 993 l 697 994 l 438 197 l 228 873 b 283 958 212 928 247 958 l 295 958 l 295 972 l -14 972 l -14 958 l -3 958 b 119 874 40 958 96 934 l 400 80 b 52 -211 338 -86 207 -242 l 49 -225 b 463 77 250 -269 401 -119 l 687 776 l 971 -17 l 984 -17 b 1014 138 986 49 1014 138 l 1281 912 b 1673 1297 1332 1059 1442 1288 l 1673 1311 b 1191 912 1388 1322 1242 1083 z "},"Ẃ":{"ha":1325,"x_min":0,"x_max":0,"o":"m 985 223 l 710 993 l 697 994 l 438 197 l 228 873 b 283 958 212 928 247 958 l 295 958 l 295 972 l -14 972 l -14 958 l -3 958 b 119 874 40 958 96 934 l 400 80 b 52 -211 338 -86 207 -242 l 49 -225 b 463 77 250 -269 401 -119 l 687 776 l 971 -17 l 984 -17 b 1014 138 986 49 1014 138 l 1281 912 b 1673 1297 1332 1059 1442 1288 l 1673 1311 b 1191 912 1388 1322 1242 1083 z m 704 1061 b 927 1180 778 1098 853 1136 b 871 1253 913 1207 892 1231 b 694 1071 812 1196 753 1134 z "},"Ŵ":{"ha":1325,"x_min":0,"x_max":0,"o":"m 985 223 l 710 993 l 697 994 l 438 197 l 228 873 b 283 958 212 928 247 958 l 295 958 l 295 972 l -14 972 l -14 958 l -3 958 b 119 874 40 958 96 934 l 400 80 b 52 -211 338 -86 207 -242 l 49 -225 b 463 77 250 -269 401 -119 l 687 776 l 971 -17 l 984 -17 b 1014 138 986 49 1014 138 l 1281 912 b 1673 1297 1332 1059 1442 1288 l 1673 1311 b 1191 912 1388 1322 1242 1083 z m 697 1236 l 711 1236 l 869 1071 l 861 1060 l 703 1151 l 558 1060 l 549 1071 z "},"Ẅ":{"ha":1325,"x_min":0,"x_max":0,"o":"m 985 223 l 710 993 l 697 994 l 438 197 l 228 873 b 283 958 212 928 247 958 l 295 958 l 295 972 l -14 972 l -14 958 l -3 958 b 119 874 40 958 96 934 l 400 80 b 52 -211 338 -86 207 -242 l 49 -225 b 463 77 250 -269 401 -119 l 687 776 l 971 -17 l 984 -17 b 1014 138 986 49 1014 138 l 1281 912 b 1673 1297 1332 1059 1442 1288 l 1673 1311 b 1191 912 1388 1322 1242 1083 z m 573 1061 b 627 1116 603 1061 627 1086 b 573 1170 627 1146 603 1170 b 519 1116 543 1170 519 1146 b 573 1061 519 1086 543 1061 z m 835 1061 b 889 1116 865 1061 889 1086 b 835 1170 889 1146 865 1170 b 781 1116 805 1170 781 1146 b 835 1061 781 1086 805 1061 z "},"Ẁ":{"ha":1325,"x_min":0,"x_max":0,"o":"m 985 223 l 710 993 l 697 994 l 438 197 l 228 873 b 283 958 212 928 247 958 l 295 958 l 295 972 l -14 972 l -14 958 l -3 958 b 119 874 40 958 96 934 l 400 80 b 52 -211 338 -86 207 -242 l 49 -225 b 463 77 250 -269 401 -119 l 687 776 l 971 -17 l 984 -17 b 1014 138 986 49 1014 138 l 1281 912 b 1673 1297 1332 1059 1442 1288 l 1673 1311 b 1191 912 1388 1322 1242 1083 z m 714 1071 b 537 1253 655 1136 596 1196 b 481 1180 516 1232 495 1208 b 704 1061 555 1136 630 1096 z "},"X":{"ha":919,"x_min":0,"x_max":0,"o":"m 808 926 b 1121 1174 879 1022 971 1172 l 1121 1188 b 734 959 958 1202 850 1124 l 467 579 l 279 874 b 329 958 258 913 292 958 l 346 958 l 346 972 l 9 972 l 9 958 l 29 958 b 169 877 87 958 139 920 l 406 502 l 110 86 b -239 -193 27 -31 -81 -186 l -239 -207 b 180 43 -67 -229 57 -138 l 448 436 l 662 99 b 613 14 684 59 651 14 l 595 14 l 595 0 l 934 0 l 934 14 l 915 14 b 775 95 857 14 805 52 l 508 515 z "},"Y":{"ha":858,"x_min":0,"x_max":0,"o":"m -56 1038 b 395 307 175 1038 395 553 l 395 100 b 307 14 394 52 354 14 l 289 14 l 289 0 l 592 0 l 592 14 l 575 14 b 486 101 524 14 486 56 l 486 306 b 915 1038 486 535 695 1038 l 915 1052 b 456 522 641 1052 538 739 b -56 1052 387 710 285 1065 z "},"Ý":{"ha":858,"x_min":0,"x_max":0,"o":"m 460 1061 b 683 1180 534 1098 609 1136 b 626 1253 668 1207 648 1231 b 450 1071 568 1196 509 1134 z m -56 1038 b 395 307 175 1038 395 553 l 395 100 b 307 14 394 52 354 14 l 289 14 l 289 0 l 592 0 l 592 14 l 575 14 b 486 101 524 14 486 56 l 486 306 b 915 1038 486 535 695 1038 l 915 1052 b 456 522 641 1052 538 739 b -56 1052 387 710 285 1065 z "},"Ŷ":{"ha":858,"x_min":0,"x_max":0,"o":"m 453 1236 l 467 1236 l 625 1071 l 617 1060 l 459 1151 l 314 1060 l 305 1071 z m -56 1038 b 395 307 175 1038 395 553 l 395 100 b 307 14 394 52 354 14 l 289 14 l 289 0 l 592 0 l 592 14 l 575 14 b 486 101 524 14 486 56 l 486 306 b 915 1038 486 535 695 1038 l 915 1052 b 456 522 641 1052 538 739 b -56 1052 387 710 285 1065 z "},"Ÿ":{"ha":858,"x_min":0,"x_max":0,"o":"m 329 1061 b 383 1116 359 1061 383 1086 b 329 1170 383 1146 359 1170 b 275 1116 299 1170 275 1146 b 329 1061 275 1086 299 1061 z m 591 1061 b 645 1116 621 1061 645 1086 b 591 1170 645 1146 621 1170 b 536 1116 561 1170 536 1146 b 591 1061 536 1086 561 1061 z m -56 1038 b 395 307 175 1038 395 553 l 395 100 b 307 14 394 52 354 14 l 289 14 l 289 0 l 592 0 l 592 14 l 575 14 b 486 101 524 14 486 56 l 486 306 b 915 1038 486 535 695 1038 l 915 1052 b 456 522 641 1052 538 739 b -56 1052 387 710 285 1065 z "},"Ỳ":{"ha":858,"x_min":0,"x_max":0,"o":"m 470 1071 b 293 1253 411 1136 352 1196 b 236 1180 272 1232 251 1208 b 460 1061 311 1136 385 1096 z m -56 1038 b 395 307 175 1038 395 552 l 395 100 b 307 14 394 52 354 14 l 289 14 l 289 0 l 592 0 l 592 14 l 575 14 b 486 101 524 14 486 56 l 486 306 b 915 1038 486 535 695 1038 l 915 1052 b 456 522 641 1052 538 739 b -56 1052 387 710 285 1065 z "},"Z":{"ha":883,"x_min":0,"x_max":0,"o":"m 1377 -112 b 347 -26 1126 -219 918 -214 b 199 21 292 -8 247 8 l 805 980 l 805 992 b 658 974 789 983 714 974 l 270 974 b 103 999 213 974 129 988 l 103 958 l 103 936 l 103 824 l 117 824 l 117 849 b 198 932 117 894 153 931 l 667 932 l 84 13 l 83 0 l 101 0 b 1384 -124 316 -14 1045 -518 z "},"Ź":{"ha":883,"x_min":0,"x_max":0,"o":"m 450 1061 b 673 1180 524 1098 599 1136 b 617 1253 659 1207 638 1231 b 440 1071 558 1196 499 1134 z m 1377 -112 b 347 -26 1126 -219 918 -214 b 199 21 292 -8 247 8 l 805 980 l 805 992 b 658 974 789 983 714 974 l 270 974 b 103 999 213 974 129 988 l 103 958 l 103 936 l 103 824 l 117 824 l 117 849 b 198 932 117 894 153 931 l 667 932 l 84 13 l 83 0 l 101 0 b 1384 -124 316 -14 1045 -518 z "},"Ž":{"ha":883,"x_min":0,"x_max":0,"o":"m 457 1061 l 443 1061 l 284 1226 l 293 1238 l 451 1146 l 596 1237 l 604 1226 z m 1377 -113 b 347 -26 1126 -219 918 -214 b 199 21 292 -8 247 8 l 805 980 l 805 992 b 658 974 789 983 714 974 l 270 974 b 103 999 213 974 129 988 l 103 958 l 103 935 l 103 824 l 117 824 l 117 849 b 198 932 117 894 153 931 l 667 932 l 84 13 l 83 0 l 101 0 b 1384 -124 316 -14 1045 -518 z "},"Ż":{"ha":883,"x_min":0,"x_max":0,"o":"m 448 1062 b 508 1122 481 1062 508 1089 b 448 1182 508 1155 481 1182 b 388 1122 415 1182 388 1155 b 448 1062 388 1089 415 1062 z m 1377 -112 b 347 -26 1126 -219 918 -214 b 199 21 292 -8 247 8 l 805 980 l 805 992 b 658 974 789 983 714 974 l 270 974 b 103 999 213 974 129 988 l 103 958 l 103 936 l 103 824 l 117 824 l 117 849 b 198 932 117 894 153 931 l 667 932 l 84 13 l 83 0 l 101 0 b 1384 -124 316 -14 1045 -518 z "},"a":{"ha":989,"x_min":0,"x_max":0,"o":"m 499 992 l 487 992 b 435 849 487 961 435 849 l 120 101 b -1 14 92 39 41 14 l -14 14 l -14 0 l 266 0 l 266 14 l 253 14 b 200 100 218 14 181 45 l 293 338 l 668 338 l 756 101 b 704 14 777 45 739 14 l 691 14 l 691 0 l 1004 0 l 1004 14 l 992 14 b 870 101 950 14 899 40 z m 310 379 l 484 825 l 652 379 z "},"á":{"ha":989,"x_min":0,"x_max":0,"o":"m 494 1061 b 718 1180 569 1098 643 1136 b 661 1253 703 1207 683 1231 b 484 1071 602 1196 543 1134 z m 499 992 l 487 992 b 435 849 487 961 435 849 l 120 101 b -1 14 92 40 41 14 l -14 14 l -14 0 l 266 0 l 266 14 l 253 14 b 200 100 218 14 181 45 l 293 338 l 667 338 l 756 101 b 704 14 777 45 739 14 l 691 14 l 691 0 l 1004 0 l 1004 14 l 992 14 b 870 101 950 14 899 40 z m 310 379 l 484 825 l 652 379 z "},"ă":{"ha":989,"x_min":0,"x_max":0,"o":"m 624 1205 b 495 1131 610 1168 559 1131 b 365 1205 430 1131 379 1168 l 351 1205 b 495 1061 351 1127 417 1061 b 638 1205 572 1061 638 1127 z m 499 992 l 487 992 b 435 849 487 961 435 849 l 120 101 b -1 14 92 39 41 14 l -14 14 l -14 0 l 266 0 l 266 14 l 253 14 b 200 100 218 14 181 45 l 293 338 l 667 338 l 756 101 b 704 14 777 45 739 14 l 691 14 l 691 0 l 1004 0 l 1004 14 l 992 14 b 870 101 950 14 899 40 z m 310 379 l 484 825 l 652 379 z "},"â":{"ha":989,"x_min":0,"x_max":0,"o":"m 487 1236 l 501 1236 l 660 1071 l 651 1060 l 493 1151 l 348 1060 l 340 1071 z m 499 992 l 487 992 b 435 849 487 961 435 849 l 120 101 b -1 14 92 39 41 14 l -14 14 l -14 0 l 266 0 l 266 14 l 253 14 b 200 100 218 14 181 45 l 293 338 l 668 338 l 756 101 b 704 14 777 45 739 14 l 691 14 l 691 0 l 1004 0 l 1004 14 l 993 14 b 870 101 950 14 899 40 z m 310 379 l 484 825 l 652 379 z "},"ä":{"ha":989,"x_min":0,"x_max":0,"o":"m 363 1061 b 418 1116 393 1061 418 1086 b 363 1170 418 1145 393 1170 b 309 1116 333 1170 309 1145 b 363 1061 309 1086 333 1061 z m 625 1061 b 679 1116 655 1061 679 1086 b 625 1170 679 1145 655 1170 b 571 1116 595 1170 571 1145 b 625 1061 571 1086 595 1061 z m 499 992 l 487 992 b 435 849 487 961 435 849 l 120 101 b -1 14 92 39 41 14 l -14 14 l -14 0 l 266 0 l 266 14 l 253 14 b 200 100 218 14 181 45 l 293 337 l 668 337 l 756 101 b 704 14 777 45 739 14 l 691 14 l 691 0 l 1004 0 l 1004 14 l 993 14 b 870 101 950 14 899 40 z m 310 379 l 484 825 l 652 379 z "},"à":{"ha":989,"x_min":0,"x_max":0,"o":"m 504 1071 b 328 1253 445 1136 386 1196 b 271 1180 306 1232 286 1208 b 494 1061 345 1136 420 1096 z m 499 992 l 487 992 b 435 849 487 961 435 849 l 120 101 b -1 14 92 39 41 14 l -14 14 l -14 0 l 266 0 l 266 14 l 253 14 b 200 100 218 14 181 45 l 293 337 l 668 337 l 756 101 b 704 14 777 45 739 14 l 691 14 l 691 0 l 1004 0 l 1004 14 l 992 14 b 870 101 950 14 899 40 z m 310 379 l 484 825 l 652 379 z "},"ā":{"ha":989,"x_min":0,"x_max":0,"o":"m 325 1105 l 672 1105 l 672 1153 l 325 1153 z m 499 992 l 487 992 b 435 849 487 961 435 849 l 120 101 b -1 14 92 39 41 14 l -14 14 l -14 0 l 266 0 l 266 14 l 253 14 b 200 100 218 14 181 45 l 293 338 l 668 338 l 756 101 b 704 14 777 45 739 14 l 691 14 l 691 0 l 1004 0 l 1004 14 l 992 14 b 870 101 950 14 899 40 z m 310 379 l 484 825 l 652 379 z "},"ą":{"ha":1024,"x_min":0,"x_max":0,"o":"m 1039 13 l 1027 13 b 911 94 985 13 936 38 l 518 992 l 505 992 b 454 849 505 961 454 849 l 120 101 b -1 14 92 39 41 14 l -14 14 l -14 0 l 266 0 l 266 14 l 253 14 b 200 100 218 14 180 45 l 299 337 l 697 337 l 792 98 b 766 -11 814 41 806 11 b 698 -117 732 -31 697 -68 b 944 -165 700 -278 902 -279 l 935 -157 b 763 -99 867 -228 763 -178 b 850 0 763 -56 792 -10 b 1039 0 910 10 923 0 z m 316 379 l 503 828 l 681 379 z "},"å":{"ha":989,"x_min":0,"x_max":0,"o":"m 495 1270 b 364 1166 420 1270 364 1227 b 495 1062 364 1105 420 1062 b 625 1166 569 1062 625 1105 b 495 1270 625 1231 569 1270 z m 495 1246 b 563 1166 533 1246 563 1217 b 495 1085 563 1114 533 1085 b 427 1166 456 1085 427 1114 b 495 1246 427 1217 456 1246 z m 499 992 l 487 992 b 435 849 487 961 435 849 l 120 101 b -1 14 92 39 41 14 l -14 14 l -14 0 l 266 0 l 266 14 l 253 14 b 200 100 218 14 181 45 l 293 337 l 668 337 l 756 101 b 704 14 777 45 739 14 l 691 14 l 691 0 l 1004 0 l 1004 14 l 992 14 b 870 101 950 14 899 40 z m 310 379 l 484 825 l 652 379 z "},"ã":{"ha":989,"x_min":0,"x_max":0,"o":"m 683 1170 b 592 1061 675 1103 640 1061 b 425 1122 532 1061 469 1122 b 349 1065 389 1122 365 1104 l 335 1065 b 425 1183 346 1138 380 1183 b 592 1124 487 1183 544 1124 b 669 1170 631 1124 656 1138 z m 499 992 l 487 992 b 435 849 487 961 435 849 l 120 101 b -1 14 92 40 41 14 l -14 14 l -14 0 l 266 0 l 266 14 l 253 14 b 200 100 218 14 181 45 l 293 338 l 668 338 l 756 101 b 704 14 777 45 739 14 l 691 14 l 691 0 l 1004 0 l 1004 14 l 993 14 b 870 101 950 14 899 40 z m 310 379 l 484 825 l 652 379 z "},"æ":{"ha":1251,"x_min":0,"x_max":0,"o":"m 1177 193 b 965 42 1141 106 1075 44 l 737 42 l 737 445 l 973 445 b 1039 376 1010 443 1039 413 l 1039 356 l 1053 356 l 1053 576 l 1039 575 l 1039 555 b 972 486 1039 518 1009 487 l 737 486 l 737 930 l 1031 930 b 1098 861 1068 929 1098 899 l 1098 841 l 1112 841 l 1112 998 b 946 972 1086 987 1006 973 l 608 972 l 608 958 l 613 958 b 643 910 639 958 654 934 l 124 99 b -4 14 96 55 42 14 l -14 14 l -14 0 l 262 0 l 262 14 l 249 14 b 212 93 207 11 189 53 l 419 445 l 647 445 l 647 81 b 578 14 646 44 616 14 l 565 14 l 564 0 l 1114 0 l 1191 193 z m 444 486 l 647 830 l 647 486 z "},"b":{"ha":814,"x_min":0,"x_max":0,"o":"m 84 972 l 84 958 l 101 958 b 191 872 150 959 189 920 l 191 100 b 102 14 189 52 150 14 l 84 14 l 84 0 l 422 0 b 746 261 629 0 746 104 b 508 529 746 399 656 507 b 662 740 586 551 661 622 b 360 972 661 879 554 972 z m 281 51 l 281 928 l 355 928 b 558 730 486 928 557 856 b 328 527 557 551 413 526 l 328 514 b 642 271 463 514 642 479 b 417 51 642 131 560 50 z "},"c":{"ha":1056,"x_min":0,"x_max":0,"o":"m 975 405 b 579 22 943 121 777 23 b 188 489 346 28 188 210 b 587 950 188 765 343 950 b 932 702 754 950 890 864 l 944 702 l 916 898 b 588 992 835 951 724 992 b 83 487 282 992 83 789 b 579 -19 83 181 289 -18 b 970 187 772 -19 896 68 l 987 405 z "},"ć":{"ha":1056,"x_min":0,"x_max":0,"o":"m 589 1061 b 812 1180 663 1098 738 1136 b 756 1253 798 1207 777 1231 b 579 1071 697 1196 638 1134 z m 975 405 b 579 22 943 121 777 23 b 188 489 346 28 188 210 b 587 950 188 765 343 950 b 932 702 754 950 890 864 l 944 702 l 916 898 b 587 992 835 951 724 992 b 83 487 282 992 83 789 b 579 -19 83 181 289 -18 b 970 187 772 -19 896 68 l 987 405 z "},"č":{"ha":1056,"x_min":0,"x_max":0,"o":"m 596 1061 l 582 1061 l 423 1226 l 432 1238 l 590 1146 l 735 1237 l 743 1226 z m 975 405 b 579 22 943 121 777 23 b 187 489 346 28 187 210 b 587 950 187 765 343 950 b 932 702 754 950 890 864 l 944 702 l 916 898 b 587 992 835 951 724 992 b 83 487 282 992 83 789 b 579 -20 83 180 289 -18 b 970 187 772 -20 896 68 l 987 405 z "},"ç":{"ha":1056,"x_min":0,"x_max":0,"o":"m 975 405 b 579 22 943 121 777 23 b 188 489 346 28 188 210 b 587 950 188 765 343 950 b 932 702 754 950 890 864 l 944 702 l 916 898 b 588 992 835 951 724 992 b 83 487 282 992 83 789 b 565 -19 83 186 282 -11 l 500 -104 l 507 -118 b 624 -164 557 -97 622 -106 b 499 -253 626 -231 556 -253 l 498 -267 b 693 -165 591 -296 696 -253 b 547 -85 690 -69 596 -68 l 604 -19 b 970 187 783 -13 900 73 l 987 405 z "},"ċ":{"ha":1056,"x_min":0,"x_max":0,"o":"m 587 1062 b 647 1122 620 1062 647 1089 b 587 1182 647 1155 620 1182 b 527 1122 554 1182 527 1155 b 587 1062 527 1089 554 1062 z m 975 405 b 579 22 943 121 777 23 b 188 489 346 28 188 210 b 587 950 188 765 343 950 b 932 702 754 950 890 864 l 944 702 l 916 898 b 588 992 835 951 724 992 b 83 487 282 992 83 789 b 579 -19 83 181 289 -18 b 970 187 772 -19 896 68 l 987 405 z "},"d":{"ha":1121,"x_min":0,"x_max":0,"o":"m 84 972 l 84 958 l 102 958 b 190 879 148 958 190 924 l 190 101 b 101 14 189 53 150 14 l 84 14 l 83 0 l 554 0 b 1052 486 850 0 1052 194 b 554 972 1052 777 850 972 z m 281 930 l 554 930 b 948 486 790 930 948 752 b 554 42 948 220 792 42 l 281 42 z "},"ð":{"ha":1135,"x_min":0,"x_max":0,"o":"m 91 972 l 91 958 l 108 958 b 197 879 154 958 197 924 l 197 507 l 83 507 l 83 465 l 197 465 l 197 101 b 108 14 196 53 156 14 l 90 14 l 90 0 l 560 0 b 1052 486 857 0 1052 194 b 560 972 1052 777 857 972 z m 287 465 l 514 465 l 514 507 l 287 507 l 287 930 l 560 930 b 955 486 797 930 955 752 b 560 42 955 220 797 42 l 287 42 z "},"ď":{"ha":1121,"x_min":0,"x_max":0,"o":"m 565 1061 l 551 1061 l 392 1226 l 400 1238 l 558 1146 l 704 1237 l 712 1226 z m 84 972 l 84 958 l 102 958 b 190 879 148 958 190 924 l 190 101 b 101 14 189 53 150 14 l 84 14 l 83 0 l 554 0 b 1052 486 850 0 1052 194 b 554 972 1052 777 850 972 z m 281 930 l 554 930 b 948 486 790 930 948 752 b 554 42 948 220 792 42 l 281 42 z "},"đ":{"ha":1121,"x_min":0,"x_max":0,"o":"m 388 1105 l 735 1105 l 735 1153 l 388 1153 z m 84 972 l 84 958 l 102 958 b 190 879 148 958 190 924 l 190 101 b 101 14 189 53 150 14 l 84 14 l 83 0 l 554 0 b 1052 486 850 0 1052 194 b 554 972 1052 777 850 972 z m 281 930 l 554 930 b 948 486 790 930 948 752 b 554 42 948 220 792 42 l 281 42 z "},"e":{"ha":801,"x_min":0,"x_max":0,"o":"m 726 224 b 480 42 683 119 627 42 l 280 42 l 280 459 l 517 459 b 582 390 553 457 582 427 l 582 370 l 596 370 l 596 589 l 582 589 l 582 569 b 515 500 582 531 552 501 l 280 500 l 280 930 l 564 930 b 641 847 607 927 641 891 l 641 822 l 655 822 l 655 934 l 655 957 l 655 998 b 490 972 630 987 550 973 l 84 972 l 84 958 l 102 958 b 190 879 148 958 190 924 l 190 101 b 101 14 189 53 150 14 l 84 14 l 83 0 l 659 0 l 740 224 z "},"é":{"ha":801,"x_min":0,"x_max":0,"o":"m 412 1061 b 636 1180 487 1098 561 1136 b 579 1253 621 1207 601 1231 b 403 1071 520 1196 461 1134 z m 726 224 b 480 43 683 119 627 43 l 280 43 l 280 459 l 517 459 b 582 390 553 457 582 427 l 582 370 l 596 370 l 596 589 l 582 589 l 582 569 b 515 500 582 531 552 501 l 280 500 l 280 930 l 564 930 b 641 847 607 927 641 891 l 641 822 l 655 822 l 655 934 l 655 957 l 655 998 b 490 972 630 987 550 973 l 84 972 l 84 958 l 102 958 b 190 879 148 958 190 924 l 190 101 b 101 14 189 53 150 14 l 84 14 l 83 0 l 659 0 l 740 224 z "},"ě":{"ha":801,"x_min":0,"x_max":0,"o":"m 419 1061 l 405 1061 l 247 1226 l 255 1238 l 413 1146 l 558 1237 l 567 1226 z m 726 224 b 480 42 683 119 627 42 l 280 42 l 280 459 l 517 459 b 582 390 553 457 582 427 l 582 370 l 596 370 l 596 589 l 582 589 l 582 569 b 515 500 582 531 552 501 l 280 500 l 280 930 l 564 930 b 641 847 607 927 641 891 l 641 822 l 655 822 l 655 934 l 655 957 l 655 997 b 490 972 630 987 550 973 l 84 972 l 84 958 l 102 958 b 190 879 148 958 190 924 l 190 101 b 101 14 189 53 150 14 l 84 14 l 83 0 l 659 0 l 740 224 z "},"ê":{"ha":801,"x_min":0,"x_max":0,"o":"m 405 1236 l 419 1236 l 578 1071 l 569 1060 l 412 1151 l 266 1060 l 258 1071 z m 726 224 b 480 43 683 119 627 43 l 280 43 l 280 459 l 517 459 b 582 390 553 457 582 427 l 582 370 l 596 370 l 596 589 l 582 589 l 582 569 b 515 500 582 531 552 501 l 280 500 l 280 930 l 564 930 b 641 847 607 927 641 891 l 641 822 l 655 822 l 655 934 l 655 957 l 655 998 b 490 972 630 987 550 973 l 84 972 l 84 958 l 102 958 b 190 879 148 958 190 924 l 190 101 b 101 14 189 53 150 14 l 84 14 l 83 0 l 659 0 l 740 224 z "},"ë":{"ha":801,"x_min":0,"x_max":0,"o":"m 282 1061 b 336 1116 312 1061 336 1086 b 282 1170 336 1146 312 1170 b 227 1116 252 1170 227 1146 b 282 1061 227 1086 252 1061 z m 543 1061 b 598 1116 573 1061 598 1086 b 543 1170 598 1146 573 1170 b 489 1116 513 1170 489 1146 b 543 1061 489 1086 513 1061 z m 726 224 b 480 43 683 119 627 43 l 280 43 l 280 459 l 517 459 b 582 390 553 457 582 427 l 582 370 l 596 370 l 596 589 l 582 589 l 582 569 b 515 500 582 531 552 501 l 280 500 l 280 930 l 564 930 b 641 847 607 927 641 891 l 641 822 l 655 822 l 655 934 l 655 957 l 655 998 b 490 972 630 987 550 973 l 84 972 l 84 958 l 102 958 b 190 879 148 958 190 924 l 190 101 b 101 14 189 53 150 14 l 84 14 l 83 0 l 659 0 l 740 224 z "},"ė":{"ha":801,"x_min":0,"x_max":0,"o":"m 411 1062 b 470 1122 444 1062 470 1089 b 411 1182 470 1155 444 1182 b 351 1122 377 1182 351 1155 b 411 1062 351 1089 377 1062 z m 726 224 b 480 43 683 119 627 43 l 280 43 l 280 459 l 517 459 b 582 390 553 457 582 427 l 582 370 l 596 370 l 596 589 l 582 589 l 582 569 b 515 500 582 531 552 501 l 280 500 l 280 930 l 564 930 b 641 847 607 927 641 891 l 641 822 l 655 822 l 655 934 l 655 957 l 655 998 b 490 972 630 987 550 973 l 84 972 l 84 958 l 102 958 b 190 879 148 958 190 924 l 190 101 b 101 14 189 53 150 14 l 84 14 l 83 0 l 659 0 l 740 224 z "},"è":{"ha":801,"x_min":0,"x_max":0,"o":"m 422 1071 b 246 1253 363 1136 305 1196 b 189 1180 224 1232 204 1208 b 412 1061 264 1136 338 1096 z m 726 224 b 480 42 683 119 627 42 l 280 42 l 280 459 l 517 459 b 582 390 553 457 582 427 l 582 370 l 596 370 l 596 589 l 582 589 l 582 569 b 515 500 582 531 552 501 l 280 500 l 280 930 l 564 930 b 641 847 607 927 641 891 l 641 822 l 655 822 l 655 934 l 655 957 l 655 997 b 490 972 630 987 550 973 l 84 972 l 84 958 l 102 958 b 190 879 148 958 190 924 l 190 101 b 101 14 189 53 150 14 l 84 14 l 83 0 l 659 0 l 740 224 z "},"ē":{"ha":801,"x_min":0,"x_max":0,"o":"m 243 1105 l 590 1105 l 590 1153 l 243 1153 z m 726 224 b 480 42 683 119 627 42 l 280 42 l 280 459 l 517 459 b 582 390 553 457 582 427 l 582 370 l 596 370 l 596 589 l 582 589 l 582 569 b 515 500 582 531 552 501 l 280 500 l 280 930 l 564 930 b 641 847 607 927 641 891 l 641 822 l 655 822 l 655 934 l 655 957 l 655 998 b 490 972 630 987 550 973 l 84 972 l 84 958 l 102 958 b 190 879 148 958 190 924 l 190 101 b 101 14 189 53 150 14 l 84 14 l 83 0 l 659 0 l 740 224 z "},"ę":{"ha":801,"x_min":0,"x_max":0,"o":"m 740 224 l 726 224 b 480 42 683 119 627 42 l 280 42 l 280 459 l 517 459 b 582 390 553 457 582 427 l 582 370 l 596 370 l 596 589 l 582 589 l 582 569 b 515 500 582 531 552 501 l 280 500 l 280 930 l 564 930 b 641 847 607 927 641 891 l 641 822 l 655 822 l 655 934 l 655 957 l 655 998 b 490 972 630 987 550 973 l 84 972 l 84 958 l 102 958 b 190 879 148 958 190 924 l 190 101 b 101 14 189 53 150 14 l 84 14 l 83 0 l 606 0 b 492 -124 540 -14 491 -63 b 733 -175 493 -285 691 -289 l 725 -167 b 555 -108 657 -238 558 -188 b 659 0 554 -56 582 -18 z "},"f":{"ha":751,"x_min":0,"x_max":0,"o":"m 655 997 b 490 972 630 987 550 973 l 84 972 l 84 958 l 102 958 b 190 879 148 958 190 924 l 190 101 b 101 14 189 53 150 14 l 84 14 l 83 0 l 387 0 l 387 14 l 369 14 b 280 101 321 14 281 53 l 280 459 l 517 459 b 582 390 553 457 582 427 l 582 370 l 596 370 l 596 589 l 582 589 l 582 569 b 515 500 582 531 552 501 l 280 500 l 280 930 l 574 930 b 641 861 611 929 641 899 l 641 841 l 655 841 l 655 933 l 655 957 z "},"g":{"ha":1108,"x_min":0,"x_max":0,"o":"m 1075 452 l 1075 466 l 803 466 l 803 452 l 825 452 b 896 389 869 452 896 429 l 896 142 b 583 22 816 68 703 22 b 188 486 347 23 188 209 b 583 950 188 764 347 950 b 935 702 766 950 893 861 l 947 702 l 919 898 b 582 992 837 950 735 992 b 83 486 287 992 83 789 b 583 -19 83 184 287 -18 b 984 159 791 -19 921 75 l 984 389 b 1054 452 984 429 1009 452 z "},"ğ":{"ha":1108,"x_min":0,"x_max":0,"o":"m 707 1205 b 578 1131 694 1168 643 1131 b 449 1205 514 1131 463 1168 l 435 1205 b 578 1061 435 1127 501 1061 b 721 1205 656 1061 721 1127 z m 1075 452 l 1075 466 l 803 466 l 803 452 l 824 452 b 896 389 869 452 896 429 l 896 142 b 583 22 816 68 703 22 b 187 486 347 23 187 209 b 583 950 187 764 347 950 b 935 702 766 950 893 861 l 947 702 l 919 898 b 582 992 837 950 735 992 b 83 486 287 992 83 789 b 583 -19 83 184 287 -18 b 984 159 791 -19 921 75 l 984 389 b 1054 452 984 429 1009 452 z "},"ģ":{"ha":1108,"x_min":0,"x_max":0,"o":"m 1075 452 l 1075 466 l 803 466 l 803 452 l 825 452 b 896 389 869 452 896 429 l 896 142 b 583 22 816 68 703 22 b 188 486 347 23 188 209 b 583 950 188 764 347 950 b 935 702 766 950 893 861 l 947 702 l 919 898 b 582 992 837 950 735 992 b 83 486 287 992 83 789 b 583 -19 83 184 287 -18 b 984 159 791 -19 921 75 l 984 389 b 1054 452 984 429 1009 452 z m 534 -303 b 630 -138 607 -300 666 -224 b 543 -126 612 -92 558 -94 b 569 -192 531 -154 554 -174 b 531 -293 588 -214 599 -272 z "},"ġ":{"ha":1108,"x_min":0,"x_max":0,"o":"m 576 1062 b 636 1122 609 1062 636 1089 b 576 1182 636 1155 609 1182 b 516 1122 543 1182 516 1155 b 576 1062 516 1089 543 1062 z m 1075 452 l 1075 466 l 803 466 l 803 452 l 825 452 b 896 389 869 452 896 429 l 896 142 b 583 22 816 68 703 22 b 188 486 347 23 188 209 b 583 950 188 764 347 950 b 935 702 766 950 893 861 l 947 702 l 919 898 b 582 992 837 950 735 992 b 83 486 287 992 83 789 b 583 -19 83 184 287 -18 b 984 159 791 -19 921 75 l 984 389 b 1054 452 984 429 1009 452 z "},"h":{"ha":1129,"x_min":0,"x_max":0,"o":"m 1046 14 l 1028 14 b 939 101 980 14 940 52 l 939 871 b 1028 958 940 920 980 958 l 1046 958 l 1046 972 l 742 972 l 742 958 l 760 958 b 849 873 808 958 847 920 l 849 501 l 280 501 l 280 872 b 369 958 282 920 321 958 l 387 958 l 387 972 l 83 972 l 84 958 l 101 958 b 190 872 150 958 189 920 l 190 101 b 101 14 189 52 150 14 l 84 14 l 83 0 l 387 0 l 387 14 l 369 14 b 280 101 321 14 281 52 l 280 460 l 849 460 l 849 101 b 760 14 847 53 808 14 l 742 14 l 742 0 l 1046 0 z "},"ħ":{"ha":1129,"x_min":0,"x_max":0,"o":"m 1046 14 l 1028 14 b 939 101 980 14 940 53 l 939 692 l 1031 692 l 1031 734 l 939 734 l 939 871 b 1028 958 940 920 980 958 l 1046 958 l 1046 972 l 742 972 l 742 958 l 760 958 b 849 873 808 958 847 920 l 849 733 l 280 733 l 280 872 b 369 958 282 920 321 958 l 387 958 l 387 972 l 83 972 l 84 958 l 101 958 b 190 872 150 958 189 920 l 190 733 l 102 733 l 102 692 l 190 692 l 190 101 b 101 14 189 53 150 14 l 84 14 l 83 0 l 387 0 l 387 14 l 369 14 b 280 101 321 14 281 53 l 280 460 l 849 460 l 849 100 b 760 14 847 52 808 14 l 742 14 l 742 0 l 1046 0 z m 280 501 l 280 692 l 849 692 l 849 501 z "},"i":{"ha":469,"x_min":0,"x_max":0,"o":"m 387 14 l 369 14 b 280 101 321 14 281 53 l 280 872 b 369 958 282 920 321 958 l 387 958 l 387 972 l 83 972 l 84 958 l 101 958 b 190 872 150 958 189 920 l 190 101 b 101 14 189 53 150 14 l 84 14 l 83 0 l 387 0 z "},"ı":{"ha":469,"x_min":0,"x_max":0,"o":"m 387 14 l 369 14 b 280 101 321 14 281 53 l 280 872 b 369 958 282 920 321 958 l 387 958 l 387 972 l 83 972 l 84 958 l 101 958 b 190 872 150 958 189 920 l 190 101 b 101 14 189 53 150 14 l 84 14 l 83 0 l 387 0 z "},"í":{"ha":469,"x_min":0,"x_max":0,"o":"m 235 1061 b 459 1180 310 1098 384 1136 b 402 1253 444 1207 424 1231 b 226 1071 343 1196 284 1134 z m 387 14 l 369 14 b 280 101 321 14 281 53 l 280 872 b 369 958 282 920 321 958 l 387 958 l 387 972 l 83 972 l 84 958 l 101 958 b 190 872 150 958 189 920 l 190 101 b 101 14 189 53 150 14 l 84 14 l 83 0 l 387 0 z "},"î":{"ha":469,"x_min":0,"x_max":0,"o":"m 228 1236 l 242 1236 l 401 1071 l 392 1060 l 235 1151 l 89 1060 l 81 1071 z m 387 14 l 369 14 b 280 101 321 14 281 53 l 280 872 b 369 958 282 920 321 958 l 387 958 l 387 972 l 83 972 l 84 958 l 101 958 b 190 872 150 958 189 920 l 190 101 b 101 14 189 53 150 14 l 84 14 l 83 0 l 387 0 z "},"ï":{"ha":469,"x_min":0,"x_max":0,"o":"m 105 1061 b 159 1116 135 1061 159 1086 b 105 1170 159 1146 135 1170 b 50 1116 75 1170 50 1146 b 105 1061 50 1086 75 1061 z m 366 1061 b 421 1116 396 1061 421 1086 b 366 1170 421 1146 396 1170 b 312 1116 336 1170 312 1146 b 366 1061 312 1086 336 1061 z m 387 14 l 369 14 b 280 101 321 14 281 53 l 280 872 b 369 958 282 920 321 958 l 387 958 l 387 972 l 83 972 l 84 958 l 101 958 b 190 872 150 958 189 920 l 190 101 b 101 14 189 53 150 14 l 84 14 l 83 0 l 387 0 z "},"ì":{"ha":469,"x_min":0,"x_max":0,"o":"m 245 1071 b 69 1253 186 1136 128 1196 b 12 1180 47 1232 27 1208 b 236 1061 87 1136 161 1096 z m 387 14 l 369 14 b 280 101 321 14 281 53 l 280 872 b 369 958 282 920 321 958 l 387 958 l 387 972 l 83 972 l 84 958 l 101 958 b 190 872 150 958 189 920 l 190 101 b 101 14 189 53 150 14 l 84 14 l 83 0 l 387 0 z "},"ĳ":{"ha":919,"x_min":0,"x_max":0,"o":"m 553 972 l 553 958 l 571 958 b 660 871 619 958 659 919 l 660 4 b 497 -265 660 -115 588 -233 l 497 -278 b 750 0 639 -278 750 -156 l 750 871 b 839 958 751 920 791 958 l 857 958 l 857 972 z m 387 14 l 369 14 b 280 101 321 14 281 53 l 280 872 b 369 958 282 920 321 958 l 387 958 l 387 972 l 83 972 l 84 958 l 101 958 b 190 872 150 958 189 920 l 190 101 b 101 14 189 53 150 14 l 84 14 l 83 0 l 387 0 z "},"ī":{"ha":469,"x_min":0,"x_max":0,"o":"m 66 1105 l 413 1105 l 413 1153 l 66 1153 z m 387 14 l 369 14 b 280 101 321 14 281 53 l 280 872 b 369 958 282 920 321 958 l 387 958 l 387 972 l 83 972 l 84 958 l 101 958 b 190 872 150 958 189 920 l 190 101 b 101 14 189 53 150 14 l 84 14 l 83 0 l 387 0 z "},"į":{"ha":469,"x_min":0,"x_max":0,"o":"m 387 0 l 387 14 l 369 14 b 280 101 321 14 281 53 l 280 872 b 369 958 282 920 321 958 l 387 958 l 387 972 l 83 972 l 84 958 l 101 958 b 190 872 150 958 189 920 l 190 101 b 101 14 189 53 150 14 l 84 14 l 83 0 l 208 0 b 95 -124 143 -14 94 -63 b 336 -175 96 -285 294 -289 l 328 -167 b 158 -108 260 -238 161 -188 b 262 0 157 -56 185 -18 z "},"j":{"ha":450,"x_min":0,"x_max":0,"o":"m 83 972 l 84 958 l 101 958 b 190 871 150 958 189 919 l 190 4 b 28 -265 190 -115 119 -233 l 28 -278 b 281 0 169 -278 281 -156 l 281 871 b 370 958 282 920 321 958 l 387 958 l 388 972 z "},"k":{"ha":913,"x_min":0,"x_max":0,"o":"m 280 872 b 369 958 282 920 321 958 l 387 958 l 387 972 l 83 972 l 84 958 l 101 958 b 190 872 150 958 189 920 l 190 101 b 101 14 189 53 150 14 l 84 14 l 83 0 l 387 0 l 387 14 l 369 14 b 280 101 321 14 281 53 z m 416 517 l 743 895 b 893 960 779 935 834 960 l 899 960 l 899 972 l 606 972 l 606 960 l 619 960 b 653 894 657 960 676 925 l 325 484 l 659 79 b 869 0 723 4 830 0 l 927 0 l 927 14 b 796 71 871 15 834 33 z "},"ķ":{"ha":913,"x_min":0,"x_max":0,"o":"m 280 872 b 369 958 282 920 321 958 l 387 958 l 387 972 l 83 972 l 84 958 l 101 958 b 190 872 150 958 189 920 l 190 101 b 101 14 189 53 150 14 l 84 14 l 83 0 l 387 0 l 387 14 l 369 14 b 280 101 321 14 281 53 z m 416 517 l 743 895 b 893 960 779 935 834 960 l 899 960 l 899 972 l 606 972 l 606 960 l 619 960 b 653 894 657 960 676 925 l 325 484 l 659 79 b 869 0 723 4 830 0 l 927 0 l 927 14 b 796 71 871 15 834 33 z m 500 -289 b 597 -124 573 -286 633 -210 b 510 -113 578 -78 524 -81 b 535 -178 497 -140 521 -160 b 498 -279 554 -200 565 -258 z "},"l":{"ha":781,"x_min":0,"x_max":0,"o":"m 726 224 b 480 42 683 119 627 42 l 280 42 l 280 871 b 369 958 281 919 321 958 l 387 958 l 387 972 l 83 972 l 84 958 l 101 958 b 190 871 150 958 189 919 l 190 101 b 101 14 189 53 150 14 l 84 14 l 83 0 l 659 0 l 740 224 z "},"ĺ":{"ha":781,"x_min":0,"x_max":0,"o":"m 236 1061 b 460 1180 311 1098 385 1136 b 403 1253 445 1207 425 1231 b 227 1071 344 1196 285 1134 z m 726 224 b 480 43 683 119 627 43 l 280 43 l 280 871 b 369 958 281 919 321 958 l 387 958 l 387 972 l 83 972 l 84 958 l 101 958 b 190 871 150 958 189 919 l 190 101 b 101 14 189 53 150 14 l 84 14 l 83 0 l 659 0 l 740 224 z "},"ľ":{"ha":781,"x_min":0,"x_max":0,"o":"m 505 780 b 601 946 578 782 638 859 b 514 956 583 991 529 988 b 540 891 502 928 525 908 b 502 789 559 868 570 811 z m 726 224 b 480 42 683 119 627 42 l 280 42 l 280 871 b 369 958 281 919 321 958 l 387 958 l 387 972 l 83 972 l 84 958 l 101 958 b 190 871 150 958 189 919 l 190 101 b 101 14 189 53 150 14 l 84 14 l 83 0 l 659 0 l 740 224 z "},"ļ":{"ha":781,"x_min":0,"x_max":0,"o":"m 726 224 b 480 42 683 119 627 42 l 280 42 l 280 871 b 369 958 281 919 321 958 l 387 958 l 387 972 l 83 972 l 84 958 l 101 958 b 190 871 150 958 189 919 l 190 101 b 101 14 189 53 150 14 l 84 14 l 83 0 l 659 0 l 740 224 z m 374 -289 b 470 -124 446 -286 506 -210 b 383 -113 451 -78 397 -81 b 409 -178 371 -140 394 -160 b 371 -279 428 -200 439 -258 z "},"ŀ":{"ha":781,"x_min":0,"x_max":0,"o":"m 726 224 b 480 42 683 119 627 42 l 280 42 l 280 871 b 369 958 281 919 321 958 l 387 958 l 387 972 l 83 972 l 84 958 l 101 958 b 190 871 150 958 189 919 l 190 101 b 101 14 189 53 150 14 l 84 14 l 83 0 l 659 0 l 740 224 z m 464 560 b 527 622 499 560 527 588 b 464 685 527 657 499 685 b 402 622 430 685 402 657 b 464 560 402 588 430 560 z "},"ł":{"ha":781,"x_min":0,"x_max":0,"o":"m 726 224 b 480 42 683 119 627 42 l 280 42 l 280 480 l 474 592 l 453 628 l 280 528 l 280 871 b 369 958 281 919 321 958 l 387 958 l 387 972 l 83 972 l 84 958 l 101 958 b 190 871 150 958 189 919 l 190 476 l 25 380 l 46 344 l 190 428 l 190 101 b 101 14 189 53 150 14 l 84 14 l 83 0 l 659 0 l 740 224 z "},"m":{"ha":1293,"x_min":0,"x_max":0,"o":"m 1041 991 l 1029 991 l 650 154 l 262 992 l 249 992 l 145 101 b 43 14 138 46 93 14 l 21 14 l 21 0 l 290 0 l 290 13 l 269 13 b 215 72 239 13 212 42 l 276 751 l 631 -19 l 644 -19 b 691 122 653 38 691 122 l 983 771 l 1046 72 b 992 13 1049 41 1022 13 l 971 13 l 971 0 l 1272 0 l 1272 14 l 1250 14 b 1149 101 1201 14 1156 46 z "},"n":{"ha":1168,"x_min":0,"x_max":0,"o":"m 820 972 l 820 958 l 846 958 b 931 874 892 958 930 921 l 931 185 l 175 993 l 161 993 b 174 820 161 993 174 914 l 174 98 b 88 14 173 51 135 14 l 63 14 l 62 0 l 349 0 l 348 14 l 323 14 b 237 97 276 14 238 51 l 237 788 l 994 -19 l 1007 -19 b 994 158 1007 -19 994 68 l 994 875 b 1080 958 996 921 1034 958 l 1106 958 l 1106 972 z "},"ń":{"ha":1168,"x_min":0,"x_max":0,"o":"m 591 1061 b 815 1180 666 1098 740 1136 b 758 1253 800 1207 780 1231 b 582 1071 699 1196 640 1134 z m 820 972 l 820 958 l 846 958 b 931 874 892 958 930 921 l 931 185 l 175 993 l 161 993 b 174 820 161 993 174 914 l 174 98 b 88 14 173 51 135 14 l 63 14 l 62 0 l 349 0 l 348 14 l 323 14 b 237 97 276 14 238 51 l 237 788 l 994 -19 l 1007 -19 b 994 158 1007 -19 994 68 l 994 875 b 1080 958 996 921 1034 958 l 1106 958 l 1106 972 z "},"ň":{"ha":1168,"x_min":0,"x_max":0,"o":"m 598 1061 l 585 1061 l 426 1226 l 434 1238 l 592 1146 l 737 1237 l 746 1226 z m 820 972 l 820 958 l 846 958 b 931 874 892 958 930 921 l 931 185 l 175 993 l 161 993 b 174 819 161 993 174 914 l 174 98 b 88 14 173 51 135 14 l 63 14 l 62 0 l 349 0 l 348 14 l 323 14 b 237 97 276 14 238 51 l 237 788 l 994 -19 l 1007 -19 b 994 158 1007 -19 994 68 l 994 875 b 1080 958 996 921 1034 958 l 1106 958 l 1106 972 z "},"ņ":{"ha":1168,"x_min":0,"x_max":0,"o":"m 820 972 l 820 958 l 846 958 b 931 874 892 958 930 921 l 931 185 l 175 993 l 161 993 b 174 820 161 993 174 914 l 174 98 b 88 14 173 51 135 14 l 63 14 l 62 0 l 349 0 l 348 14 l 323 14 b 237 97 276 14 238 51 l 237 788 l 994 -19 l 1007 -19 b 994 158 1007 -19 994 68 l 994 875 b 1080 958 996 921 1034 958 l 1106 958 l 1106 972 z m 544 -289 b 641 -124 617 -286 677 -210 b 554 -113 622 -78 568 -81 b 579 -178 541 -140 565 -160 b 542 -279 598 -200 609 -258 z "},"ŋ":{"ha":1165,"x_min":0,"x_max":0,"o":"m 799 972 l 799 954 l 821 954 b 895 882 862 954 895 922 l 895 187 l 139 993 l 125 993 b 138 820 125 993 138 914 l 138 90 b 64 18 137 50 104 18 l 42 18 l 42 0 l 297 0 l 297 18 l 275 18 b 201 90 235 18 202 50 l 201 788 l 895 46 l 895 -42 b 774 -268 895 -176 832 -242 l 781 -279 b 958 -44 874 -260 958 -194 l 958 882 b 1032 954 959 922 992 954 l 1054 954 l 1055 972 z "},"ñ":{"ha":1168,"x_min":0,"x_max":0,"o":"m 780 1170 b 689 1061 772 1103 738 1061 b 522 1122 629 1061 567 1122 b 447 1065 486 1122 462 1104 l 433 1065 b 522 1183 443 1138 477 1183 b 689 1124 585 1183 641 1124 b 766 1170 728 1124 753 1138 z m 820 972 l 820 958 l 846 958 b 931 874 892 958 930 921 l 931 185 l 175 993 l 161 993 b 174 820 161 993 174 914 l 174 98 b 88 14 173 51 135 14 l 63 14 l 62 0 l 349 0 l 348 14 l 323 14 b 237 97 276 14 238 51 l 237 788 l 994 -19 l 1007 -19 b 994 158 1007 -19 994 68 l 994 875 b 1080 958 996 921 1034 958 l 1106 958 l 1106 972 z "},"o":{"ha":1178,"x_min":0,"x_max":0,"o":"m 589 992 b 56 486 274 992 56 789 b 589 -19 56 183 274 -19 b 1123 486 905 -19 1123 183 b 589 992 1123 789 905 992 z m 589 22 b 163 486 334 22 163 208 b 589 950 163 765 334 950 b 1016 486 845 950 1016 765 b 589 22 1016 208 845 22 z "},"ó":{"ha":1178,"x_min":0,"x_max":0,"o":"m 591 1061 b 814 1180 665 1098 740 1136 b 757 1253 799 1207 779 1231 b 581 1071 699 1196 640 1134 z m 589 992 b 56 486 274 992 56 789 b 589 -19 56 183 274 -19 b 1123 486 905 -19 1123 183 b 589 992 1123 789 905 992 z m 589 22 b 163 486 334 22 163 208 b 589 950 163 765 334 950 b 1016 486 845 950 1016 765 b 589 22 1016 208 845 22 z "},"ô":{"ha":1178,"x_min":0,"x_max":0,"o":"m 584 1236 l 598 1236 l 756 1071 l 748 1060 l 590 1151 l 445 1060 l 436 1071 z m 590 992 b 56 486 274 992 56 789 b 590 -19 56 183 274 -19 b 1123 486 905 -19 1123 183 b 590 992 1123 789 905 992 z m 590 22 b 163 486 334 22 163 208 b 590 950 163 765 334 950 b 1016 486 845 950 1016 765 b 590 22 1016 208 845 22 z "},"ö":{"ha":1178,"x_min":0,"x_max":0,"o":"m 460 1061 b 514 1116 490 1061 514 1086 b 460 1170 514 1146 490 1170 b 406 1116 430 1170 406 1146 b 460 1061 406 1086 430 1061 z m 722 1061 b 776 1116 752 1061 776 1086 b 722 1170 776 1146 752 1170 b 667 1116 692 1170 667 1146 b 722 1061 667 1086 692 1061 z m 589 992 b 56 486 274 992 56 789 b 589 -19 56 183 274 -19 b 1123 486 905 -19 1123 183 b 589 992 1123 789 905 992 z m 589 22 b 163 486 334 22 163 208 b 589 950 163 765 334 950 b 1016 486 845 950 1016 765 b 589 22 1016 208 845 22 z "},"ò":{"ha":1178,"x_min":0,"x_max":0,"o":"m 601 1071 b 424 1253 542 1136 483 1196 b 367 1180 403 1232 382 1208 b 591 1061 442 1136 516 1096 z m 589 992 b 56 486 274 992 56 789 b 589 -19 56 183 274 -19 b 1123 486 905 -19 1123 183 b 589 992 1123 789 905 992 z m 589 22 b 163 486 334 22 163 208 b 589 950 163 764 334 950 b 1016 486 845 950 1016 764 b 589 22 1016 208 845 22 z "},"ő":{"ha":1178,"x_min":0,"x_max":0,"o":"m 681 1067 b 844 1234 741 1122 794 1179 b 759 1252 818 1244 787 1252 b 666 1070 721 1191 692 1131 z m 512 1067 b 674 1234 570 1123 624 1179 b 589 1252 647 1246 618 1250 b 496 1070 556 1191 525 1131 z m 590 992 b 56 486 274 992 56 789 b 590 -19 56 183 274 -19 b 1123 486 905 -19 1123 183 b 590 992 1123 789 905 992 z m 590 22 b 163 486 334 22 163 208 b 590 950 163 765 334 950 b 1016 486 845 950 1016 765 b 590 22 1016 208 845 22 z "},"ō":{"ha":1178,"x_min":0,"x_max":0,"o":"m 421 1105 l 768 1105 l 768 1153 l 421 1153 z m 589 992 b 56 486 274 992 56 789 b 589 -19 56 183 274 -19 b 1123 486 905 -19 1123 183 b 589 992 1123 789 905 992 z m 589 22 b 163 486 334 22 163 208 b 589 950 163 765 334 950 b 1016 486 845 950 1016 765 b 589 22 1016 208 845 22 z "},"ø":{"ha":1178,"x_min":0,"x_max":0,"o":"m 1007 972 l 971 1003 l 896 912 b 589 992 811 963 707 992 b 56 486 274 992 56 789 b 223 103 56 325 117 192 l 136 -1 l 171 -32 l 260 75 b 589 -19 348 14 461 -19 b 1123 486 905 -19 1123 183 b 935 886 1123 658 1053 797 z m 271 161 b 163 486 202 241 163 353 b 589 950 163 765 334 950 b 855 863 694 950 785 919 z m 890 832 b 1016 486 970 750 1016 631 b 589 22 1016 208 845 22 b 303 127 474 22 376 60 z "},"õ":{"ha":1178,"x_min":0,"x_max":0,"o":"m 779 1170 b 688 1061 771 1103 737 1061 b 521 1122 629 1061 566 1122 b 446 1065 485 1122 461 1104 l 432 1065 b 521 1183 442 1138 476 1183 b 688 1124 584 1183 641 1124 b 765 1170 728 1124 752 1138 z m 589 992 b 56 486 274 992 56 789 b 589 -19 56 183 274 -19 b 1123 486 905 -19 1123 183 b 589 992 1123 789 905 992 z m 589 22 b 163 486 334 22 163 208 b 589 950 163 765 334 950 b 1016 486 845 950 1016 765 b 589 22 1016 208 845 22 z "},"œ":{"ha":1356,"x_min":0,"x_max":0,"o":"m 1281 224 b 1035 42 1238 119 1182 42 l 830 42 l 830 459 l 1072 459 b 1137 390 1108 457 1137 427 l 1137 370 l 1151 370 l 1151 589 l 1137 589 l 1137 569 b 1070 500 1137 531 1107 501 l 830 500 l 830 930 l 1116 930 b 1193 847 1159 927 1193 891 l 1193 822 l 1210 822 l 1210 998 b 1045 972 1184 987 1105 973 l 826 972 b 731 980 783 972 759 976 b 576 992 684 986 616 992 b 83 486 280 992 83 789 b 576 -19 83 183 280 -19 b 753 -3 626 -19 723 -4 b 827 0 792 0 809 0 l 1214 0 l 1295 224 z m 745 89 b 576 22 745 44 649 22 b 183 486 340 22 183 208 b 576 950 183 765 340 950 b 745 883 649 950 745 934 z "},"p":{"ha":801,"x_min":0,"x_max":0,"o":"m 84 972 l 84 958 l 102 958 b 190 878 148 958 186 923 l 190 101 b 101 14 189 53 150 14 l 84 14 l 83 0 l 387 0 l 387 14 l 370 14 b 281 101 321 14 282 53 l 281 931 l 441 931 b 628 718 559 931 625 845 b 619 634 629 687 625 654 b 328 484 556 435 328 484 l 328 471 b 732 704 502 380 732 492 b 446 972 732 870 623 972 z "},"þ":{"ha":769,"x_min":0,"x_max":0,"o":"m 256 761 l 256 872 b 345 958 258 920 297 958 l 363 958 l 363 972 l 59 972 l 60 958 l 77 958 b 166 872 126 958 165 920 l 166 101 b 77 14 165 53 126 14 l 59 14 l 59 0 l 363 0 l 363 14 l 345 14 b 256 101 297 14 257 53 l 256 719 l 417 719 b 604 507 535 719 600 634 b 595 423 605 476 601 442 b 304 273 532 224 304 273 l 304 260 b 701 493 478 168 701 281 b 422 761 701 657 605 761 z "},"q":{"ha":1204,"x_min":0,"x_max":0,"o":"m 1839 -117 b 1161 -185 1667 -278 1370 -272 b 712 -11 979 -107 822 -44 b 1137 486 968 30 1137 219 b 603 992 1137 789 919 992 b 69 486 288 992 69 789 b 567 -18 69 195 271 -4 b 1150 -269 753 -53 981 -196 b 1844 -124 1547 -442 1812 -211 z m 177 486 b 603 950 177 765 348 950 b 1030 486 859 950 1030 765 b 603 22 1030 208 859 22 b 177 486 348 22 177 208 z "},"r":{"ha":940,"x_min":0,"x_max":0,"o":"m 83 972 l 84 958 l 101 958 b 190 871 150 958 189 919 l 190 101 b 101 14 189 52 150 14 l 84 14 l 83 0 l 387 0 l 387 14 l 369 14 b 280 101 320 14 281 53 l 280 929 b 453 928 298 928 382 932 b 625 716 556 922 622 842 b 616 633 626 686 623 652 b 400 489 577 508 472 491 b 326 488 358 488 326 488 l 326 475 b 454 382 377 475 417 427 b 637 122 464 368 621 141 b 879 0 680 70 750 0 l 955 0 l 955 14 b 766 119 874 15 822 58 b 593 349 713 178 593 349 b 493 446 566 387 523 433 b 729 711 627 446 729 577 b 458 972 729 873 626 972 z "},"ŕ":{"ha":940,"x_min":0,"x_max":0,"o":"m 435 1061 b 659 1180 510 1098 584 1136 b 602 1253 644 1207 623 1231 b 425 1071 543 1196 484 1134 z m 83 972 l 84 958 l 101 958 b 190 871 150 958 189 919 l 190 101 b 101 14 189 52 150 14 l 84 14 l 83 0 l 387 0 l 387 14 l 369 14 b 280 101 320 14 281 53 l 280 929 b 453 928 298 928 382 932 b 625 716 556 922 622 842 b 616 633 626 686 623 652 b 400 489 577 508 472 491 b 326 488 358 488 326 488 l 326 475 b 454 382 377 475 417 427 b 637 122 464 368 621 141 b 879 0 680 70 750 0 l 955 0 l 955 14 b 766 119 874 15 822 58 b 593 349 713 178 593 349 b 493 446 566 387 523 433 b 729 711 627 446 729 577 b 458 972 729 873 626 972 z "},"ř":{"ha":940,"x_min":0,"x_max":0,"o":"m 442 1061 l 428 1061 l 270 1226 l 278 1238 l 436 1146 l 581 1237 l 589 1226 z m 83 972 l 84 958 l 101 958 b 190 871 150 958 189 919 l 190 100 b 101 14 189 52 150 14 l 84 14 l 83 0 l 387 0 l 387 14 l 369 14 b 280 101 320 14 281 53 l 280 929 b 453 928 298 928 382 932 b 625 716 556 922 622 842 b 616 633 626 686 623 652 b 400 489 577 508 472 491 b 326 488 358 488 326 488 l 326 475 b 454 382 377 475 417 427 b 637 122 464 368 621 141 b 879 0 680 70 750 0 l 955 0 l 955 14 b 766 119 874 15 822 58 b 593 349 713 178 593 349 b 493 446 566 387 523 433 b 729 711 627 446 729 577 b 458 972 729 873 626 972 z "},"ŗ":{"ha":940,"x_min":0,"x_max":0,"o":"m 83 972 l 84 958 l 101 958 b 190 871 150 958 189 919 l 190 101 b 101 14 189 52 150 14 l 84 14 l 83 0 l 387 0 l 387 14 l 369 14 b 280 101 320 14 281 53 l 280 929 b 453 928 298 928 382 932 b 625 716 556 922 622 842 b 616 633 626 686 623 652 b 400 489 577 508 472 491 b 326 488 358 488 326 488 l 326 475 b 454 382 377 475 417 427 b 637 122 464 368 621 141 b 879 0 680 70 750 0 l 955 0 l 955 14 b 766 119 874 15 822 58 b 593 349 713 178 593 349 b 493 446 566 387 523 433 b 729 711 627 446 729 577 b 458 972 729 873 626 972 z m 480 -289 b 576 -124 552 -286 612 -210 b 489 -112 557 -78 503 -81 b 515 -178 477 -140 500 -160 b 477 -279 534 -200 545 -258 z "},"s":{"ha":661,"x_min":0,"x_max":0,"o":"m 238 662 b 182 790 194 703 182 754 b 353 950 182 875 250 950 b 509 807 439 950 509 896 l 522 807 l 522 977 l 467 977 b 348 992 430 985 385 992 b 104 757 190 992 104 874 b 179 585 104 703 123 636 l 445 338 b 500 208 480 306 500 263 b 314 22 500 97 415 28 b 114 250 190 15 100 107 l 101 250 b 85 56 80 188 75 99 b 320 -19 140 0 252 -19 b 581 240 480 -19 581 87 b 511 410 581 296 566 358 z "},"ś":{"ha":661,"x_min":0,"x_max":0,"o":"m 343 1061 b 567 1180 418 1098 492 1136 b 510 1253 552 1207 532 1231 b 334 1071 451 1196 392 1134 z m 238 662 b 182 790 194 703 182 754 b 353 950 182 875 250 950 b 509 807 439 950 509 896 l 522 807 l 522 977 l 467 977 b 348 992 430 985 385 992 b 104 757 190 992 104 874 b 179 585 104 703 123 636 l 445 338 b 500 208 480 306 500 263 b 314 22 500 97 415 28 b 114 250 190 15 100 107 l 101 250 b 85 56 80 188 75 99 b 320 -19 140 0 252 -19 b 581 240 480 -19 581 87 b 511 410 581 296 566 358 z "},"š":{"ha":661,"x_min":0,"x_max":0,"o":"m 350 1061 l 336 1061 l 178 1226 l 186 1238 l 344 1146 l 489 1237 l 498 1226 z m 238 662 b 182 790 194 703 182 754 b 353 950 182 875 250 950 b 509 807 439 950 509 896 l 522 807 l 522 977 l 467 977 b 348 992 430 985 385 992 b 104 757 190 992 104 874 b 179 585 104 703 123 636 l 445 338 b 500 208 480 306 500 263 b 314 22 500 97 415 28 b 114 250 190 15 100 107 l 101 250 b 85 56 80 188 75 99 b 320 -19 140 0 252 -19 b 581 240 480 -19 581 87 b 511 410 581 296 566 358 z "},"ş":{"ha":661,"x_min":0,"x_max":0,"o":"m 238 662 b 182 790 194 703 182 754 b 353 950 182 875 250 950 b 509 807 439 950 509 896 l 522 807 l 522 977 l 467 977 b 348 992 430 985 385 992 b 104 757 190 992 104 874 b 179 585 104 703 123 636 l 445 338 b 500 208 480 306 500 263 b 314 22 500 97 415 28 b 114 250 190 15 100 107 l 101 250 b 85 56 80 188 75 99 b 308 -19 137 3 240 -17 l 245 -103 l 252 -117 b 368 -163 301 -96 366 -104 b 243 -251 370 -229 300 -251 l 242 -265 b 437 -164 335 -294 440 -251 b 292 -83 434 -68 340 -67 l 347 -18 b 581 240 491 -7 581 95 b 511 410 581 296 566 358 z "},"ș":{"ha":661,"x_min":0,"x_max":0,"o":"m 238 662 b 182 790 194 703 182 754 b 353 950 182 875 250 950 b 509 807 439 950 509 896 l 522 807 l 522 977 l 467 977 b 348 992 430 985 385 992 b 104 757 190 992 104 874 b 179 585 104 703 123 636 l 445 338 b 500 208 480 306 500 263 b 314 22 500 97 415 28 b 114 250 190 15 100 107 l 101 250 b 85 56 80 188 75 99 b 320 -19 140 0 252 -19 b 581 240 480 -19 581 87 b 511 410 581 296 566 358 z m 289 -289 b 385 -124 362 -286 422 -210 b 298 -113 367 -78 313 -81 b 324 -178 286 -140 309 -160 b 286 -279 343 -200 354 -258 z "},"ß":{"ha":1322,"x_min":0,"x_max":0,"o":"m 238 662 b 182 790 194 703 182 754 b 353 950 182 875 250 950 b 509 807 439 950 509 896 l 522 807 l 522 977 l 467 977 b 348 992 430 985 385 992 b 104 757 190 992 104 874 b 179 585 104 703 123 636 l 445 338 b 500 208 480 306 500 263 b 314 22 500 97 415 28 b 114 250 190 15 100 107 l 101 250 b 85 56 80 188 75 99 b 320 -19 140 0 252 -19 b 581 240 480 -19 581 87 b 511 410 581 296 566 358 z m 899 662 b 843 790 855 703 843 754 b 1014 950 843 875 912 950 b 1170 807 1100 950 1170 896 l 1184 807 l 1184 977 l 1128 977 b 1009 992 1092 985 1046 992 b 765 757 851 992 765 874 b 841 585 765 703 784 636 l 1107 338 b 1161 208 1141 306 1161 263 b 975 22 1161 97 1076 28 b 775 250 851 15 761 107 l 762 250 b 746 56 741 188 736 99 b 982 -19 801 0 914 -19 b 1242 240 1141 -19 1242 87 b 1172 410 1242 296 1227 358 z "},"t":{"ha":858,"x_min":0,"x_max":0,"o":"m 195 974 b 28 999 135 974 54 988 l 28 824 l 42 824 l 42 849 b 121 932 42 894 77 930 l 384 932 l 384 99 b 295 14 382 52 343 14 l 278 14 l 278 0 l 582 0 l 582 14 l 564 14 b 475 100 516 14 477 52 l 475 932 l 738 932 b 817 849 782 930 817 894 l 817 824 l 831 824 l 831 999 b 664 974 805 988 724 974 z "},"ŧ":{"ha":858,"x_min":0,"x_max":0,"o":"m 195 974 b 28 999 135 974 54 988 l 28 824 l 42 824 l 42 849 b 121 932 42 894 77 930 l 384 932 l 384 557 l 162 557 l 162 515 l 384 515 l 384 99 b 295 14 382 52 343 14 l 278 14 l 278 0 l 582 0 l 582 14 l 564 14 b 475 100 516 14 477 52 l 475 515 l 700 515 l 700 557 l 475 557 l 475 932 l 738 932 b 817 849 782 930 817 894 l 817 824 l 831 824 l 831 999 b 664 974 805 988 724 974 z "},"ť":{"ha":858,"x_min":0,"x_max":0,"o":"m 436 1061 l 584 1226 l 575 1237 l 430 1146 l 272 1238 l 264 1226 l 422 1061 z m 195 974 b 28 999 135 974 54 988 l 28 824 l 42 824 l 42 849 b 121 932 42 894 77 930 l 384 932 l 384 99 b 295 14 382 52 343 14 l 278 14 l 278 0 l 582 0 l 582 14 l 564 14 b 475 100 516 14 477 52 l 475 932 l 738 932 b 817 849 782 930 817 894 l 817 824 l 831 824 l 831 999 b 664 974 805 988 724 974 z "},"ţ":{"ha":858,"x_min":0,"x_max":0,"o":"m 195 974 b 28 999 135 974 54 988 l 28 824 l 42 824 l 42 849 b 121 932 42 894 77 930 l 384 932 l 384 99 b 295 14 382 52 343 14 l 278 14 l 278 0 l 417 0 l 351 -86 l 358 -100 b 474 -146 407 -79 472 -88 b 349 -235 476 -213 406 -235 l 348 -249 b 543 -147 441 -278 546 -235 b 398 -67 540 -51 446 -50 l 455 0 l 582 0 l 582 14 l 564 14 b 475 100 516 14 476 52 l 475 932 l 738 932 b 817 849 782 930 817 894 l 817 824 l 831 824 l 831 999 b 664 974 805 988 724 974 z "},"ț":{"ha":858,"x_min":0,"x_max":0,"o":"m 195 974 b 28 999 135 974 54 988 l 28 824 l 42 824 l 42 849 b 121 932 42 894 77 930 l 384 932 l 384 99 b 295 14 382 52 343 14 l 278 14 l 278 0 l 582 0 l 582 14 l 564 14 b 475 100 516 14 477 52 l 475 932 l 738 932 b 817 849 782 930 817 894 l 817 824 l 831 824 l 831 999 b 664 974 805 988 724 974 z m 382 -289 b 478 -124 455 -286 515 -210 b 391 -112 460 -78 406 -81 b 417 -178 379 -140 402 -160 b 379 -279 436 -200 447 -258 z "},"u":{"ha":1090,"x_min":0,"x_max":0,"o":"m 764 972 l 764 958 l 787 958 b 860 891 826 958 858 930 l 860 344 b 551 24 860 152 736 24 b 256 361 374 24 256 159 l 256 892 b 329 958 257 931 289 958 l 352 958 l 352 972 l 69 972 l 69 958 l 92 958 b 166 890 132 958 165 930 l 166 341 b 551 -19 166 125 320 -19 b 925 344 775 -19 925 126 l 925 893 b 998 958 927 931 959 958 l 1021 958 l 1021 972 z "},"ú":{"ha":1090,"x_min":0,"x_max":0,"o":"m 558 1061 b 781 1180 632 1098 707 1136 b 724 1253 766 1207 746 1231 b 548 1071 666 1196 607 1134 z m 764 972 l 764 958 l 787 958 b 860 891 826 958 858 930 l 860 344 b 551 24 860 152 736 24 b 256 362 374 24 256 159 l 256 892 b 329 958 257 931 289 958 l 352 958 l 352 972 l 69 972 l 69 958 l 92 958 b 166 890 132 958 165 930 l 166 341 b 551 -19 166 125 320 -19 b 925 344 775 -19 925 126 l 925 893 b 998 958 927 931 959 958 l 1021 958 l 1021 972 z "},"û":{"ha":1090,"x_min":0,"x_max":0,"o":"m 551 1236 l 564 1236 l 723 1071 l 715 1060 l 557 1151 l 412 1060 l 403 1071 z m 764 972 l 764 958 l 787 958 b 860 891 826 958 858 930 l 860 344 b 551 24 860 152 736 24 b 256 362 374 24 256 159 l 256 892 b 329 958 257 931 290 958 l 352 958 l 352 972 l 69 972 l 69 958 l 92 958 b 166 890 132 958 165 930 l 166 341 b 551 -19 166 125 320 -19 b 925 344 775 -19 925 126 l 925 893 b 998 958 928 931 959 958 l 1021 958 l 1021 972 z "},"ü":{"ha":1090,"x_min":0,"x_max":0,"o":"m 427 1061 b 481 1116 457 1061 481 1086 b 427 1170 481 1146 457 1170 b 373 1116 397 1170 373 1146 b 427 1061 373 1086 397 1061 z m 689 1061 b 743 1116 719 1061 743 1086 b 689 1170 743 1146 719 1170 b 634 1116 659 1170 634 1146 b 689 1061 634 1086 659 1061 z m 764 972 l 764 958 l 787 958 b 860 891 826 958 858 930 l 860 344 b 551 24 860 152 736 24 b 256 361 374 24 256 159 l 256 892 b 329 958 257 931 289 958 l 352 958 l 352 972 l 69 972 l 69 958 l 92 958 b 166 890 132 958 165 930 l 166 341 b 551 -19 166 125 320 -19 b 925 344 775 -19 925 126 l 925 893 b 998 958 927 931 959 958 l 1021 958 l 1021 972 z "},"ù":{"ha":1090,"x_min":0,"x_max":0,"o":"m 568 1071 b 391 1253 509 1136 450 1196 b 334 1180 370 1232 349 1208 b 558 1061 409 1136 483 1096 z m 764 972 l 764 958 l 787 958 b 860 891 826 958 858 930 l 860 344 b 551 24 860 152 736 24 b 256 361 374 24 256 159 l 256 892 b 329 958 257 930 289 958 l 352 958 l 352 972 l 69 972 l 69 958 l 92 958 b 166 890 132 958 165 929 l 166 341 b 551 -19 166 125 320 -19 b 925 343 775 -19 925 126 l 925 893 b 998 958 927 931 959 958 l 1021 958 l 1021 972 z "},"ű":{"ha":1090,"x_min":0,"x_max":0,"o":"m 479 1067 b 641 1234 537 1123 591 1179 b 556 1252 614 1246 584 1250 b 463 1070 522 1191 491 1131 z m 648 1067 b 811 1234 708 1122 761 1179 b 726 1252 785 1244 754 1252 b 633 1070 688 1191 658 1131 z m 764 972 l 764 958 l 787 958 b 860 891 826 958 858 930 l 860 344 b 551 24 860 152 736 24 b 256 362 374 24 256 159 l 256 892 b 329 958 257 931 290 958 l 352 958 l 352 972 l 70 972 l 70 958 l 92 958 b 166 890 132 958 165 930 l 166 341 b 551 -19 166 125 320 -19 b 925 344 775 -19 925 126 l 925 893 b 998 958 928 931 959 958 l 1021 958 l 1021 972 z "},"ū":{"ha":1090,"x_min":0,"x_max":0,"o":"m 388 1105 l 735 1105 l 735 1153 l 388 1153 z m 764 972 l 764 958 l 787 958 b 860 891 826 958 858 930 l 860 344 b 551 24 860 152 736 24 b 256 361 374 24 256 159 l 256 892 b 329 958 257 931 289 958 l 352 958 l 352 972 l 69 972 l 69 958 l 92 958 b 166 890 132 958 165 930 l 166 341 b 551 -19 166 125 320 -19 b 925 344 775 -19 925 126 l 925 893 b 998 958 927 931 959 958 l 1021 958 l 1021 972 z "},"ų":{"ha":1090,"x_min":0,"x_max":0,"o":"m 764 972 l 764 958 l 787 958 b 860 891 826 958 858 930 l 860 344 b 551 24 860 152 736 24 b 256 361 374 24 256 159 l 256 892 b 329 958 257 931 289 958 l 352 958 l 352 972 l 69 972 l 69 958 l 92 958 b 166 890 132 958 165 930 l 166 341 b 547 -19 165 126 318 -18 b 453 -137 492 -39 452 -83 b 694 -189 454 -299 652 -303 l 686 -181 b 517 -122 618 -251 519 -201 b 614 -15 515 -71 542 -35 b 925 344 803 10 925 147 l 925 893 b 998 958 927 931 959 958 l 1021 958 l 1021 972 z "},"ů":{"ha":1090,"x_min":0,"x_max":0,"o":"m 558 1270 b 428 1166 484 1270 428 1227 b 558 1062 428 1105 484 1062 b 688 1166 632 1062 688 1105 b 558 1270 688 1231 632 1270 z m 558 1246 b 626 1166 596 1246 626 1217 b 558 1085 626 1114 596 1085 b 490 1166 520 1085 490 1114 b 558 1246 490 1217 520 1246 z m 764 972 l 764 958 l 787 958 b 860 891 826 958 858 930 l 860 344 b 551 24 860 152 736 24 b 256 361 374 24 256 159 l 256 892 b 329 958 257 930 289 958 l 352 958 l 352 972 l 69 972 l 69 958 l 92 958 b 166 890 132 958 165 929 l 166 341 b 551 -19 166 125 320 -19 b 925 343 775 -19 925 126 l 925 893 b 998 958 927 931 959 958 l 1021 958 l 1021 972 z "},"v":{"ha":1028,"x_min":0,"x_max":0,"o":"m 762 972 l 762 959 l 775 959 b 827 872 810 959 848 927 l 525 144 l 234 872 b 287 959 214 927 251 959 l 299 959 l 299 972 l -14 972 l -14 958 l -3 958 b 120 871 40 958 92 933 l 510 -19 l 523 -19 b 574 124 523 11 574 124 l 908 872 b 1030 958 936 933 987 958 l 1042 958 l 1042 972 z "},"w":{"ha":1364,"x_min":0,"x_max":0,"o":"m 1104 972 l 1104 958 l 1116 958 b 1170 876 1154 958 1184 929 l 984 225 l 710 993 l 697 994 l 438 197 l 228 873 b 283 958 212 928 247 958 l 295 958 l 295 972 l -14 972 l -14 958 l -3 958 b 119 874 40 958 96 934 l 434 -17 l 447 -17 b 476 138 450 52 476 138 l 687 778 l 971 -17 l 984 -17 b 1014 138 986 49 1014 138 l 1244 872 b 1366 958 1266 934 1324 958 l 1378 958 l 1378 972 z "},"ẃ":{"ha":1364,"x_min":0,"x_max":0,"o":"m 704 1075 b 928 1193 779 1112 853 1150 b 871 1266 913 1221 893 1245 b 695 1085 812 1210 753 1148 z m 1104 972 l 1104 958 l 1116 958 b 1170 876 1154 958 1184 929 l 984 225 l 710 994 l 697 994 l 438 197 l 228 873 b 283 958 212 928 247 958 l 295 958 l 295 972 l -14 972 l -14 958 l -3 958 b 119 874 40 958 96 934 l 434 -17 l 447 -17 b 476 138 450 52 476 138 l 687 778 l 971 -17 l 984 -17 b 1014 138 986 50 1014 138 l 1244 872 b 1366 958 1266 934 1324 958 l 1378 958 l 1378 972 z "},"ŵ":{"ha":1364,"x_min":0,"x_max":0,"o":"m 697 1250 l 711 1250 l 870 1085 l 861 1073 l 703 1165 l 558 1074 l 550 1085 z m 1104 972 l 1104 958 l 1116 958 b 1170 876 1154 958 1184 929 l 984 225 l 710 994 l 697 994 l 438 197 l 228 873 b 283 958 212 928 247 958 l 295 958 l 295 972 l -14 972 l -14 958 l -3 958 b 119 874 40 958 96 934 l 434 -17 l 447 -17 b 476 138 450 52 476 138 l 687 778 l 971 -17 l 984 -17 b 1014 138 986 50 1014 138 l 1244 872 b 1366 958 1266 934 1324 958 l 1378 958 l 1378 972 z "},"ẅ":{"ha":1364,"x_min":0,"x_max":0,"o":"m 574 1075 b 628 1129 604 1075 628 1099 b 574 1184 628 1159 604 1184 b 519 1129 544 1184 519 1159 b 574 1075 519 1099 544 1075 z m 835 1075 b 889 1129 865 1075 889 1099 b 835 1184 889 1159 865 1184 b 781 1129 805 1184 781 1159 b 835 1075 781 1099 805 1075 z m 1104 972 l 1104 958 l 1116 958 b 1170 876 1154 958 1184 929 l 984 225 l 710 993 l 697 994 l 438 197 l 228 873 b 283 958 212 928 247 958 l 295 958 l 295 972 l -14 972 l -14 958 l -3 958 b 119 874 40 958 96 934 l 434 -17 l 447 -17 b 476 138 450 52 476 138 l 687 778 l 971 -17 l 984 -17 b 1014 138 986 49 1014 138 l 1244 872 b 1366 958 1266 934 1324 958 l 1378 958 l 1378 972 z "},"ẁ":{"ha":1364,"x_min":0,"x_max":0,"o":"m 714 1085 b 538 1267 655 1149 597 1210 b 481 1193 516 1246 496 1222 b 704 1075 555 1150 630 1110 z m 1104 972 l 1104 958 l 1116 958 b 1170 876 1154 958 1184 929 l 984 225 l 710 993 l 697 994 l 438 197 l 228 873 b 283 958 212 928 247 958 l 295 958 l 295 972 l -14 972 l -14 958 l -3 958 b 119 874 40 958 96 934 l 434 -17 l 447 -17 b 476 138 450 52 476 138 l 687 778 l 971 -17 l 984 -17 b 1014 138 986 49 1014 138 l 1244 872 b 1366 958 1266 934 1324 958 l 1378 958 l 1378 972 z "},"x":{"ha":919,"x_min":0,"x_max":0,"o":"m 915 14 b 775 95 857 14 805 52 l 506 518 l 749 877 b 889 958 779 920 831 958 l 909 958 l 909 972 l 595 972 l 595 958 l 613 958 b 660 872 651 958 683 912 l 471 573 l 279 874 b 329 958 258 913 292 958 l 346 958 l 346 972 l 9 972 l 9 958 l 29 958 b 169 877 87 958 139 920 l 413 492 l 147 96 b 5 14 117 53 64 14 l -14 14 l -14 0 l 301 0 l 301 14 l 284 14 b 234 99 246 14 211 60 l 448 436 l 662 99 b 613 14 684 59 651 14 l 596 14 l 596 0 l 934 0 l 934 14 z "},"y":{"ha":918,"x_min":0,"x_max":0,"o":"m 625 972 l 625 958 l 642 958 b 692 874 680 958 713 913 l 691 872 l 470 483 l 262 872 b 310 958 241 912 270 958 l 328 958 l 328 972 l -14 972 l -14 958 l 5 958 b 145 877 63 958 118 920 l 409 435 l 409 100 b 320 14 408 52 369 14 l 303 14 l 302 0 l 606 0 l 606 14 l 588 14 b 499 101 540 14 500 53 l 499 434 l 774 878 b 913 958 804 920 856 958 l 933 958 l 933 972 z "},"ý":{"ha":918,"x_min":0,"x_max":0,"o":"m 477 1061 b 700 1180 551 1098 626 1136 b 644 1253 686 1207 665 1231 b 467 1071 585 1196 526 1134 z m 625 972 l 625 958 l 642 958 b 692 874 680 958 713 913 l 691 872 l 470 483 l 262 872 b 310 958 241 912 270 958 l 328 958 l 328 972 l -14 972 l -14 958 l 5 958 b 145 877 63 958 118 920 l 409 435 l 409 100 b 320 14 408 52 369 14 l 303 14 l 302 0 l 606 0 l 606 14 l 588 14 b 499 101 540 14 500 53 l 499 434 l 774 878 b 913 958 804 920 856 958 l 933 958 l 933 972 z "},"ŷ":{"ha":918,"x_min":0,"x_max":0,"o":"m 470 1236 l 484 1236 l 642 1071 l 634 1060 l 476 1151 l 331 1060 l 322 1071 z m 625 972 l 625 958 l 642 958 b 692 874 680 958 713 913 l 691 872 l 470 483 l 262 872 b 310 958 241 912 270 958 l 328 958 l 328 972 l -14 972 l -14 958 l 5 958 b 145 877 63 958 118 920 l 409 435 l 409 100 b 320 14 408 52 369 14 l 303 14 l 302 0 l 606 0 l 606 14 l 588 14 b 500 101 540 14 500 53 l 500 434 l 774 878 b 913 958 804 920 856 958 l 933 958 l 933 972 z "},"ÿ":{"ha":918,"x_min":0,"x_max":0,"o":"m 346 1061 b 401 1116 376 1061 401 1086 b 346 1170 401 1146 376 1170 b 292 1116 316 1170 292 1146 b 346 1061 292 1086 316 1061 z m 608 1061 b 662 1116 638 1061 662 1086 b 608 1170 662 1146 638 1170 b 554 1116 578 1170 554 1146 b 608 1061 554 1086 578 1061 z m 625 972 l 625 958 l 642 958 b 692 874 680 958 713 913 l 691 872 l 470 483 l 262 872 b 310 958 241 912 270 958 l 328 958 l 328 972 l -14 972 l -14 958 l 5 958 b 145 877 63 958 118 920 l 409 435 l 409 100 b 320 14 408 52 369 14 l 303 14 l 302 0 l 606 0 l 606 14 l 588 14 b 499 101 540 14 500 53 l 499 434 l 774 878 b 913 958 804 920 856 958 l 933 958 l 933 972 z "},"ỳ":{"ha":918,"x_min":0,"x_max":0,"o":"m 487 1071 b 310 1253 428 1136 369 1196 b 254 1180 289 1232 268 1208 b 477 1061 328 1136 403 1096 z m 625 972 l 625 958 l 642 958 b 692 874 680 958 713 913 l 691 872 l 470 483 l 262 872 b 310 958 241 912 270 958 l 328 958 l 328 972 l -14 972 l -14 958 l 5 958 b 145 877 63 958 118 920 l 409 435 l 409 100 b 320 14 408 52 369 14 l 303 14 l 302 0 l 606 0 l 606 14 l 588 14 b 499 101 540 14 500 53 l 499 434 l 774 878 b 913 958 804 920 856 958 l 933 958 l 933 972 z "},"z":{"ha":904,"x_min":0,"x_max":0,"o":"m 843 215 b 653 41 816 118 757 42 l 212 41 l 805 980 l 805 992 b 658 974 789 983 714 974 l 270 974 b 103 999 213 974 129 988 l 103 958 l 103 935 l 103 824 l 117 824 l 117 849 b 198 932 117 894 153 931 l 667 932 l 84 13 l 83 0 l 811 0 l 857 214 z "},"ź":{"ha":904,"x_min":0,"x_max":0,"o":"m 450 1061 b 673 1180 524 1098 599 1136 b 617 1253 659 1207 638 1231 b 440 1071 558 1196 499 1134 z m 843 215 b 653 41 816 118 757 42 l 212 41 l 805 980 l 805 992 b 658 974 789 983 714 974 l 270 974 b 103 999 213 974 129 988 l 103 958 l 103 936 l 103 824 l 117 824 l 117 849 b 198 932 117 894 153 931 l 667 932 l 84 13 l 83 0 l 811 0 l 857 215 z "},"ž":{"ha":904,"x_min":0,"x_max":0,"o":"m 457 1061 l 443 1061 l 284 1226 l 293 1238 l 451 1146 l 596 1237 l 604 1226 z m 843 214 b 653 41 816 118 757 42 l 212 41 l 805 980 l 805 992 b 658 974 789 983 714 974 l 270 974 b 103 999 213 974 129 988 l 103 958 l 103 935 l 103 824 l 117 824 l 117 849 b 198 932 117 894 153 931 l 667 932 l 84 13 l 83 0 l 811 0 l 857 214 z "},"ż":{"ha":904,"x_min":0,"x_max":0,"o":"m 448 1062 b 508 1122 481 1062 508 1089 b 448 1182 508 1155 481 1182 b 388 1122 415 1182 388 1155 b 448 1062 388 1089 415 1062 z m 843 215 b 653 41 816 118 757 42 l 212 41 l 805 980 l 805 992 b 658 974 789 983 714 974 l 270 974 b 103 999 213 974 129 988 l 103 958 l 103 936 l 103 824 l 117 824 l 117 849 b 198 932 117 894 153 931 l 667 932 l 84 13 l 83 0 l 811 0 l 857 215 z "},"ﬁ":{"ha":1221,"x_min":0,"x_max":0,"o":"m 655 997 b 490 972 630 987 550 973 l 84 972 l 84 958 l 102 958 b 190 879 148 958 190 924 l 190 101 b 101 14 189 53 150 14 l 84 14 l 83 0 l 387 0 l 387 14 l 369 14 b 280 101 321 14 281 53 l 280 459 l 517 459 b 582 390 553 457 582 427 l 582 370 l 596 370 l 596 589 l 582 589 l 582 569 b 515 500 582 531 552 501 l 280 500 l 280 930 l 574 930 b 641 861 611 929 641 899 l 641 841 l 655 841 l 655 933 l 655 957 z m 1138 14 l 1121 14 b 1032 101 1072 14 1033 53 l 1032 872 b 1121 958 1033 920 1072 958 l 1138 958 l 1139 972 l 835 972 l 835 958 l 853 958 b 942 872 901 958 940 920 l 942 101 b 853 14 941 53 901 14 l 835 14 l 835 0 l 1139 0 z "},"ﬂ":{"ha":1532,"x_min":0,"x_max":0,"o":"m 655 997 b 490 972 630 987 550 973 l 84 972 l 84 958 l 102 958 b 190 879 148 958 190 924 l 190 101 b 101 14 189 53 150 14 l 84 14 l 83 0 l 387 0 l 387 14 l 369 14 b 280 101 321 14 281 53 l 280 459 l 517 459 b 582 390 553 457 582 427 l 582 370 l 596 370 l 596 589 l 582 589 l 582 569 b 515 500 582 531 552 501 l 280 500 l 280 930 l 574 930 b 641 861 611 929 641 899 l 641 841 l 655 841 l 655 933 l 655 957 z m 1478 224 b 1231 43 1435 119 1378 43 l 1032 43 l 1032 871 b 1121 958 1033 919 1072 958 l 1138 958 l 1139 972 l 835 972 l 835 958 l 853 958 b 942 871 901 958 941 919 l 942 101 b 853 14 941 53 901 14 l 835 14 l 835 0 l 1411 0 l 1492 224 z "},"Δ":{"ha":906,"x_min":0,"x_max":0,"o":"m 446 992 l 7 13 l 7 0 l 899 0 l 899 14 l 460 992 z m 775 41 l 67 41 l 426 850 z "},"Ω":{"ha":1122,"x_min":0,"x_max":0,"o":"m 1032 194 b 869 76 983 106 952 76 l 689 76 b 1040 536 913 151 1040 399 b 565 992 1040 791 831 992 b 83 536 288 992 76 791 b 428 76 88 399 159 167 l 251 76 b 88 194 168 76 137 106 l 74 194 l 140 0 l 470 0 l 470 90 b 181 536 331 171 181 324 b 563 950 181 768 349 950 b 942 536 781 950 948 768 b 646 90 937 324 777 165 l 646 0 l 979 0 l 1046 194 z "},"μ":{"ha":1293,"x_min":0,"x_max":0,"o":"m 1041 991 l 1029 991 l 650 154 l 262 992 l 249 992 l 145 101 b 43 14 138 46 93 14 l 21 14 l 21 0 l 290 0 l 290 13 l 269 13 b 215 72 239 13 212 42 l 276 751 l 631 -19 l 644 -19 b 691 122 653 38 691 122 l 983 771 l 1046 72 b 992 13 1049 41 1022 13 l 971 13 l 971 0 l 1272 0 l 1272 14 l 1250 14 b 1149 101 1201 14 1156 46 z "},"π":{"ha":976,"x_min":0,"x_max":0,"o":"m 901 14 l 886 14 b 809 88 844 14 811 47 l 809 746 b 886 820 811 787 845 820 l 901 820 l 901 833 l 76 833 l 77 820 l 92 820 b 168 744 134 820 168 786 l 168 89 b 92 14 168 47 134 14 l 77 14 l 76 0 l 349 0 l 349 14 l 334 14 b 257 88 293 14 259 47 l 257 719 b 332 792 259 759 292 792 l 646 792 b 720 716 687 792 720 757 l 720 89 b 644 14 719 47 686 14 l 629 14 l 628 0 l 901 0 z "},"⁄":{"ha":753,"x_min":0,"x_max":0,"o":"m 692 992 l 726 968 l 62 -19 l 28 3 z "},"½":{"ha":1118,"x_min":0,"x_max":0,"o":"m 802 992 l 835 968 l 172 -19 l 138 3 z m 90 428 l 90 437 l 110 437 b 161 487 138 437 161 459 l 161 878 b 118 923 161 908 146 923 l 83 923 l 83 932 b 214 992 131 939 177 949 l 223 992 l 223 487 b 274 437 223 459 246 437 l 293 437 l 293 428 z m 677 399 b 810 529 675 480 737 528 b 941 391 886 531 941 479 b 639 9 941 248 747 109 l 639 0 l 1019 0 l 1063 136 l 1054 136 b 945 58 1021 78 1000 58 l 754 58 b 1017 394 846 124 1017 236 b 810 564 1017 496 925 564 b 652 503 751 564 687 539 l 668 399 z "},"¼":{"ha":990,"x_min":0,"x_max":0,"o":"m 803 992 l 837 968 l 173 -19 l 139 3 z m 274 437 b 223 487 246 437 223 459 l 223 992 l 214 992 b 83 932 178 949 131 939 l 83 923 l 118 923 b 161 878 146 923 161 908 l 161 487 b 110 437 161 459 138 437 l 90 437 l 90 428 l 294 428 l 294 437 z m 938 180 l 957 246 l 948 246 b 898 227 937 233 932 227 l 857 227 l 857 562 l 849 562 l 543 190 l 543 180 l 796 180 l 796 56 b 745 8 795 28 772 8 l 735 8 l 735 -1 l 919 -1 l 919 8 l 909 8 b 858 57 881 8 858 30 l 858 180 z m 618 227 l 796 449 l 796 227 z "},"¾":{"ha":990,"x_min":0,"x_max":0,"o":"m 863 992 l 897 968 l 233 -19 l 199 3 z m 71 851 l 81 851 b 187 956 78 929 117 956 b 285 865 245 956 284 921 b 125 735 287 783 213 735 l 124 726 b 304 607 234 726 304 694 b 43 407 304 472 190 403 l 42 398 b 377 610 229 361 377 445 b 239 739 377 681 308 730 b 359 863 298 750 359 804 b 187 989 359 938 285 991 b 55 937 122 988 80 968 z m 945 180 l 964 246 l 955 246 b 904 227 944 233 938 227 l 864 227 l 864 562 l 855 562 l 549 190 l 549 180 l 802 180 l 802 56 b 751 8 801 28 779 8 l 741 8 l 741 -1 l 925 -1 l 925 8 l 915 8 b 864 57 888 8 864 30 l 864 180 z m 625 227 l 803 449 l 803 227 z "},"¹":{"ha":293,"x_min":0,"x_max":0,"o":"m 62 428 l 62 437 l 82 437 b 133 487 110 437 133 459 l 133 878 b 90 923 133 908 118 923 l 55 923 l 55 932 b 186 992 104 939 150 949 l 195 992 l 195 487 b 246 437 195 459 218 437 l 266 437 l 266 428 z "},"²":{"ha":521,"x_min":0,"x_max":0,"o":"m 80 826 b 213 957 78 908 140 955 b 344 818 289 959 344 907 b 42 437 344 676 150 537 l 42 428 l 422 428 l 466 564 l 457 564 b 348 486 424 505 403 486 l 157 486 b 420 822 249 552 420 664 b 213 992 420 924 328 992 b 55 931 154 992 90 966 l 71 826 z "},"³":{"ha":431,"x_min":0,"x_max":0,"o":"m 71 851 l 80 851 b 187 956 78 929 117 956 b 285 865 245 956 284 921 b 125 735 287 783 213 735 l 124 726 b 304 607 234 726 304 694 b 43 407 304 472 190 403 l 42 398 b 377 610 229 361 377 445 b 239 739 377 681 308 730 b 359 863 298 750 359 804 b 187 989 359 938 285 991 b 55 937 122 988 80 968 z "},"ª":{"ha":511,"x_min":0,"x_max":0,"o":"m 259 992 l 252 992 b 222 909 250 971 222 909 l 67 581 b 6 533 50 547 27 533 l 0 533 l 0 525 l 159 525 l 159 533 l 153 533 b 127 582 135 533 114 550 l 166 675 l 337 675 l 373 583 b 347 533 385 551 365 533 l 341 533 l 341 525 l 512 525 l 512 533 l 506 533 b 445 583 485 533 463 547 z m 181 708 l 256 885 l 325 708 z "},"º":{"ha":572,"x_min":0,"x_max":0,"o":"m 287 992 b 42 753 152 992 42 886 b 287 513 42 619 152 513 b 532 753 421 513 532 619 b 287 992 532 886 421 992 z m 287 542 b 118 753 188 542 118 633 b 287 963 118 872 188 963 b 455 753 385 963 455 872 b 287 542 455 633 385 542 z "},"*":{"ha":536,"x_min":0,"x_max":0,"o":"m 483 866 l 487 915 l 455 953 l 327 892 l 275 852 l 297 913 l 315 1054 l 269 1073 l 223 1054 l 242 913 l 263 852 l 212 892 l 83 952 l 50 914 l 55 865 l 194 839 l 260 841 l 206 804 l 109 700 l 134 658 l 183 647 l 251 771 l 269 834 l 287 771 l 356 647 l 404 658 l 430 701 l 332 804 l 278 841 l 344 839 z "},"\\":{"ha":564,"x_min":0,"x_max":0,"o":"m 10 967 l 511 -19 l 554 7 l 53 992 z "},"•":{"ha":465,"x_min":0,"x_max":0,"o":"m 252 318 b 365 430 331 345 339 352 b 366 470 370 445 370 456 b 252 584 339 550 332 557 b 214 584 239 588 228 588 b 101 470 134 557 127 550 b 101 432 96 456 96 446 b 214 318 127 352 134 345 b 252 318 228 314 239 314 z m 244 376 b 223 376 236 374 230 374 b 158 440 177 391 173 395 b 158 462 156 448 156 454 b 223 526 173 507 177 511 b 244 526 230 528 236 528 b 308 462 289 511 293 507 b 308 439 311 454 311 448 b 244 376 293 395 289 391 z "},":":{"ha":249,"x_min":0,"x_max":0,"o":"m 125 526 b 188 588 160 526 188 554 b 125 651 188 623 160 651 b 63 588 90 651 63 623 b 125 526 63 554 90 526 z m 125 -6 b 188 57 160 -6 188 22 b 125 119 188 91 160 119 b 63 57 90 119 63 91 b 125 -6 63 22 90 -6 z "},",":{"ha":257,"x_min":0,"x_max":0,"o":"m 66 -124 b 182 77 154 -121 226 -28 b 77 90 160 131 94 129 b 108 11 62 55 90 32 b 63 -112 131 -17 144 -86 z "},"…":{"ha":790,"x_min":0,"x_max":0,"o":"m 125 -6 b 188 57 160 -6 188 22 b 125 119 188 91 160 119 b 63 57 90 119 63 91 b 125 -6 63 22 90 -6 z m 403 -6 b 465 57 437 -6 465 22 b 403 119 465 91 437 119 b 340 57 368 119 340 91 b 403 -6 340 22 368 -6 z m 667 -6 b 729 57 701 -6 729 22 b 667 119 729 91 701 119 b 604 57 632 119 604 91 b 667 -6 604 22 632 -6 z "},"!":{"ha":319,"x_min":0,"x_max":0,"o":"m 194 560 l 211 974 l 107 974 l 123 560 l 151 236 l 165 236 z m 160 -6 b 222 57 194 -6 222 22 b 160 119 222 91 194 119 b 97 57 125 119 97 91 b 160 -6 97 22 125 -6 z "},"¡":{"ha":319,"x_min":0,"x_max":0,"o":"m 160 980 b 97 918 125 980 97 952 b 160 855 97 883 125 855 b 222 918 194 855 222 883 b 160 980 222 952 194 980 z m 125 415 l 109 0 l 213 0 l 196 415 l 168 734 l 154 734 z "},"#":{"ha":744,"x_min":0,"x_max":0,"o":"m 717 648 l 717 690 l 568 690 l 617 972 l 573 972 l 523 690 l 290 690 l 340 972 l 295 972 l 245 690 l 89 690 l 89 648 l 238 648 l 184 343 l 28 343 l 28 301 l 177 301 l 124 0 l 168 0 l 221 301 l 455 301 l 401 0 l 446 0 l 499 301 l 656 301 l 656 343 l 506 343 l 560 648 z m 462 343 l 229 343 l 282 648 l 516 648 z "},".":{"ha":249,"x_min":0,"x_max":0,"o":"m 125 -6 b 188 57 160 -6 188 22 b 125 119 188 91 160 119 b 63 57 90 119 63 91 b 125 -6 63 22 90 -6 z "},"·":{"ha":236,"x_min":0,"x_max":0,"o":"m 118 508 b 14 446 73 508 28 482 b 118 383 28 410 73 383 b 222 446 163 383 208 410 b 118 508 208 482 163 508 z m 118 481 b 183 446 143 481 175 466 b 118 411 175 426 143 411 b 53 446 93 411 61 426 b 118 481 61 466 93 481 z "},"?":{"ha":574,"x_min":0,"x_max":0,"o":"m 42 736 l 56 736 b 233 950 53 870 123 950 b 400 756 337 950 400 877 b 202 369 400 582 202 501 b 264 236 202 325 216 280 l 273 243 b 259 371 238 288 246 326 b 505 756 295 500 505 568 b 233 992 505 903 401 992 b 28 868 144 992 70 946 z m 250 -6 b 313 57 285 -6 313 22 b 250 119 313 91 285 119 b 188 57 216 119 188 91 b 250 -6 188 22 216 -6 z "},"¿":{"ha":601,"x_min":0,"x_max":0,"o":"m 324 978 b 261 915 289 978 261 950 b 324 853 261 881 289 853 b 386 915 358 853 386 881 b 324 978 386 950 358 978 z m 532 236 l 519 236 b 341 22 521 102 451 22 b 174 216 237 22 174 95 b 372 603 174 390 372 472 b 310 736 372 648 358 692 l 302 729 b 315 601 336 684 328 646 b 69 216 279 472 69 405 b 341 -19 69 69 173 -19 b 546 104 430 -19 504 27 z "},"\"":{"ha":438,"x_min":0,"x_max":0,"o":"m 82 694 b 188 992 169 744 191 920 l 91 972 b 69 702 99 871 95 823 z m 263 694 b 369 992 350 744 371 920 l 272 972 b 250 702 279 871 276 823 z "},"'":{"ha":236,"x_min":0,"x_max":0,"o":"m 61 694 b 168 992 148 744 170 920 l 70 972 b 49 702 78 871 74 823 z "},";":{"ha":256,"x_min":0,"x_max":0,"o":"m 125 566 b 188 628 160 566 188 594 b 125 691 188 663 160 691 b 63 628 90 691 63 663 b 125 566 63 594 90 566 z m 66 -124 b 182 77 154 -121 226 -28 b 77 90 160 131 94 129 b 108 11 62 55 90 32 b 63 -112 131 -17 144 -86 z "},"/":{"ha":564,"x_min":0,"x_max":0,"o":"m 10 7 l 52 -19 l 554 967 l 510 992 z "},"_":{"ha":694,"x_min":0,"x_max":0,"o":"m 0 -125 l 694 -125 l 694 -83 l 0 -83 z "},"{":{"ha":600,"x_min":0,"x_max":0,"o":"m 11 585 b 162 499 27 526 88 469 b 235 783 259 538 239 676 b 552 1067 224 1117 403 1149 l 545 1057 b 321 793 342 1110 314 965 b 210 475 327 671 330 528 b 0 581 135 442 28 453 z m 552 -178 b 235 106 391 -265 224 -214 b 162 390 239 211 259 351 b 10 304 89 419 27 364 l 0 308 b 210 414 28 435 132 449 b 320 96 341 356 324 203 b 545 -168 313 -93 357 -218 z "},"}":{"ha":600,"x_min":0,"x_max":0,"o":"m 49 1067 b 366 783 198 1149 377 1117 b 439 499 362 676 342 538 b 589 585 513 469 574 526 l 601 581 b 391 475 573 453 466 442 b 280 793 271 528 274 671 b 56 1057 287 965 259 1110 z m 591 304 b 439 390 574 364 512 419 b 366 106 342 351 362 211 b 49 -178 377 -214 210 -265 l 56 -168 b 281 96 244 -218 288 -93 b 391 414 277 203 260 356 b 601 308 469 449 573 435 z "},"[":{"ha":461,"x_min":0,"x_max":0,"o":"m 167 -125 l 406 -125 l 406 -111 l 257 -83 l 257 961 l 402 989 l 402 1003 l 167 1003 z "},"]":{"ha":461,"x_min":0,"x_max":0,"o":"m 60 1003 l 60 989 l 205 961 l 205 -83 l 56 -111 l 56 -125 l 295 -125 l 295 1003 z "},"(":{"ha":469,"x_min":0,"x_max":0,"o":"m 420 1017 b 125 464 260 960 123 731 b 418 -139 128 193 264 -58 l 426 -126 b 222 466 323 -54 226 193 b 429 1006 219 728 316 952 z "},")":{"ha":469,"x_min":0,"x_max":0,"o":"m 52 -139 b 345 463 206 -58 343 193 b 50 1017 348 731 210 960 l 42 1006 b 248 466 154 952 251 728 b 44 -126 244 193 147 -54 z "},"—":{"ha":1111,"x_min":0,"x_max":0,"o":"m 0 376 l 1111 376 l 1111 432 l 0 432 z "},"–":{"ha":694,"x_min":0,"x_max":0,"o":"m 0 376 l 694 376 l 694 432 l 0 432 z "},"-":{"ha":528,"x_min":0,"x_max":0,"o":"m 47 405 l 56 374 l 472 374 l 481 405 l 472 436 l 56 436 z "},"­":{"ha":528,"x_min":0,"x_max":0,"o":"m 47 405 l 56 374 l 472 374 l 481 405 l 472 436 l 56 436 z "},"«":{"ha":590,"x_min":0,"x_max":0,"o":"m 309 673 b 146 405 269 570 214 481 b 311 132 215 328 270 237 l 298 125 b 56 405 224 240 150 326 b 298 680 150 483 223 555 z m 534 673 b 371 405 494 570 439 481 b 536 132 440 328 495 237 l 523 125 b 281 405 449 240 375 326 b 523 680 375 483 448 555 z "},"»":{"ha":590,"x_min":0,"x_max":0,"o":"m 281 132 b 446 405 322 237 377 328 b 282 673 377 481 323 570 l 293 680 b 536 405 368 555 441 483 b 293 125 441 326 367 240 z m 56 132 b 221 405 97 237 152 328 b 57 673 152 481 98 570 l 68 680 b 311 405 143 555 216 483 b 68 125 216 326 142 240 z "},"‹":{"ha":365,"x_min":0,"x_max":0,"o":"m 309 673 b 146 405 269 570 214 481 b 311 132 215 328 270 237 l 298 125 b 56 405 224 240 150 326 b 298 680 150 483 223 555 z "},"›":{"ha":365,"x_min":0,"x_max":0,"o":"m 56 132 b 221 405 97 237 152 328 b 57 673 152 481 98 570 l 68 680 b 311 405 143 555 216 483 b 68 125 216 326 142 240 z "},"„":{"ha":460,"x_min":0,"x_max":0,"o":"m 66 -142 b 200 89 167 -139 251 -32 b 79 104 174 151 99 148 b 115 13 62 64 95 37 b 63 -129 141 -19 156 -99 z m 250 -142 b 384 89 351 -139 434 -32 b 263 104 358 151 282 148 b 298 13 245 64 278 37 b 246 -129 325 -19 340 -99 z "},"“":{"ha":464,"x_min":0,"x_max":0,"o":"m 201 1088 b 73 869 105 1085 25 983 b 189 855 98 809 170 812 b 155 941 205 892 174 918 b 204 1076 130 971 115 1047 z m 395 1088 b 268 869 299 1085 220 983 b 383 855 293 809 364 812 b 349 941 400 892 368 918 b 399 1076 324 971 309 1047 z "},"”":{"ha":464,"x_min":0,"x_max":0,"o":"m 260 830 b 382 1039 352 833 428 930 b 272 1053 358 1096 290 1093 b 304 971 256 1017 286 992 b 257 842 328 942 342 869 z m 66 830 b 187 1039 158 833 233 930 b 78 1053 164 1096 95 1093 b 110 971 62 1017 92 992 b 62 842 134 942 148 869 z "},"‘":{"ha":269,"x_min":0,"x_max":0,"o":"m 205 1088 b 77 869 108 1085 29 983 b 192 855 102 809 173 812 b 158 941 209 892 178 918 b 208 1076 133 971 119 1047 z "},"’":{"ha":263,"x_min":0,"x_max":0,"o":"m 66 830 b 187 1039 158 833 233 930 b 78 1053 164 1096 95 1093 b 110 971 62 1017 92 992 b 62 842 134 942 148 869 z "},"‚":{"ha":269,"x_min":0,"x_max":0,"o":"m 66 -135 b 194 85 162 -132 242 -31 b 78 98 169 144 97 141 b 112 12 62 61 93 35 b 62 -124 137 -18 152 -94 z "}," ":{"ha":347,"x_min":0,"x_max":0,"o":""},"ƒ":{"ha":685,"x_min":0,"x_max":0,"o":"m 76 833 l 77 819 l 94 819 b 168 748 136 819 167 789 l 168 0 b 28 -233 168 -103 107 -206 l 28 -247 b 257 0 150 -247 257 -135 l 257 396 l 476 396 b 528 337 511 394 528 368 l 528 319 l 542 319 l 542 514 l 528 514 l 528 496 b 473 437 528 464 510 438 l 257 437 l 257 791 l 520 791 b 588 719 561 790 588 758 l 588 698 l 602 698 l 602 855 b 458 833 579 846 510 834 z "},"¢":{"ha":836,"x_min":0,"x_max":0,"o":"m 771 423 b 451 146 758 226 627 146 l 506 813 b 738 615 622 802 707 745 l 748 615 l 724 785 b 509 855 667 822 588 847 l 519 972 l 476 973 l 467 857 b 69 480 222 857 69 717 b 407 106 69 265 203 127 l 397 -8 l 438 -13 l 447 104 b 770 258 595 104 710 160 l 781 423 z m 410 149 b 174 480 259 172 174 292 b 464 816 174 692 277 816 z "},"¤":{"ha":751,"x_min":0,"x_max":0,"o":"m 683 213 l 599 297 b 598 683 694 408 693 572 l 683 768 l 653 797 l 568 712 b 182 714 458 808 293 809 l 99 797 l 69 768 l 152 685 b 151 295 54 574 53 406 l 69 213 l 99 184 l 180 265 b 570 267 292 168 459 169 l 653 184 z m 194 309 b 194 669 95 409 95 569 b 554 669 294 768 455 768 b 554 309 653 569 653 409 b 194 309 455 210 294 210 z "},"$":{"ha":651,"x_min":0,"x_max":0,"o":"m 347 558 l 377 947 b 505 807 455 936 505 885 l 519 807 l 519 977 l 465 977 b 380 990 441 983 412 987 l 388 1093 l 346 1094 l 338 992 b 101 758 201 992 101 887 b 176 585 101 702 118 638 l 298 471 l 264 25 b 110 250 161 41 99 123 l 98 250 b 82 56 76 188 71 99 b 261 -15 121 16 190 -7 l 252 -138 l 293 -142 l 303 -20 b 576 241 475 -18 576 78 b 507 410 576 300 560 360 z m 234 662 b 178 792 193 701 178 750 b 335 949 178 873 247 945 l 307 594 z m 337 435 l 442 338 b 496 207 480 302 496 257 b 306 23 496 101 413 26 z "},"€":{"ha":1018,"x_min":0,"x_max":0,"o":"m 935 214 b 643 23 909 77 814 23 b 245 394 444 23 282 180 l 772 394 l 786 436 l 239 436 b 237 487 238 453 237 470 b 239 533 237 503 238 518 l 820 533 l 835 574 l 244 574 b 643 950 279 791 442 950 b 888 776 744 950 921 926 l 902 776 l 947 909 b 643 992 899 967 783 992 b 140 574 388 992 182 814 l 1 574 l -14 533 l 135 533 b 133 486 134 517 133 502 b 135 436 133 469 134 452 l 1 436 l -14 394 l 141 394 b 643 -18 184 157 389 -18 b 948 68 760 -18 888 7 l 949 214 z "},"£":{"ha":801,"x_min":0,"x_max":0,"o":"m 747 221 b 433 67 679 85 544 57 b 174 75 329 75 244 99 b 319 457 242 140 316 211 l 556 457 l 573 506 l 318 506 b 500 950 309 771 330 933 b 646 785 588 958 662 913 l 660 785 l 697 912 b 500 992 659 961 590 1000 b 221 506 276 971 208 778 l 86 506 l 69 457 l 222 457 b 80 14 221 227 151 70 l 80 0 l 94 0 b 151 33 111 17 138 31 b 430 -11 238 51 306 6 b 698 33 504 -21 606 -8 l 761 221 z "},"¥":{"ha":918,"x_min":0,"x_max":0,"o":"m 625 972 l 625 958 l 642 958 b 692 874 680 958 713 913 l 470 483 l 262 872 b 310 958 241 912 270 958 l 328 958 l 328 972 l -14 972 l -14 958 l 5 958 b 145 877 63 958 118 920 l 325 576 l 145 576 l 145 535 l 350 535 l 409 435 l 409 410 l 145 410 l 145 368 l 409 368 l 409 101 b 320 14 408 53 369 14 l 303 14 l 302 0 l 606 0 l 606 14 l 588 14 b 500 100 540 14 501 52 l 500 368 l 764 368 l 764 410 l 500 410 l 500 434 l 562 535 l 764 535 l 764 576 l 588 576 l 774 878 b 913 958 804 920 856 958 l 933 958 l 933 972 z "},"≈":{"ha":668,"x_min":0,"x_max":0,"o":"m 93 486 b 215 540 130 522 153 551 b 443 457 290 527 353 472 b 614 540 527 442 591 517 l 577 575 b 443 519 545 550 496 509 b 215 603 378 532 305 590 b 56 519 140 613 82 554 z m 93 250 b 215 304 130 286 153 315 b 443 221 290 291 353 236 b 614 304 527 206 591 281 l 577 339 b 443 283 545 314 496 273 b 215 367 378 296 305 354 b 56 283 140 377 82 318 z "},"~":{"ha":685,"x_min":0,"x_max":0,"o":"m 567 490 b 480 359 595 405 539 357 b 195 497 408 362 292 499 b 56 304 108 495 32 433 l 118 304 b 195 434 101 399 143 437 b 480 297 277 430 384 297 b 629 490 573 297 661 356 z "},"÷":{"ha":668,"x_min":0,"x_max":0,"o":"m 334 601 b 383 650 361 601 383 623 b 334 699 383 677 361 699 b 285 650 307 699 285 677 b 334 601 285 623 307 601 z m 56 399 l 614 399 l 614 461 l 56 461 z m 334 162 b 383 211 361 162 383 184 b 334 260 383 238 361 260 b 285 211 307 260 285 238 b 334 162 285 184 307 162 z "},"=":{"ha":668,"x_min":0,"x_max":0,"o":"m 56 505 l 614 505 l 614 568 l 56 568 z m 56 262 l 614 262 l 614 325 l 56 325 z "},">":{"ha":668,"x_min":0,"x_max":0,"o":"m 56 727 l 56 660 l 531 431 l 56 200 l 56 134 l 614 399 l 614 461 z "},"≥":{"ha":668,"x_min":0,"x_max":0,"o":"m 56 818 l 56 752 l 531 522 l 56 292 l 56 225 l 614 491 l 614 553 z m 56 60 l 614 60 l 614 123 l 56 123 z "},"∞":{"ha":824,"x_min":0,"x_max":0,"o":"m 439 365 b 655 229 482 296 562 229 b 824 412 752 229 825 307 b 655 596 823 518 750 596 b 440 464 573 596 492 533 b 225 596 387 534 307 596 b 56 412 130 596 57 518 b 225 229 54 307 127 229 b 439 365 315 229 395 292 z m 225 288 b 118 412 167 288 118 344 b 225 537 118 481 167 537 b 402 413 296 537 358 472 b 225 288 363 353 296 288 z m 655 288 b 477 413 583 288 520 348 b 655 537 518 468 583 537 b 761 412 712 537 761 481 b 655 288 761 344 712 288 z "},"∫":{"ha":611,"x_min":0,"x_max":0,"o":"m 436 1100 b 273 832 315 1087 281 940 b 225 -87 265 714 229 -14 b 176 -212 220 -183 202 -212 b 118 -153 144 -212 141 -175 b 41 -157 99 -133 65 -131 b 36 -221 26 -174 23 -200 b 162 -265 59 -258 120 -269 b 325 3 283 -253 317 -106 b 373 922 333 121 370 848 b 422 1047 378 1018 397 1047 b 480 987 454 1047 457 1010 b 557 992 499 968 533 965 b 563 1055 572 1008 575 1035 b 436 1100 539 1093 479 1104 z "},"<":{"ha":668,"x_min":0,"x_max":0,"o":"m 614 727 l 56 461 l 56 399 l 614 134 l 614 200 l 138 431 l 614 660 z "},"≤":{"ha":668,"x_min":0,"x_max":0,"o":"m 614 818 l 56 553 l 56 491 l 614 225 l 614 292 l 138 522 l 614 752 z m 56 60 l 614 60 l 614 123 l 56 123 z "},"¬":{"ha":835,"x_min":0,"x_max":0,"o":"m 56 552 l 56 489 l 718 489 l 718 270 l 780 270 l 780 552 z "},"−":{"ha":668,"x_min":0,"x_max":0,"o":"m 56 399 l 614 399 l 614 461 l 56 461 z "},"×":{"ha":576,"x_min":0,"x_max":0,"o":"m 508 605 l 464 650 l 289 474 l 114 650 l 69 605 l 245 430 l 69 255 l 114 211 l 289 386 l 464 211 l 508 255 l 333 430 z "},"≠":{"ha":668,"x_min":0,"x_max":0,"o":"m 614 505 l 614 568 l 449 568 l 510 694 l 455 720 l 381 568 l 56 568 l 56 505 l 351 505 l 263 325 l 56 325 l 56 262 l 233 262 l 163 118 l 220 93 l 302 262 l 614 262 l 614 325 l 332 325 l 419 505 z "},"∂":{"ha":786,"x_min":0,"x_max":0,"o":"m 109 802 b 401 915 207 937 320 935 b 604 511 543 882 607 703 b 100 364 369 714 148 534 b 365 -19 48 182 112 -33 b 702 463 565 -8 684 164 b 407 992 719 737 600 969 b 97 812 260 1009 167 948 z m 602 463 b 365 22 584 203 481 33 b 191 321 222 8 150 157 b 604 492 235 496 357 628 z "},"%":{"ha":950,"x_min":0,"x_max":0,"o":"m 720 985 b 524 913 676 964 603 907 b 350 985 456 918 418 967 b 299 992 334 990 310 992 b 68 746 186 990 94 896 b 214 501 41 594 103 501 b 447 746 326 501 420 594 b 431 916 460 817 453 875 b 523 886 460 902 490 888 b 693 940 593 880 647 916 l 198 0 l 234 -15 l 751 972 z m 373 746 b 219 529 350 612 291 529 b 142 746 147 529 118 612 b 296 964 165 881 224 964 b 373 746 368 964 397 881 z m 737 471 b 504 226 626 471 531 378 b 650 -19 477 73 539 -19 b 883 226 762 -19 856 73 b 737 471 910 378 849 471 z m 810 226 b 655 8 786 91 727 8 b 578 226 584 8 554 91 b 732 443 602 360 660 443 b 810 226 804 443 833 360 z "},"‰":{"ha":1410,"x_min":0,"x_max":0,"o":"m 720 985 b 524 913 676 964 603 907 b 350 985 456 918 418 967 b 295 992 334 990 310 992 b 68 746 186 992 94 896 b 214 501 41 594 103 501 b 447 746 326 501 420 594 b 431 916 460 817 453 875 b 523 886 460 902 490 888 b 693 940 593 880 647 916 l 198 0 l 234 -15 l 751 972 z m 373 746 b 219 529 350 612 291 529 b 142 746 147 529 118 612 b 296 964 165 881 224 964 b 373 746 368 964 397 881 z m 737 471 b 504 226 626 471 531 378 b 650 -19 477 73 539 -19 b 883 226 762 -19 856 73 b 737 471 910 378 849 471 z m 1195 471 b 963 226 1084 471 989 378 b 1109 -19 936 73 997 -19 b 1342 226 1220 -19 1315 73 b 1195 471 1368 378 1307 471 z m 810 226 b 655 8 786 91 727 8 b 578 226 584 8 554 91 b 732 443 602 360 660 443 b 810 226 804 443 833 360 z m 1268 226 b 1114 8 1244 91 1186 8 b 1036 226 1042 8 1013 91 b 1190 443 1060 360 1119 443 b 1268 226 1262 443 1292 360 z "},"+":{"ha":668,"x_min":0,"x_max":0,"o":"m 614 461 l 366 461 l 366 709 l 303 709 l 303 461 l 56 461 l 56 399 l 303 399 l 303 151 l 366 151 l 366 399 l 614 399 z "},"±":{"ha":668,"x_min":0,"x_max":0,"o":"m 366 559 l 366 806 l 303 806 l 303 559 l 56 559 l 56 496 l 303 496 l 303 248 l 366 248 l 366 496 l 614 496 l 614 559 z m 56 83 l 614 83 l 614 146 l 56 146 z "},"∏":{"ha":1060,"x_min":0,"x_max":0,"o":"m 984 -264 l 969 -264 b 893 -190 928 -264 894 -231 l 893 885 b 969 958 895 926 928 958 l 984 958 l 985 972 l 76 972 l 77 958 l 92 958 b 168 883 134 958 168 925 l 168 -189 b 92 -264 168 -231 134 -264 l 77 -264 l 76 -278 l 349 -278 l 349 -264 l 334 -264 b 257 -190 293 -264 259 -231 l 257 858 b 332 931 259 898 292 931 l 729 931 b 804 855 770 931 803 896 l 804 -189 b 727 -264 803 -231 769 -264 l 712 -264 l 712 -278 l 985 -278 z "},"√":{"ha":825,"x_min":0,"x_max":0,"o":"m 35 556 l 149 573 l 370 -204 l 798 1168 l 756 1171 l 392 13 l 221 626 l 28 598 z "},"∑":{"ha":882,"x_min":0,"x_max":0,"o":"m 834 12 l 820 12 b 642 -161 795 -81 738 -156 l 160 -161 l 500 388 l 184 931 l 698 931 b 778 848 742 929 778 893 l 778 823 l 792 823 l 792 998 b 622 972 765 986 682 972 l 63 972 l 63 958 l 423 351 l 56 -236 l 56 -250 l 788 -250 z "},"&":{"ha":1136,"x_min":0,"x_max":0,"o":"m 1583 -85 b 956 50 1337 -204 1126 -86 l 867 123 b 690 1096 1139 375 1172 900 l 683 1088 b 835 149 1148 846 1079 373 b 516 421 708 256 545 396 b 284 753 370 547 288 636 b 465 951 280 868 352 950 b 665 736 577 950 660 869 l 679 736 l 698 893 b 457 992 649 949 566 990 b 188 743 282 993 183 889 b 248 569 191 681 211 625 b 89 294 158 521 84 433 b 580 -14 96 75 349 -42 b 793 65 659 -4 730 24 b 944 -57 858 12 914 -33 b 1589 -97 1118 -189 1373 -283 z m 579 28 b 189 315 372 7 195 146 b 272 535 187 389 206 473 b 455 351 316 478 378 418 b 761 92 506 307 642 191 b 579 28 705 57 643 34 z "},"@":{"ha":1357,"x_min":0,"x_max":0,"o":"m 764 325 l 772 176 b 715 125 772 143 736 125 l 706 125 l 704 115 l 924 115 l 925 125 l 918 125 b 861 191 892 125 867 145 l 804 751 l 795 751 l 542 404 b 266 143 471 307 370 141 b 216 542 147 144 126 340 b 857 913 335 808 578 950 b 1180 429 1082 884 1212 693 b 264 -74 1129 7 754 -265 l 270 -87 b 1270 429 869 -342 1226 32 b 857 955 1301 698 1137 919 b 126 549 523 998 244 829 b 266 101 22 302 114 100 b 536 325 363 102 438 188 z m 747 626 l 762 356 l 558 356 z "},"|":{"ha":340,"x_min":0,"x_max":0,"o":"m 139 -250 l 201 -250 l 201 972 l 139 972 z "},"¦":{"ha":340,"x_min":0,"x_max":0,"o":"m 139 486 l 201 486 l 201 972 l 139 972 z m 139 -250 l 201 -250 l 201 236 l 139 236 z "},"©":{"ha":1178,"x_min":0,"x_max":0,"o":"m 589 992 b 83 486 310 992 83 765 b 589 -19 83 207 310 -19 b 1094 486 868 -19 1094 207 b 589 992 1094 765 868 992 z m 589 941 b 1044 486 840 941 1044 737 b 589 31 1044 235 840 31 b 134 486 338 31 134 235 b 589 941 134 737 338 941 z m 856 439 b 597 213 845 277 737 213 b 371 486 468 215 371 333 b 597 760 371 642 468 760 b 828 597 716 760 804 698 l 837 597 l 817 736 b 597 796 759 773 676 796 b 279 486 415 796 279 663 b 597 176 279 310 415 177 b 855 303 709 176 807 225 l 864 439 z "},"†":{"ha":718,"x_min":0,"x_max":0,"o":"m 664 609 l 644 661 l 428 637 l 366 616 l 387 674 l 411 972 l 361 992 l 307 972 l 332 674 l 352 616 l 290 637 l 75 661 l 56 609 l 75 557 l 290 581 l 353 602 l 332 543 l 314 215 l 352 -250 l 366 -250 l 404 215 l 387 543 l 366 602 l 428 581 l 644 557 z "},"‡":{"ha":719,"x_min":0,"x_max":0,"o":"m 645 184 l 431 160 l 368 139 l 389 197 l 412 370 l 387 543 l 366 602 l 428 581 l 644 557 l 664 609 l 644 661 l 428 637 l 366 616 l 387 674 l 411 972 l 361 992 l 307 972 l 332 674 l 352 616 l 290 637 l 75 661 l 56 609 l 75 557 l 290 581 l 353 602 l 332 543 l 308 370 l 333 197 l 355 138 l 292 160 l 76 184 l 56 132 l 76 80 l 292 104 l 354 125 l 333 67 l 309 -232 l 359 -251 l 413 -232 l 389 67 l 368 125 l 431 104 l 645 80 l 665 132 z "},"°":{"ha":357,"x_min":0,"x_max":0,"o":"m 179 923 b 42 786 103 923 42 861 b 179 649 42 710 103 649 b 315 786 254 649 315 710 b 179 923 315 861 254 923 z m 179 868 b 261 786 225 868 261 832 b 179 704 261 740 225 704 b 96 786 132 704 96 740 b 179 868 96 832 132 868 z "},"◊":{"ha":736,"x_min":0,"x_max":0,"o":"m 668 486 l 360 -19 l 69 486 l 360 992 z m 129 486 l 360 76 l 608 486 l 360 896 z "},"¶":{"ha":722,"x_min":0,"x_max":0,"o":"m 699 1031 b 566 972 642 966 596 972 l 342 972 b 69 718 192 972 71 875 b 342 463 68 560 189 463 l 342 0 b 258 -264 346 -135 336 -183 l 268 -276 b 387 0 382 -217 387 -107 l 387 931 l 503 931 l 503 201 b 465 -7 503 109 505 62 l 478 -18 b 545 204 532 48 545 97 l 545 931 l 562 931 b 709 1023 645 932 686 973 z "},"®":{"ha":340,"x_min":0,"x_max":0,"o":"m 171 973 b 14 817 84 973 14 903 b 171 660 14 730 84 660 b 327 817 257 660 327 730 b 171 973 327 903 257 973 z m 171 688 b 42 817 99 688 42 745 b 171 946 42 888 99 946 b 300 817 242 946 300 888 b 171 688 300 745 242 688 z m 145 905 l 94 905 l 94 902 l 97 902 b 112 888 106 902 112 896 l 112 756 b 97 741 112 748 106 741 l 94 741 l 94 739 l 164 739 l 164 741 l 160 741 b 145 756 152 741 145 748 l 145 892 l 162 892 b 196 862 186 892 196 880 b 195 846 197 856 196 850 b 170 822 187 823 171 823 l 155 822 l 155 820 b 170 801 161 820 165 810 b 244 739 187 774 197 739 l 262 739 l 262 741 b 233 768 244 747 237 762 b 194 815 222 784 206 812 b 233 860 217 817 233 837 b 176 905 233 888 208 905 z "},"§":{"ha":710,"x_min":0,"x_max":0,"o":"m 386 983 b 249 274 169 947 -76 586 b 426 -136 482 49 523 -69 b 160 -75 297 -226 212 -36 b 338 -210 100 -121 168 -237 b 467 510 563 -172 776 198 b 294 911 222 757 202 844 b 563 850 422 1004 510 811 b 386 983 619 893 556 1011 z m 193 810 b 401 440 183 702 223 612 b 516 -21 608 242 585 88 b 311 344 542 70 487 184 b 193 810 88 548 134 698 z "},"™":{"ha":619,"x_min":0,"x_max":0,"o":"m 61 972 b 14 979 44 972 21 976 l 14 922 l 18 922 l 18 929 b 40 952 18 941 28 952 l 106 952 l 106 726 b 81 702 105 713 94 702 l 76 702 l 76 698 l 178 698 l 178 702 l 173 702 b 148 727 160 702 149 713 l 148 952 l 214 952 b 236 929 226 952 236 942 l 236 922 l 240 922 l 240 979 b 193 972 233 976 210 972 z m 529 977 l 525 977 l 425 761 l 310 977 l 306 977 l 277 727 b 248 702 275 711 262 702 l 242 702 l 242 699 l 327 699 l 327 702 l 321 702 b 306 719 313 702 305 710 l 317 880 l 414 693 l 417 693 b 431 733 420 709 431 733 l 504 888 l 529 719 b 514 702 530 710 522 702 l 508 702 l 508 699 l 607 699 l 607 702 l 600 702 b 572 727 586 702 575 711 z "},"^":{"ha":726,"x_min":0,"x_max":0,"o":"m 323 515 l 406 515 l 678 253 l 590 253 l 364 467 l 136 253 l 49 253 z "},"̦":{"ha":0,"x_min":0,"x_max":0,"o":"m 44 -200 b 141 -35 117 -197 177 -121 b 54 -24 122 11 68 9 b 79 -89 41 -51 65 -71 b 42 -190 98 -111 109 -169 z "},"´":{"ha":610,"x_min":0,"x_max":0,"o":"m 288 1036 b 512 1155 363 1073 437 1111 b 455 1228 497 1182 477 1206 b 279 1046 396 1171 337 1109 z "},"˘":{"ha":611,"x_min":0,"x_max":0,"o":"m 435 1186 b 306 1111 421 1148 370 1111 b 177 1186 241 1111 191 1148 l 163 1186 b 306 1042 163 1108 228 1042 b 449 1186 383 1042 449 1108 z "},"ˇ":{"ha":833,"x_min":0,"x_max":0,"o":"m 403 1012 l 389 1012 l 230 1177 l 239 1189 l 396 1097 l 542 1188 l 550 1177 z "},"¸":{"ha":833,"x_min":0,"x_max":0,"o":"m 344 -86 l 351 -100 b 467 -146 401 -79 465 -87 b 342 -235 470 -212 399 -235 l 341 -249 b 537 -147 434 -278 540 -235 b 391 -67 534 -51 440 -50 l 449 1 l 411 1 z "},"ˆ":{"ha":833,"x_min":0,"x_max":0,"o":"m 378 1189 l 392 1189 l 550 1023 l 542 1012 l 384 1104 l 239 1012 l 230 1024 z "},"¨":{"ha":833,"x_min":0,"x_max":0,"o":"m 259 972 b 313 1027 289 972 313 997 b 259 1081 313 1057 289 1081 b 204 1027 229 1081 204 1057 b 259 972 204 997 229 972 z m 520 972 b 575 1027 550 972 575 997 b 520 1081 575 1057 550 1081 b 466 1027 490 1081 466 1057 b 520 972 466 997 490 972 z "},"˙":{"ha":833,"x_min":0,"x_max":0,"o":"m 418 973 b 478 1033 451 973 478 1000 b 418 1093 478 1066 451 1093 b 358 1033 385 1093 358 1066 b 418 973 358 1000 385 973 z "},"`":{"ha":610,"x_min":0,"x_max":0,"o":"m 333 1046 b 156 1228 274 1111 215 1171 b 100 1155 135 1207 114 1183 b 323 1036 174 1111 249 1071 z "},"˝":{"ha":833,"x_min":0,"x_max":0,"o":"m 294 1043 b 456 1210 352 1099 406 1154 b 372 1228 430 1221 400 1226 b 279 1046 338 1167 307 1106 z m 464 1043 b 626 1210 523 1097 576 1154 b 542 1228 601 1220 570 1227 b 449 1046 504 1167 474 1106 z "},"¯":{"ha":833,"x_min":0,"x_max":0,"o":"m 236 976 l 584 976 l 584 1025 l 236 1025 z "},"˛":{"ha":833,"x_min":0,"x_max":0,"o":"m 590 -149 b 421 -90 522 -219 424 -169 b 524 19 419 -37 447 0 l 511 23 b 357 -106 427 23 356 -32 b 599 -157 359 -267 557 -271 z "},"˚":{"ha":833,"x_min":0,"x_max":0,"o":"m 419 1179 b 288 1075 344 1179 288 1136 b 419 971 288 1014 344 971 b 549 1075 493 971 549 1014 b 419 1179 549 1141 493 1179 z m 419 1156 b 487 1075 457 1156 487 1127 b 419 995 487 1024 457 995 b 350 1075 380 995 350 1024 b 419 1156 350 1127 380 1156 z "},"˜":{"ha":833,"x_min":0,"x_max":0,"o":"m 573 1081 b 482 972 565 1014 530 972 b 314 1033 422 972 359 1033 b 239 976 279 1033 255 1015 l 225 976 b 314 1094 236 1049 270 1094 b 482 1035 377 1094 434 1035 b 559 1081 521 1035 546 1050 z "}}}
